<svg width="130" height="130" viewBox="0 0 130 130" fill="none" xmlns="http://www.w3.org/2000/svg">
<path d="M106.855 73.6261C110.191 73.6272 113.408 72.3895 115.882 70.153C118.357 67.9165 119.912 64.8406 120.247 61.5221C120.582 58.2036 119.672 54.879 117.695 52.1932C115.717 49.5074 112.812 47.6518 109.544 46.9865C108.472 43.5231 106.44 40.4347 103.683 38.08C100.927 35.7253 97.5585 34.2008 93.9701 33.6835C90.3817 33.1663 86.7202 33.6775 83.4107 35.1578C80.1013 36.6381 77.2796 39.0268 75.2732 42.0465C73.0482 41.3243 70.6929 41.0932 68.3699 41.369C66.0469 41.6447 63.8112 42.4209 61.8171 43.644C59.8229 44.867 58.1177 46.5079 56.8188 48.4535C55.5199 50.3992 54.6583 52.6033 54.2933 54.914C53.9284 57.2247 54.0688 59.5871 54.7048 61.8383C55.3409 64.0895 56.4574 66.1761 57.9776 67.9542C59.4977 69.7323 61.3853 71.1597 63.5103 72.138C65.6353 73.1163 67.9471 73.6222 70.2864 73.6209" fill="#054C7B"/>
<path d="M59.4542 80.1346L57.5354 75.14C57.1584 74.1572 56.2354 73.4786 55.1356 73.7776C54.197 74.0376 53.3936 75.1868 53.7732 76.1774L55.6894 81.1694C56.0664 82.1522 56.9894 82.8308 58.0892 82.5318C59.0278 82.2718 59.8312 81.1226 59.4516 80.132L59.4542 80.1346Z" fill="#2EA7E0"/>
<path d="M27.2435 77.1812L25.3247 72.1866C24.9477 71.2038 24.0247 70.5252 22.9249 70.8242C21.9863 71.0842 21.1829 72.2334 21.5625 73.224L23.4787 78.216C23.8557 79.1988 24.7787 79.8774 25.8785 79.5784C26.8171 79.3184 27.6205 78.1692 27.2409 77.1786L27.2435 77.1812Z" fill="#2EA7E0"/>
<path d="M28.4457 95.2129L26.5269 90.2183C26.1499 89.2355 25.2269 88.5569 24.1271 88.8559C23.1885 89.1159 22.3851 90.2651 22.7647 91.2557L24.6809 96.2477C25.0579 97.2305 25.9809 97.9091 27.0807 97.6101C28.0193 97.3501 28.8227 96.2009 28.4431 95.2103L28.4457 95.2129Z" fill="#2EA7E0"/>
<path d="M60.0441 98.304L58.1253 93.3094C57.7483 92.3266 56.8253 91.648 55.7255 91.947C54.7869 92.207 53.9835 93.3562 54.3631 94.3468L56.2793 99.3388C56.6563 100.322 57.5793 101 58.6791 100.701C59.6177 100.441 60.4211 99.292 60.0415 98.3014L60.0441 98.304Z" fill="#2EA7E0"/>
<path d="M88.2079 83.8787L86.2891 78.8841C85.9121 77.9013 84.9891 77.2227 83.8893 77.5217C82.9507 77.7817 82.1473 78.9309 82.5269 79.9215L84.4431 84.9135C84.8201 85.8963 85.7431 86.5749 86.8429 86.2759C87.7815 86.0159 88.5849 84.8667 88.2053 83.8761L88.2079 83.8787Z" fill="#2EA7E0"/>
<path d="M69.3237 80.1346L67.4075 75.14C67.0305 74.1572 66.1075 73.4786 65.0077 73.7776C64.0691 74.0376 63.2657 75.1868 63.6453 76.1774L65.5615 81.1694C65.9385 82.1522 66.8615 82.8308 67.9613 82.5318C68.8999 82.2718 69.7033 81.1226 69.3237 80.132V80.1346Z" fill="#2EA7E0"/>
<path d="M37.1132 77.1812L35.197 72.1866C34.82 71.2038 33.897 70.5252 32.7972 70.8242C31.8586 71.0842 31.0552 72.2334 31.4348 73.224L33.351 78.216C33.728 79.1988 34.6511 79.8774 35.7509 79.5784C36.6895 79.3184 37.4928 78.1692 37.1132 77.1786V77.1812Z" fill="#2EA7E0"/>
<path d="M38.3154 95.2129L36.3992 90.2183C36.0222 89.2355 35.0992 88.5569 33.9994 88.8559C33.0608 89.1159 32.2574 90.2651 32.637 91.2557L34.5532 96.2477C34.9302 97.2305 35.8532 97.9091 36.953 97.6101C37.8916 97.3501 38.695 96.2009 38.3154 95.2103V95.2129Z" fill="#2EA7E0"/>
<path d="M69.9138 98.304L67.9976 93.3094C67.6206 92.3266 66.6976 91.648 65.5978 91.947C64.6592 92.207 63.8558 93.3562 64.2354 94.3468L66.1516 99.3388C66.5286 100.322 67.4516 101 68.5514 100.701C69.49 100.441 70.2934 99.292 69.9138 98.3014V98.304Z" fill="#2EA7E0"/>
<path d="M100.825 88.6642L98.909 83.6696C98.532 82.6868 97.609 82.0082 96.5092 82.3072C95.5706 82.5672 94.7672 83.7164 95.1468 84.707L97.063 89.699C97.44 90.6818 98.363 91.3604 99.4628 91.0614C100.401 90.8014 101.205 89.6522 100.825 88.6616V88.6642Z" fill="#2EA7E0"/>
<path d="M96.2766 111.871L94.3604 106.876C93.9834 105.893 93.0604 105.215 91.9606 105.514C91.022 105.774 90.2186 106.923 90.5982 107.914L92.5144 112.906C92.8914 113.888 93.8144 114.567 94.9142 114.268C95.8528 114.008 96.6562 112.859 96.2766 111.868V111.871Z" fill="#2EA7E0"/>
<path d="M79.1933 80.1346L77.2771 75.14C76.9001 74.1572 75.9771 73.4786 74.8773 73.7776C73.9387 74.0376 73.1353 75.1868 73.5149 76.1774L75.4311 81.1694C75.8081 82.1522 76.7311 82.8308 77.8309 82.5318C78.7695 82.2718 79.5729 81.1226 79.1933 80.132V80.1346Z" fill="#2EA7E0"/>
<path d="M46.9826 77.1812L45.0664 72.1866C44.6894 71.2038 43.7664 70.5252 42.6666 70.8242C41.728 71.0842 40.9246 72.2334 41.3042 73.224L43.2204 78.216C43.5974 79.1988 44.5204 79.8774 45.6202 79.5784C46.5588 79.3184 47.3622 78.1692 46.9826 77.1786V77.1812Z" fill="#2EA7E0"/>
<path d="M48.1848 95.2129L46.2686 90.2183C45.8916 89.2355 44.9686 88.5569 43.8688 88.8559C42.9302 89.1159 42.1268 90.2651 42.5064 91.2557L44.4226 96.2477C44.7996 97.2305 45.7226 97.9091 46.8224 97.6101C47.761 97.3501 48.5644 96.2009 48.1848 95.2103V95.2129Z" fill="#2EA7E0"/>
<path d="M79.7832 98.304L77.867 93.3094C77.49 92.3266 76.567 91.648 75.4672 91.947C74.5286 92.207 73.7252 93.3562 74.1048 94.3468L76.021 99.3388C76.398 100.322 77.321 101 78.4208 100.701C79.3594 100.441 80.1628 99.292 79.7832 98.3014V98.304Z" fill="#2EA7E0"/>
<path d="M110.695 88.6642L108.779 83.6696C108.402 82.6868 107.479 82.0082 106.379 82.3072C105.44 82.5672 104.637 83.7164 105.016 84.707L106.933 89.699C107.31 90.6818 108.233 91.3604 109.332 91.0614C110.271 90.8014 111.074 89.6522 110.695 88.6616V88.6642Z" fill="#2EA7E0"/>
<path d="M106.752 112.901L104.836 107.907C104.459 106.924 103.536 106.245 102.436 106.544C101.498 106.804 100.694 107.953 101.074 108.944L102.99 113.936C103.367 114.919 104.29 115.597 105.39 115.298C106.328 115.038 107.132 113.889 106.752 112.899V112.901Z" fill="#2EA7E0"/>
<path d="M63.7363 91.2834L61.8201 86.2914C61.4431 85.3086 60.5201 84.63 59.4203 84.929C58.4817 85.189 57.6783 86.3382 58.0579 87.3288L59.9741 92.3208C60.3511 93.3036 61.2741 93.9822 62.3739 93.6832C63.3125 93.4232 64.1159 92.274 63.7363 91.2834Z" fill="#2EA7E0"/>
<path d="M94.6479 81.6436L92.7317 76.6516C92.3547 75.6688 91.4317 74.9902 90.3319 75.2892C89.3933 75.5492 88.5899 76.6984 88.9695 77.689L90.8857 82.681C91.2627 83.6638 92.1857 84.3424 93.2855 84.0434C94.2241 83.7834 95.0275 82.6342 94.6479 81.6436Z" fill="#2EA7E0"/>
<path d="M88.7204 102.938L86.8042 97.9462C86.4272 96.9634 85.5042 96.2848 84.4044 96.5838C83.4658 96.8438 82.6624 97.993 83.042 98.9836L84.9582 103.976C85.3352 104.958 86.2582 105.637 87.358 105.338C88.2966 105.078 89.1 103.929 88.7204 102.938Z" fill="#2EA7E0"/>
<path d="M31.5258 88.33L29.6096 83.338C29.2326 82.3552 28.3096 81.6766 27.2098 81.9756C26.2712 82.2356 25.4678 83.3848 25.8474 84.3754L27.7636 89.3674C28.1406 90.3502 29.0636 91.0288 30.1634 90.7298C31.102 90.4698 31.9054 89.3206 31.5258 88.33Z" fill="#2EA7E0"/>
<path d="M32.7277 106.362L30.8115 101.37C30.4345 100.387 29.5115 99.7083 28.4117 100.007C27.4731 100.267 26.6697 101.416 27.0493 102.407L28.9655 107.399C29.3425 108.382 30.2655 109.06 31.3653 108.761C32.3039 108.501 33.1073 107.352 32.7277 106.362Z" fill="#2EA7E0"/>
<path d="M64.3261 109.453L62.4099 104.461C62.0329 103.478 61.1099 102.799 60.0101 103.098C59.0715 103.358 58.2681 104.508 58.6477 105.498L60.5639 110.49C60.9409 111.473 61.8639 112.152 62.9637 111.853C63.9023 111.593 64.7057 110.443 64.3261 109.453Z" fill="#2EA7E0"/>
<path d="M93.7006 93.3213L91.7844 88.3293C91.4074 87.3465 90.4844 86.6679 89.3846 86.9669C88.446 87.2269 87.6426 88.3761 88.0222 89.3667L89.9384 94.3587C90.3154 95.3415 91.2384 96.0201 92.3382 95.7211C93.2768 95.4611 94.0802 94.3119 93.7006 93.3213Z" fill="#2EA7E0"/>
<path d="M73.6059 91.2834L71.6897 86.2914C71.3127 85.3086 70.3897 84.63 69.2899 84.929C68.3513 85.189 67.5479 86.3382 67.9275 87.3288L69.8437 92.3208C70.2207 93.3036 71.1437 93.9822 72.2435 93.6832C73.1821 93.4232 73.9855 92.274 73.6059 91.2834Z" fill="#2EA7E0"/>
<path d="M104.518 81.6436L102.601 76.6516C102.224 75.6688 101.301 74.9902 100.202 75.2892C99.2629 75.5492 98.4595 76.6984 98.8391 77.689L100.755 82.681C101.132 83.6638 102.055 84.3424 103.155 84.0434C104.094 83.7834 104.897 82.6342 104.518 81.6436Z" fill="#2EA7E0"/>
<path d="M99.196 102.423L97.2798 97.431C96.9028 96.4482 95.9798 95.7696 94.88 96.0686C93.9414 96.3286 93.138 97.4778 93.5176 98.4684L95.4338 103.46C95.8108 104.443 96.7338 105.122 97.8336 104.823C98.7722 104.563 99.5756 103.414 99.196 102.423Z" fill="#2EA7E0"/>
<path d="M41.3955 88.33L39.4793 83.338C39.1023 82.3552 38.1793 81.6766 37.0795 81.9756C36.1409 82.2356 35.3375 83.3848 35.7171 84.3754L37.6333 89.3674C38.0103 90.3502 38.9333 91.0288 40.0331 90.7298C40.9717 90.4698 41.7751 89.3206 41.3955 88.33Z" fill="#2EA7E0"/>
<path d="M42.5974 106.362L40.6812 101.37C40.3042 100.387 39.3812 99.7083 38.2814 100.007C37.3428 100.267 36.5394 101.416 36.919 102.407L38.8352 107.399C39.2122 108.382 40.1352 109.06 41.235 108.761C42.1736 108.501 42.977 107.352 42.5974 106.362Z" fill="#2EA7E0"/>
<path d="M74.196 109.453L72.2798 104.461C71.9028 103.478 70.9798 102.799 69.88 103.098C68.9414 103.358 68.138 104.508 68.5176 105.498L70.4338 110.49C70.8108 111.473 71.7338 112.152 72.8336 111.853C73.7722 111.593 74.5756 110.443 74.196 109.453Z" fill="#2EA7E0"/>
<path d="M104.52 97.958L102.604 92.966C102.227 91.9832 101.304 91.3046 100.204 91.6036C99.2651 91.8636 98.4617 93.0128 98.8413 94.0034L100.758 98.9954C101.135 99.9782 102.058 100.657 103.157 100.358C104.096 100.098 104.899 98.9486 104.52 97.958Z" fill="#2EA7E0"/>
<path d="M83.4755 91.2834L81.5593 86.2914C81.1823 85.3086 80.2593 84.63 79.1595 84.929C78.2209 85.189 77.4175 86.3382 77.7971 87.3288L79.7133 92.3208C80.0903 93.3036 81.0134 93.9822 82.1132 93.6832C83.0518 93.4232 83.8551 92.274 83.4755 91.2834Z" fill="#2EA7E0"/>
<path d="M114.387 81.6436L112.471 76.6516C112.094 75.6688 111.171 74.9902 110.071 75.2892C109.132 75.5492 108.329 76.6984 108.709 77.689L110.625 82.681C111.002 83.6638 111.925 84.3424 113.025 84.0434C113.963 83.7834 114.767 82.6342 114.387 81.6436Z" fill="#2EA7E0"/>
<path d="M111.811 104.827L109.895 99.8352C109.518 98.8524 108.595 98.1738 107.495 98.4728C106.556 98.7328 105.753 99.882 106.133 100.873L108.049 105.865C108.426 106.847 109.349 107.526 110.449 107.227C111.387 106.967 112.191 105.818 111.811 104.827Z" fill="#2EA7E0"/>
<path d="M51.2649 88.33L49.3487 83.338C48.9717 82.3552 48.0487 81.6766 46.9489 81.9756C46.0103 82.2356 45.2069 83.3848 45.5865 84.3754L47.5027 89.3674C47.8797 90.3502 48.8027 91.0288 49.9025 90.7298C50.8411 90.4698 51.6445 89.3206 51.2649 88.33Z" fill="#2EA7E0"/>
<path d="M52.467 106.362L50.5508 101.37C50.1738 100.387 49.2508 99.7083 48.151 100.007C47.2124 100.267 46.409 101.416 46.7886 102.407L48.7048 107.399C49.0818 108.382 50.0048 109.06 51.1046 108.761C52.0432 108.501 52.8466 107.352 52.467 106.362Z" fill="#2EA7E0"/>
<path d="M84.0654 109.453L82.1492 104.461C81.7722 103.478 80.8492 102.799 79.7494 103.098C78.8108 103.358 78.0074 104.508 78.387 105.498L80.3032 110.49C80.6802 111.473 81.6032 112.152 82.703 111.853C83.6416 111.593 84.445 110.443 84.0654 109.453Z" fill="#2EA7E0"/>
<path d="M114.977 99.813L113.061 94.821C112.684 93.8382 111.761 93.1596 110.661 93.4586C109.722 93.7186 108.919 94.8678 109.299 95.8584L111.215 100.85C111.592 101.833 112.515 102.512 113.615 102.213C114.553 101.953 115.357 100.804 114.977 99.813Z" fill="#2EA7E0"/>
<path fill-rule="evenodd" clip-rule="evenodd" d="M23.4843 69.3598C16.6773 69.3598 11.1626 63.8451 11.1626 57.0382C11.1626 50.3063 16.5571 44.8367 23.2739 44.7165C24.0703 32.6803 34.0779 23.1836 46.2944 23.1836C56.1667 23.1836 64.5965 29.3745 67.8873 38.0898C68.819 37.9245 69.7656 37.8344 70.7273 37.8344C78.7364 37.8344 85.3631 43.8149 86.3548 51.5535C91.2684 51.5535 95.2504 55.5505 95.2504 60.4491C95.2504 65.3027 91.3887 69.2396 86.5802 69.3598C65.5432 69.6453 44.5213 69.3598 23.4843 69.3598Z" fill="#0E6096"/>
</svg>
