<svg width="130" height="130" viewBox="0 0 130 130" fill="none" xmlns="http://www.w3.org/2000/svg">
<path d="M66.0156 102.578V104.609" stroke="#0BAEFF" stroke-width="3" stroke-miterlimit="10" stroke-linecap="round"/>
<path d="M53.8281 98.5156V100.547" stroke="#0BAEFF" stroke-width="3" stroke-miterlimit="10" stroke-linecap="round"/>
<path d="M78.2031 98.5156V100.547" stroke="#0BAEFF" stroke-width="3" stroke-miterlimit="10" stroke-linecap="round"/>
<path d="M78.2031 110.703V112.734" stroke="#0BAEFF" stroke-width="3" stroke-miterlimit="10" stroke-linecap="round"/>
<path d="M53.8281 110.703V112.734" stroke="#0BAEFF" stroke-width="3" stroke-miterlimit="10" stroke-linecap="round"/>
<path d="M66.0156 114.766V116.797" stroke="#0BAEFF" stroke-width="3" stroke-miterlimit="10" stroke-linecap="round"/>
<path d="M48.0596 20.1094C54.5241 20.1073 60.8666 21.8692 66.4039 25.2052C71.9412 28.5412 76.4633 33.3248 79.483 39.0406C83.1921 36.8721 87.3515 35.5886 91.6376 35.2898C95.9237 34.9911 100.221 35.6852 104.195 37.3182C108.169 38.9512 111.713 41.479 114.55 44.705C117.388 47.9311 119.443 51.7683 120.556 55.9181C121.669 60.068 121.809 64.4187 120.966 68.6317C120.123 72.8447 118.32 76.8064 115.696 80.2086C113.072 83.6108 109.699 86.3618 105.838 88.2476C101.978 90.1334 97.7341 91.1031 93.4377 91.0813L47.958 91.2031C38.5304 91.2031 29.4889 87.458 22.8226 80.7917C16.1562 74.1254 12.4111 65.0839 12.4111 55.6562C12.4111 46.2286 16.1562 37.1871 22.8226 30.5208C29.4889 23.8545 38.5304 20.1094 47.958 20.1094H48.0596Z" fill="url(#paint0_linear_41_92)"/>
<path d="M120.448 70.6762C124.599 55.82 115.921 40.4118 101.064 36.2611C86.2082 32.1104 70.8001 40.7889 66.6493 55.6451C62.4986 70.5013 71.1771 85.9094 86.0333 90.0602C100.89 94.2109 116.298 85.5324 120.448 70.6762Z" fill="url(#paint1_linear_41_92)"/>
<defs>
<linearGradient id="paint0_linear_41_92" x1="39.1018" y1="94.2297" x2="81.9408" y2="38.7563" gradientUnits="userSpaceOnUse">
<stop stop-color="#F2F2F2"/>
<stop offset="1" stop-color="#CFCFCF"/>
</linearGradient>
<linearGradient id="paint1_linear_41_92" x1="104.95" y1="53.2278" x2="72.5898" y2="81.4112" gradientUnits="userSpaceOnUse">
<stop offset="0.02" stop-color="white"/>
<stop offset="1" stop-color="white" stop-opacity="0"/>
</linearGradient>
</defs>
</svg>
