<svg width="130" height="121" viewBox="0 0 130 121" fill="none" xmlns="http://www.w3.org/2000/svg">
<path d="M60.3066 95.188V97.5326" stroke="#00168B" stroke-width="2" stroke-miterlimit="10" stroke-linecap="round"/>
<path d="M94.6367 92.8744V95.219" stroke="#00168B" stroke-width="2" stroke-miterlimit="10" stroke-linecap="round"/>
<path d="M17.5542 82.3012V84.6457" stroke="#00168B" stroke-width="2" stroke-miterlimit="10" stroke-linecap="round"/>
<path d="M46.5952 90.499V92.8435" stroke="#00168B" stroke-width="2" stroke-miterlimit="10" stroke-linecap="round"/>
<path d="M80.9253 88.1854V90.5299" stroke="#00168B" stroke-width="2" stroke-miterlimit="10" stroke-linecap="round"/>
<path d="M65.1021 117.655V120" stroke="#00168B" stroke-width="2" stroke-miterlimit="10" stroke-linecap="round"/>
<path d="M10.3984 97.6338V99.9783" stroke="#00168B" stroke-width="2" stroke-miterlimit="10" stroke-linecap="round"/>
<path d="M74.0181 90.499V92.8435" stroke="#00168B" stroke-width="2" stroke-miterlimit="10" stroke-linecap="round"/>
<path d="M108.348 88.1854V90.5299" stroke="#00168B" stroke-width="2" stroke-miterlimit="10" stroke-linecap="round"/>
<path d="M92.5244 117.655V120" stroke="#00168B" stroke-width="2" stroke-miterlimit="10" stroke-linecap="round"/>
<path d="M37.8208 97.6338V99.9783" stroke="#00168B" stroke-width="2" stroke-miterlimit="10" stroke-linecap="round"/>
<path d="M31.2656 77.6121V79.9567" stroke="#00168B" stroke-width="3" stroke-miterlimit="10" stroke-linecap="round"/>
<path d="M31.1948 105.732V108.077" stroke="#00168B" stroke-width="2" stroke-miterlimit="10" stroke-linecap="round"/>
<path d="M74.0181 104.566V106.911" stroke="#00168B" stroke-width="2" stroke-miterlimit="10" stroke-linecap="round"/>
<path d="M108.348 102.253V104.597" stroke="#00168B" stroke-width="2" stroke-miterlimit="10" stroke-linecap="round"/>
<path d="M37.8208 111.701V114.046" stroke="#00168B" stroke-width="2" stroke-miterlimit="10" stroke-linecap="round"/>
<path d="M31.2656 91.6793V94.0238" stroke="#00168B" stroke-width="2" stroke-miterlimit="10" stroke-linecap="round"/>
<path d="M46.5952 104.566V106.911" stroke="#00168B" stroke-width="2" stroke-miterlimit="10" stroke-linecap="round"/>
<path d="M80.9253 102.253V104.597" stroke="#00168B" stroke-width="2" stroke-miterlimit="10" stroke-linecap="round"/>
<path d="M15.8232 113.381V115.726" stroke="#00168B" stroke-width="2" stroke-miterlimit="10" stroke-linecap="round"/>
<path d="M60.3066 109.255V111.6" stroke="#00168B" stroke-width="2" stroke-miterlimit="10" stroke-linecap="round"/>
<path d="M94.6367 106.942V109.286" stroke="#00168B" stroke-width="2" stroke-miterlimit="10" stroke-linecap="round"/>
<path d="M24.1094 116.39V118.735" stroke="#00168B" stroke-width="2" stroke-miterlimit="10" stroke-linecap="round"/>
<path d="M17.5542 96.3684V98.7129" stroke="#00168B" stroke-width="2" stroke-miterlimit="10" stroke-linecap="round"/>
<path d="M40.1054 2.01737e-06C47.3782 -0.00233812 54.5137 2.03128 60.7433 5.88175C66.9729 9.73222 72.0604 15.2536 75.4577 21.851C79.6305 19.3481 84.3099 17.8666 89.1319 17.5218C93.9538 17.1769 98.7883 17.9781 103.259 19.863C107.73 21.7478 111.717 24.6655 114.91 28.3891C118.102 32.1127 120.414 36.5417 121.666 41.3316C122.918 46.1215 123.076 51.1432 122.128 56.006C121.179 60.8687 119.15 65.4414 116.198 69.3684C113.246 73.2954 109.451 76.4707 105.108 78.6473C100.765 80.8239 95.9907 81.9432 91.157 81.918L39.9912 82.0586C29.3849 82.0586 19.213 77.7359 11.7131 70.0414C4.21335 62.3469 0 51.911 0 41.0293C0 30.1477 4.21335 19.7117 11.7131 12.0172C19.213 4.32272 29.3849 2.17952e-06 39.9912 2.01737e-06H40.1054Z" fill="url(#paint0_linear_139_51)"/>
<path d="M121.545 58.3658C126.215 41.2183 116.451 23.4337 99.7375 18.6428C83.0239 13.852 65.6893 23.869 61.0196 41.0164C56.35 58.1639 66.1135 75.9485 82.8271 80.7394C99.5408 85.5303 116.875 75.5133 121.545 58.3658Z" fill="url(#paint1_linear_139_51)"/>
<defs>
<linearGradient id="paint0_linear_139_51" x1="30.0277" y1="85.552" x2="79.78" y2="22.7566" gradientUnits="userSpaceOnUse">
<stop stop-color="#8E8E8E"/>
<stop offset="1" stop-color="#CFCFCF"/>
</linearGradient>
<linearGradient id="paint1_linear_139_51" x1="104.109" y1="38.2263" x2="66.9009" y2="69.8118" gradientUnits="userSpaceOnUse">
<stop offset="0.02" stop-color="white"/>
<stop offset="1" stop-color="white" stop-opacity="0"/>
</linearGradient>
</defs>
</svg>
