<svg width="130" height="130" viewBox="0 0 130 130" fill="none" xmlns="http://www.w3.org/2000/svg">
<path fill-rule="evenodd" clip-rule="evenodd" d="M24.517 52.4469C24.7202 49.4 25.3702 46.4953 26.3655 43.7531C25.3702 46.4953 24.7405 49.4 24.5374 52.4469H24.517ZM63.6186 24.3547C66.4827 20.1094 71.317 17.3062 76.842 17.3062C84.8858 17.3062 91.5483 23.2781 92.5842 31.0578C93.5592 30.9156 94.5342 30.8547 95.5295 30.8547C107.819 30.8547 117.772 40.8078 117.772 53.0969C117.772 56.6922 116.919 60.0844 115.415 63.0703C113.75 62.1969 111.84 61.6891 109.809 61.6891C108.469 51.2281 99.5311 43.1437 88.6842 43.1437C87.3842 43.1437 86.1045 43.2656 84.8655 43.4891C81.3108 34.1453 73.4092 26.9344 63.6186 24.3547Z" fill="#0E6096"/>
<path fill-rule="evenodd" clip-rule="evenodd" d="M24.7813 79.831C15.5797 79.831 8.125 72.3763 8.125 63.1748C8.125 54.0748 15.4172 46.681 24.4969 46.5185C25.5734 30.2482 39.1016 17.4107 55.6156 17.4107C68.9609 17.4107 80.3562 25.7795 84.8047 37.5607C86.0641 37.3373 87.3437 37.2154 88.6437 37.2154C99.4703 37.2154 108.428 45.2998 109.769 55.7607C116.411 55.7607 121.794 61.1638 121.794 67.7857C121.794 74.3466 116.573 79.6685 110.073 79.831C81.6359 80.217 53.2188 79.831 24.7813 79.831Z" fill="#0E7DA5"/>
<path d="M32.378 94.0062C32.8655 92.7062 34.328 92.0359 35.628 92.5234C36.928 93.0109 37.5983 94.4734 37.1108 95.7734L31.4436 111.048C30.9561 112.348 29.4936 113.019 28.1936 112.531C26.8936 112.044 26.2233 110.581 26.7108 109.281L32.378 94.0062ZM66.9702 94.0062C67.4577 92.7062 68.9202 92.0359 70.2202 92.5234C71.5405 93.0109 72.2108 94.4734 71.7233 95.7734L66.0358 111.048C65.5483 112.348 64.1061 113.019 62.7858 112.531C61.4858 112.044 60.8155 110.581 61.303 109.281L66.9702 94.0062ZM83.3217 93.9859C83.8092 92.6859 85.2717 92.0359 86.5717 92.5234C87.892 93.0109 88.542 94.4734 88.0545 95.7734L84.967 104C84.4592 105.3 82.9967 105.97 81.6967 105.462C80.3967 104.975 79.7264 103.512 80.2139 102.212L83.3217 93.9859ZM98.4748 94.0062C98.9623 92.7062 100.425 92.0359 101.725 92.5234C103.025 93.0109 103.695 94.4734 103.208 95.7734L97.5405 111.048C97.053 112.348 95.5905 113.019 94.2905 112.531C92.9702 112.044 92.3202 110.581 92.8077 109.281L98.4748 94.0062Z" fill="#0E6096"/>
<path d="M19.2908 107.372C19.7783 106.072 21.2408 105.401 22.5408 105.889C23.8408 106.376 24.5111 107.839 24.0236 109.139L18.3564 124.414C17.8689 125.714 16.4064 126.384 15.1064 125.897C13.8064 125.409 13.1361 123.947 13.6236 122.647L19.2908 107.372ZM53.883 107.372C54.3705 106.072 55.833 105.401 57.133 105.889C58.4533 106.376 59.1236 107.839 58.6361 109.139L52.9486 124.414C52.4611 125.714 51.0189 126.384 49.6986 125.897C48.3986 125.409 47.7283 123.947 48.2158 122.647L53.883 107.372ZM70.2346 107.351C70.7221 106.051 72.1846 105.401 73.4846 105.889C74.8049 106.376 75.4549 107.839 74.9674 109.139L71.8799 117.366C71.3721 118.666 69.9096 119.336 68.6096 118.828C67.3096 118.341 66.6393 116.878 67.1268 115.578L70.2346 107.351ZM85.3877 107.372C85.8752 106.072 87.3377 105.401 88.6377 105.889C89.9377 106.376 90.608 107.839 90.1205 109.139L84.4533 124.414C83.9658 125.714 82.5033 126.384 81.2033 125.897C79.883 125.409 79.233 123.947 79.7205 122.647L85.3877 107.372Z" fill="#0E6096"/>
<path fill-rule="evenodd" clip-rule="evenodd" d="M52 37.2328C52.5688 35.9531 54.0719 35.3844 55.3516 35.9531C56.6313 36.5422 57.2 38.0453 56.6313 39.3047L45.2563 64.4922H62.3391C63.7406 64.4922 64.8781 65.6297 64.8781 67.0312C64.8781 67.4375 64.7969 67.8234 64.6141 68.1687L50.8422 104C50.3344 105.3 48.8719 105.95 47.5719 105.462C46.2719 104.975 45.6219 103.492 46.1094 102.192L58.6625 69.5703H41.3156C40.9703 69.5703 40.625 69.489 40.2797 69.3469C39 68.7781 38.4313 67.275 39 65.9953L52 37.2328Z" fill="#E62129"/>
<path d="M39.1294 123.464L42.7412 117.169C43.4525 115.93 43.3796 114.375 42.1295 113.47C41.0576 112.701 39.167 112.836 38.4497 114.085L34.8379 120.379C34.1266 121.619 34.1995 123.174 35.4495 124.079C36.5214 124.848 38.4121 124.713 39.1294 123.464Z" fill="#0E6096"/>
</svg>
