<svg width="136" height="151" viewBox="0 0 136 151" fill="none" xmlns="http://www.w3.org/2000/svg">
<path d="M105.093 87.1959C103.814 88.5384 103.847 90.7072 105.16 92.0497L112.466 99.3476C113.14 100.036 113.981 100.346 114.823 100.346C115.699 100.346 116.574 100.002 117.214 99.2787C118.493 97.9362 118.459 95.7675 117.146 94.4249L109.84 87.1271C108.527 85.819 106.406 85.8534 105.093 87.1959Z" fill="#FF8A00"/>
<path d="M47.6894 87.1614L40.3835 94.4593C39.0368 95.7674 39.0031 97.9705 40.3162 99.3131C40.9558 100.002 41.8312 100.346 42.7066 100.346C43.5819 100.346 44.4236 100.002 45.0633 99.3819L52.3692 92.084C53.716 90.7759 53.7496 88.5728 52.4366 87.2303C51.1572 85.8533 49.0025 85.8189 47.6894 87.1614Z" fill="#FF8A00"/>
<path d="M107.517 28.2276C108.359 28.2276 109.167 27.9178 109.807 27.2982L117.113 20.2757C118.459 18.9676 118.527 16.7989 117.247 15.4219C115.968 14.0449 113.847 13.9761 112.5 15.2842L105.194 22.3067C103.847 23.6148 103.78 25.7835 105.06 27.1605C105.733 27.849 106.608 28.2276 107.517 28.2276Z" fill="#FF8A00"/>
<path d="M47.6891 27.2982C48.3624 27.9178 49.1705 28.2276 50.0122 28.2276C50.8875 28.2276 51.7966 27.849 52.4362 27.1605C53.7156 25.7835 53.6483 23.6148 52.3016 22.3067L44.9957 15.2842C43.6489 13.9761 41.5279 14.0449 40.2485 15.4219C38.9691 16.7989 39.0365 18.9676 40.3832 20.2757L47.6891 27.2982Z" fill="#FF8A00"/>
<path d="M75.3979 100.69V111.224C75.3979 113.117 76.913 114.666 78.7647 114.666C80.6165 114.666 82.1315 113.117 82.1315 111.224V100.69C82.1315 98.7968 80.6165 97.2477 78.7647 97.2477C76.913 97.2477 75.3979 98.7968 75.3979 100.69Z" fill="#FF8A00"/>
<path d="M78.7647 17.4185C80.6165 17.4185 82.1315 15.8694 82.1315 13.9761V3.44239C82.1315 1.54908 80.6165 0 78.7647 0C76.913 0 75.3979 1.54908 75.3979 3.44239V13.9761C75.3979 15.8694 76.913 17.4185 78.7647 17.4185Z" fill="#FF8A00"/>
<path d="M132.633 53.8735H122.095C120.244 53.8735 118.729 55.4226 118.729 57.3159C118.729 59.2092 120.244 60.7583 122.095 60.7583H132.633C134.485 60.7583 136 59.2092 136 57.3159C136 55.4226 134.485 53.8735 132.633 53.8735Z" fill="#FF8A00"/>
<path d="M35.4341 53.8735H24.8961C23.0443 53.8735 21.5293 55.4226 21.5293 57.3159C21.5293 59.2092 23.0443 60.7583 24.8961 60.7583H35.4341C37.2858 60.7583 38.8009 59.2092 38.8009 57.3159C38.8009 55.4226 37.2858 53.8735 35.4341 53.8735Z" fill="#FF8A00"/>
<path d="M56.0389 80.3799C62.0655 86.5762 70.0784 90.0186 78.63 90.0186C96.3393 90.0186 110.749 75.2852 110.749 57.1782C110.749 48.4345 107.416 40.2071 101.322 34.0797C95.2619 27.9866 87.2153 24.6131 78.63 24.6131C70.0784 24.6131 62.0655 27.9867 56.0726 34.1141C50.0797 40.2072 46.7803 48.4345 46.7803 57.1782C46.7803 65.9563 50.0461 74.1836 56.0389 80.3799ZM78.63 31.4979C92.6359 31.4979 104.016 43.0299 104.016 57.1782C104.016 71.4985 92.6359 83.1338 78.63 83.1338C64.7926 83.1338 53.5138 71.4985 53.5138 57.1782C53.5138 42.789 64.5569 31.4979 78.63 31.4979Z" fill="#FF8A00"/>
<path d="M32.7294 45.8823C38.6645 45.8804 44.4877 47.5854 49.5716 50.8138C54.6554 54.0422 58.8072 58.6715 61.5797 64.2031C64.9851 62.1045 68.8038 60.8623 72.739 60.5732C76.6741 60.2841 80.6194 60.9559 84.2681 62.5362C87.9167 64.1165 91.1703 66.5629 93.7756 69.6848C96.381 72.8068 98.2679 76.5203 99.2896 80.5363C100.311 84.5524 100.44 88.7627 99.6662 92.8399C98.8923 96.917 97.2364 100.751 94.8274 104.043C92.4184 107.336 89.3212 109.998 85.7768 111.823C82.2324 113.648 78.3363 114.587 74.3917 114.565L32.6361 114.683C23.9805 114.683 15.6794 111.059 9.5589 104.608C3.43844 98.1564 0 89.4065 0 80.2829C0 71.1593 3.43844 62.4094 9.5589 55.958C15.6794 49.5067 23.9805 45.8823 32.6361 45.8823H32.7294Z" fill="url(#paint0_linear_143_1774)" fill-opacity="0.95"/>
<path d="M41.1367 129.197V131.162" stroke="#00168B" stroke-width="2" stroke-miterlimit="10" stroke-linecap="round"/>
<path d="M69.1533 127.257V129.223" stroke="#00168B" stroke-width="2" stroke-miterlimit="10" stroke-linecap="round"/>
<path d="M29.9473 125.265V127.231" stroke="#00168B" stroke-width="2" stroke-miterlimit="10" stroke-linecap="round"/>
<path d="M57.9634 123.325V125.291" stroke="#00168B" stroke-width="2" stroke-miterlimit="10" stroke-linecap="round"/>
<path d="M45.0503 148.034V150" stroke="#00168B" stroke-width="2" stroke-miterlimit="10" stroke-linecap="round"/>
<path d="M52.3267 125.265V127.231" stroke="#00168B" stroke-width="2" stroke-miterlimit="10" stroke-linecap="round"/>
<path d="M80.3423 123.325V125.291" stroke="#00168B" stroke-width="2" stroke-miterlimit="10" stroke-linecap="round"/>
<path d="M67.4292 148.034V150" stroke="#00168B" stroke-width="2" stroke-miterlimit="10" stroke-linecap="round"/>
<path d="M22.7866 131.247V133.213" stroke="#00168B" stroke-width="2" stroke-miterlimit="10" stroke-linecap="round"/>
<path d="M17.3794 138.037V140.003" stroke="#00168B" stroke-width="2" stroke-miterlimit="10" stroke-linecap="round"/>
<path d="M52.3267 137.06V139.025" stroke="#00168B" stroke-width="2" stroke-miterlimit="10" stroke-linecap="round"/>
<path d="M80.3423 135.12V137.086" stroke="#00168B" stroke-width="2" stroke-miterlimit="10" stroke-linecap="round"/>
<path d="M22.7866 143.042V145.007" stroke="#00168B" stroke-width="2" stroke-miterlimit="10" stroke-linecap="round"/>
<path d="M17.4365 126.255V128.221" stroke="#00168B" stroke-width="2" stroke-miterlimit="10" stroke-linecap="round"/>
<path d="M29.9473 137.06V139.025" stroke="#00168B" stroke-width="2" stroke-miterlimit="10" stroke-linecap="round"/>
<path d="M57.9634 135.12V137.086" stroke="#00168B" stroke-width="2" stroke-miterlimit="10" stroke-linecap="round"/>
<path d="M41.1367 140.991V142.957" stroke="#00168B" stroke-width="2" stroke-miterlimit="10" stroke-linecap="round"/>
<path d="M69.1533 139.051V141.017" stroke="#00168B" stroke-width="2" stroke-miterlimit="10" stroke-linecap="round"/>
<defs>
<linearGradient id="paint0_linear_143_1774" x1="24.5051" y1="117.612" x2="66.4633" y2="66.0663" gradientUnits="userSpaceOnUse">
<stop stop-color="#BCBCBC"/>
<stop offset="1" stop-color="#CFCFCF"/>
</linearGradient>
</defs>
</svg>
