<svg width="191" height="142" viewBox="0 0 191 142" fill="none" xmlns="http://www.w3.org/2000/svg">
<path d="M54.3477 92.8303V95.1168" stroke="#00168B" stroke-width="3" stroke-miterlimit="10" stroke-linecap="round"/>
<path d="M85.2856 90.5741V92.8606" stroke="#00168B" stroke-width="3" stroke-miterlimit="10" stroke-linecap="round"/>
<path d="M41.9912 88.2574V90.5439" stroke="#00168B" stroke-width="3" stroke-miterlimit="10" stroke-linecap="round"/>
<path d="M72.9297 86.0012V88.2877" stroke="#00168B" stroke-width="3" stroke-miterlimit="10" stroke-linecap="round"/>
<path d="M58.6694 114.741V117.028" stroke="#00168B" stroke-width="3" stroke-miterlimit="10" stroke-linecap="round"/>
<path d="M66.7046 88.2574V90.5439" stroke="#00168B" stroke-width="3" stroke-miterlimit="10" stroke-linecap="round"/>
<path d="M97.6426 86.0012V88.2877" stroke="#00168B" stroke-width="3" stroke-miterlimit="10" stroke-linecap="round"/>
<path d="M70.5571 115.15V117.437" stroke="#00168B" stroke-width="3" stroke-miterlimit="10" stroke-linecap="round"/>
<path d="M34.084 95.2156V97.502" stroke="#00168B" stroke-width="3" stroke-miterlimit="10" stroke-linecap="round"/>
<path d="M66.7046 101.976V104.263" stroke="#00168B" stroke-width="3" stroke-miterlimit="10" stroke-linecap="round"/>
<path d="M97.6426 99.7198V102.006" stroke="#00168B" stroke-width="3" stroke-miterlimit="10" stroke-linecap="round"/>
<path d="M34.084 108.934V111.221" stroke="#00168B" stroke-width="3" stroke-miterlimit="10" stroke-linecap="round"/>
<path d="M41.9912 101.976V104.263" stroke="#00168B" stroke-width="3" stroke-miterlimit="10" stroke-linecap="round"/>
<path d="M72.9297 99.7198V102.006" stroke="#00168B" stroke-width="3" stroke-miterlimit="10" stroke-linecap="round"/>
<path d="M54.4517 105.036V107.322" stroke="#00168B" stroke-width="3" stroke-miterlimit="10" stroke-linecap="round"/>
<path d="M46.0156 115.928V118.215" stroke="#00168B" stroke-width="3" stroke-miterlimit="10" stroke-linecap="round"/>
<path d="M58.2866 131.489V133.776" stroke="#00168B" stroke-width="3" stroke-miterlimit="10" stroke-linecap="round"/>
<path d="M146.483 137.714V140" stroke="#00168B" stroke-width="3" stroke-miterlimit="10" stroke-linecap="round"/>
<path d="M80.5273 114.372V116.659" stroke="#00168B" stroke-width="3" stroke-miterlimit="10" stroke-linecap="round"/>
<path d="M36.1428 1.9674e-06C42.6969 -0.00228021 49.1274 1.98096 54.7415 5.73607C60.3555 9.49117 64.9403 14.8758 68.0019 21.3098C71.7625 18.8689 75.9795 17.424 80.3251 17.0878C84.6706 16.7515 89.0274 17.5328 93.0566 19.371C97.0857 21.2092 100.679 24.0546 103.556 27.6859C106.433 31.3173 108.516 35.6366 109.645 40.3079C110.773 44.9792 110.915 49.8764 110.061 54.6188C109.206 59.3611 107.377 63.8205 104.717 67.6502C102.057 71.4799 98.6367 74.5766 94.7226 76.6993C90.8085 78.822 86.5061 79.9135 82.1501 79.889L36.0398 80.0262C26.4814 80.0262 17.3146 75.8105 10.5558 68.3066C3.79704 60.8027 0 50.6252 0 40.0131C0 29.4009 3.79704 19.2235 10.5558 11.7196C17.3146 4.21565 26.4814 2.12554e-06 36.0398 1.9674e-06H36.1428Z" fill="url(#paint0_linear_139_329)"/>
<path d="M109.535 56.9202C113.744 40.1974 104.945 22.8533 89.8827 18.1811C74.8204 13.5089 59.1986 23.2778 54.9904 40.0005C50.7821 56.7233 59.5809 74.0674 74.6431 78.7396C89.7053 83.4118 105.327 73.6429 109.535 56.9202Z" fill="url(#paint1_linear_139_329)"/>
<path d="M127.391 115.658V117.945" stroke="#00168B" stroke-width="3" stroke-miterlimit="10" stroke-linecap="round"/>
<path d="M158.329 113.402V115.688" stroke="#00168B" stroke-width="3" stroke-miterlimit="10" stroke-linecap="round"/>
<path d="M88.8628 103.091V105.377" stroke="#00168B" stroke-width="3" stroke-miterlimit="10" stroke-linecap="round"/>
<path d="M115.034 111.085V113.372" stroke="#00168B" stroke-width="3" stroke-miterlimit="10" stroke-linecap="round"/>
<path d="M145.973 108.829V111.116" stroke="#00168B" stroke-width="3" stroke-miterlimit="10" stroke-linecap="round"/>
<path d="M131.712 137.569V139.856" stroke="#00168B" stroke-width="3" stroke-miterlimit="10" stroke-linecap="round"/>
<path d="M69.7905 125.265V127.818" stroke="#00168B" stroke-width="3" stroke-miterlimit="10" stroke-linecap="round"/>
<path d="M139.748 111.085V113.372" stroke="#00168B" stroke-width="3" stroke-miterlimit="10" stroke-linecap="round"/>
<path d="M170.686 108.829V111.116" stroke="#00168B" stroke-width="3" stroke-miterlimit="10" stroke-linecap="round"/>
<path d="M156.425 137.569V139.856" stroke="#00168B" stroke-width="3" stroke-miterlimit="10" stroke-linecap="round"/>
<path d="M42.9478 129.933V132.22" stroke="#00168B" stroke-width="3" stroke-miterlimit="10" stroke-linecap="round"/>
<path d="M101.219 98.5177V100.804" stroke="#00168B" stroke-width="3" stroke-miterlimit="10" stroke-linecap="round"/>
<path d="M88.1968 126.821V129.108" stroke="#00168B" stroke-width="3" stroke-miterlimit="10" stroke-linecap="round"/>
<path d="M139.748 124.804V127.091" stroke="#00168B" stroke-width="3" stroke-miterlimit="10" stroke-linecap="round"/>
<path d="M170.686 122.548V124.834" stroke="#00168B" stroke-width="3" stroke-miterlimit="10" stroke-linecap="round"/>
<path d="M107.127 131.762V134.049" stroke="#00168B" stroke-width="3" stroke-miterlimit="10" stroke-linecap="round"/>
<path d="M101.219 112.237V114.523" stroke="#00168B" stroke-width="3" stroke-miterlimit="10" stroke-linecap="round"/>
<path d="M115.034 124.804V127.091" stroke="#00168B" stroke-width="3" stroke-miterlimit="10" stroke-linecap="round"/>
<path d="M145.973 122.548V124.834" stroke="#00168B" stroke-width="3" stroke-miterlimit="10" stroke-linecap="round"/>
<path d="M78.2266 133.823V136.11" stroke="#00168B" stroke-width="3" stroke-miterlimit="10" stroke-linecap="round"/>
<path d="M127.391 129.377V131.664" stroke="#00168B" stroke-width="3" stroke-miterlimit="10" stroke-linecap="round"/>
<path d="M158.329 127.121V129.407" stroke="#00168B" stroke-width="3" stroke-miterlimit="10" stroke-linecap="round"/>
<path d="M94.77 136.335V138.622" stroke="#00168B" stroke-width="3" stroke-miterlimit="10" stroke-linecap="round"/>
<path d="M88.8628 116.809V119.096" stroke="#00168B" stroke-width="3" stroke-miterlimit="10" stroke-linecap="round"/>
<path d="M109.186 22.828C115.74 22.8257 122.17 24.809 127.784 28.5641C133.399 32.3192 137.983 37.7038 141.045 44.1378C144.805 41.6969 149.023 40.252 153.368 39.9158C157.714 39.5795 162.07 40.3608 166.1 42.199C170.129 44.0372 173.722 46.8826 176.599 50.5139C179.476 54.1453 181.559 58.4646 182.688 63.1359C183.816 67.8072 183.958 72.7045 183.104 77.4468C182.249 82.1891 180.42 86.6485 177.76 90.4782C175.1 94.3079 171.68 97.4046 167.766 99.5273C163.852 101.65 159.549 102.742 155.193 102.717L109.083 102.854C99.5244 102.854 90.3576 98.6385 83.5988 91.1346C76.84 83.6307 73.043 73.4532 73.043 62.8411C73.043 52.229 76.84 42.0515 83.5988 34.5476C90.3576 27.0437 99.5244 22.828 109.083 22.828H109.186Z" fill="url(#paint2_linear_139_329)"/>
<path d="M182.578 79.748C186.787 63.0253 177.988 45.6812 162.926 41.009C147.863 36.3368 132.242 46.1057 128.033 62.8284C123.825 79.5512 132.624 96.8953 147.686 101.567C162.748 106.24 178.37 96.4708 182.578 79.748Z" fill="url(#paint3_linear_139_329)"/>
<defs>
<linearGradient id="paint0_linear_139_329" x1="27.0607" y1="83.433" x2="76.3175" y2="25.9828" gradientUnits="userSpaceOnUse">
<stop stop-color="#8E8E8E"/>
<stop offset="1" stop-color="#CFCFCF"/>
</linearGradient>
<linearGradient id="paint1_linear_139_329" x1="93.8221" y1="37.2795" x2="58.1055" y2="65.2972" gradientUnits="userSpaceOnUse">
<stop offset="0.02" stop-color="#CBC4C4"/>
<stop offset="1" stop-color="#393232" stop-opacity="0"/>
</linearGradient>
<linearGradient id="paint2_linear_139_329" x1="100.104" y1="106.261" x2="149.36" y2="48.8108" gradientUnits="userSpaceOnUse">
<stop stop-color="#8E8E8E"/>
<stop offset="1" stop-color="#CFCFCF"/>
</linearGradient>
<linearGradient id="paint3_linear_139_329" x1="166.865" y1="60.1074" x2="131.148" y2="88.1251" gradientUnits="userSpaceOnUse">
<stop offset="0.02" stop-color="#CBC4C4"/>
<stop offset="1" stop-color="#393232" stop-opacity="0"/>
</linearGradient>
</defs>
</svg>
