<svg width="101" height="140" viewBox="0 0 101 140" fill="none" xmlns="http://www.w3.org/2000/svg">
<path d="M73.7302 72.3715C72.6014 73.4857 72.6311 75.2858 73.7896 76.4L80.2358 82.4572C80.8299 83.0286 81.5726 83.2857 82.3152 83.2857C83.0876 83.2857 83.8599 83 84.4244 82.4C85.5532 81.2858 85.5235 79.4857 84.3649 78.3715L77.9188 72.3143C76.7602 71.2286 74.8888 71.2572 73.7302 72.3715Z" fill="#FF8A00"/>
<path d="M23.0818 72.3428L16.6356 78.4C15.4474 79.4857 15.4177 81.3142 16.5762 82.4285C17.1406 83 17.913 83.2857 18.6854 83.2857C19.4577 83.2857 20.2004 83 20.7648 82.4857L27.2109 76.4285C28.3992 75.3428 28.4289 73.5143 27.2704 72.4C26.1415 71.2571 24.2404 71.2285 23.0818 72.3428Z" fill="#FF8A00"/>
<path d="M75.8689 23.4285C76.6116 23.4285 77.3245 23.1714 77.889 22.6571L84.3351 16.8286C85.5234 15.7428 85.5828 13.9428 84.4539 12.8C83.3251 11.6571 81.4537 11.6 80.2654 12.6857L73.8192 18.5143C72.631 19.6 72.5716 21.4 73.7004 22.5428C74.2945 23.1143 75.0669 23.4285 75.8689 23.4285Z" fill="#FF8A00"/>
<path d="M23.0818 22.6571C23.6759 23.1714 24.3889 23.4285 25.1315 23.4285C25.9039 23.4285 26.7059 23.1143 27.2704 22.5428C28.3992 21.4 28.3398 19.6 27.1515 18.5143L20.7054 12.6857C19.5171 11.6 17.6456 11.6571 16.5168 12.8C15.388 13.9428 15.4474 15.7428 16.6356 16.8286L23.0818 22.6571Z" fill="#FF8A00"/>
<path d="M47.5293 83.5714V92.3142C47.5293 93.8857 48.8661 95.1714 50.4999 95.1714C52.1337 95.1714 53.4705 93.8857 53.4705 92.3142V83.5714C53.4705 81.9999 52.1337 80.7142 50.4999 80.7142C48.8661 80.7142 47.5293 81.9999 47.5293 83.5714Z" fill="#FF8A00"/>
<path d="M50.4999 14.4572C52.1337 14.4572 53.4705 13.1714 53.4705 11.6V2.85714C53.4705 1.28571 52.1337 0 50.4999 0C48.8661 0 47.5293 1.28571 47.5293 2.85714V11.6C47.5293 13.1714 48.8661 14.4572 50.4999 14.4572Z" fill="#FF8A00"/>
<path d="M98.0293 44.7142H88.7313C87.0975 44.7142 85.7607 45.9999 85.7607 47.5714C85.7607 49.1428 87.0975 50.4285 88.7313 50.4285H98.0293C99.6631 50.4285 101 49.1428 101 47.5714C101 45.9999 99.6631 44.7142 98.0293 44.7142Z" fill="#FF8A00"/>
<path d="M12.2685 44.7142H2.97059C1.33677 44.7142 0 45.9999 0 47.5714C0 49.1428 1.33677 50.4285 2.97059 50.4285H12.2685C13.9024 50.4285 15.2391 49.1428 15.2391 47.5714C15.2391 45.9999 13.9024 44.7142 12.2685 44.7142Z" fill="#FF8A00"/>
<path d="M30.4484 66.7143C35.7658 71.8572 42.8358 74.7143 50.3811 74.7143C66.0064 74.7143 78.7205 62.4857 78.7205 47.4572C78.7205 40.2 75.7796 33.3714 70.4028 28.2857C65.0558 23.2286 57.9561 20.4286 50.3811 20.4286C42.8358 20.4286 35.7658 23.2286 30.4781 28.3143C25.1905 33.3715 22.2793 40.2 22.2793 47.4572C22.2793 54.7429 25.1608 61.5715 30.4484 66.7143ZM50.3811 26.1429C62.7387 26.1429 72.7793 35.7143 72.7793 47.4572C72.7793 59.3429 62.7387 69 50.3811 69C38.172 69 28.2205 59.3429 28.2205 47.4572C28.2205 35.5143 37.964 26.1429 50.3811 26.1429Z" fill="#FF8A00"/>
<path d="M25.1613 101.543H25.1316C24.181 101.543 23.2898 101.971 22.7254 102.714C21.0619 104.886 15.7148 112.314 15.7148 116.286C15.7148 121.2 19.9331 125.2 25.1316 125.2C30.1816 125.2 34.281 121.2 34.3107 116.286C34.3107 112.343 29.1419 104.943 27.5675 102.771C27.0328 102 26.1119 101.543 25.1613 101.543ZM25.1316 119.486C23.171 119.486 21.656 118.086 21.656 116.286C21.656 115.343 23.1116 112.571 25.0722 109.571C26.9734 112.6 28.3398 115.343 28.3696 116.286C28.3696 118.029 26.8843 119.486 25.1316 119.486Z" fill="#0066FF"/>
<path d="M75.8689 101.543C74.9183 101.543 74.0271 101.971 73.4627 102.714C71.7992 104.886 66.4521 112.314 66.4521 116.286C66.4521 121.2 70.6704 125.2 75.8689 125.2C81.0674 125.2 85.2857 121.2 85.2857 116.286C85.2857 112.286 79.9089 104.886 78.2751 102.714C77.7107 101.971 76.8195 101.543 75.8689 101.543ZM75.8689 119.514C73.9083 119.514 72.3933 118.114 72.3933 116.314C72.423 115.343 73.8786 112.543 75.8689 109.514C77.8592 112.543 79.3148 115.343 79.3445 116.314C79.3445 118.114 77.8295 119.514 75.8689 119.514Z" fill="#0066FF"/>
<path d="M50.3516 116.343C49.3713 116.371 48.4504 116.828 47.9157 117.6C46.3413 119.828 41.2021 127.371 41.2021 131.314C41.2021 136.028 45.4204 140 50.3813 140C55.5798 140 59.798 136.114 59.798 131.286C59.798 127.343 54.451 119.771 52.8172 117.543C52.2527 116.771 51.3319 116.314 50.3516 116.343ZM50.411 134.286C48.7177 134.286 47.173 132.857 47.173 131.314C47.173 130.343 48.5395 127.543 50.4407 124.457C52.4013 127.543 53.8272 130.343 53.8866 131.314C53.8866 132.914 52.2824 134.286 50.411 134.286Z" fill="#0066FF"/>
</svg>
