<svg width="150" height="130" viewBox="0 0 150 130" fill="none" xmlns="http://www.w3.org/2000/svg">
<path d="M32.8388 57.962C38.8204 57.9487 44.6915 59.7286 49.8178 63.1095C54.944 66.4904 59.1304 71.3436 61.9246 77.1447C65.3477 74.9495 69.186 73.6492 73.1415 73.3447C77.0971 73.0402 81.0633 73.7398 84.7324 75.3892C88.4015 77.0385 91.6746 79.5932 94.2976 82.8549C96.9207 86.1166 98.823 89.9976 99.857 94.1964C100.891 98.3952 101.029 102.799 100.26 107.066C99.4904 111.332 97.8351 115.347 95.422 118.798C93.009 122.249 89.9032 125.044 86.3458 126.966C82.7884 128.887 78.8752 129.883 74.91 129.877L32.8388 130C24.1294 130 15.7767 126.205 9.61826 119.45C3.45979 112.695 0 103.534 0 93.9811C0 84.4282 3.45979 75.2666 9.61826 68.5117C15.7767 61.7568 24.1294 57.962 32.8388 57.962Z" fill="url(#paint0_linear_139_124)"/>
<path d="M129.958 64.5116C134.925 64.5134 139.715 62.5241 143.399 58.9295C147.084 55.3349 149.4 50.3914 149.899 45.0578C150.397 39.7242 149.043 34.3808 146.098 30.0642C143.153 25.7475 138.828 22.7652 133.961 21.6959C132.366 16.1295 129.34 11.1658 125.235 7.38122C121.13 3.59665 116.115 1.14646 110.772 0.315119C105.429 -0.516221 99.9766 0.305402 95.0488 2.68459C90.1209 5.06377 85.9193 8.90292 82.9319 13.7563C79.6187 12.5956 76.1118 12.2241 72.6527 12.6673C69.1937 13.1105 65.8648 14.358 62.8955 16.3237C59.9261 18.2895 57.3869 20.9267 55.4529 24.0538C53.5188 27.1808 52.2359 30.7233 51.6925 34.4371C51.1491 38.1509 51.3581 41.9478 52.3052 45.566C53.2522 49.1842 54.9148 52.5378 57.1784 55.3956C59.4419 58.2534 62.2526 60.5475 65.4167 62.1198C68.5808 63.6921 72.0231 64.5053 75.5065 64.5033" fill="url(#paint1_linear_139_124)"/>
<defs>
<linearGradient id="paint0_linear_139_124" x1="24.5446" y1="133.067" x2="68.7994" y2="80.8201" gradientUnits="userSpaceOnUse">
<stop stop-color="#AEAEAE"/>
<stop offset="1" stop-color="#8C8C8C"/>
</linearGradient>
<linearGradient id="paint1_linear_139_124" x1="100.699" y1="-2.43322e-06" x2="50.3555" y2="60.8691" gradientUnits="userSpaceOnUse">
<stop stop-color="#535353"/>
<stop offset="1" stop-color="#B9B9B9"/>
</linearGradient>
</defs>
</svg>
