<svg width="130" height="130" viewBox="0 0 130 130" fill="none" xmlns="http://www.w3.org/2000/svg">
<path d="M80.8439 82.4486C94.9678 82.4486 106.417 70.999 106.417 56.8752C106.417 42.7514 94.9678 31.3018 80.8439 31.3018C66.7201 31.3018 55.2705 42.7514 55.2705 56.8752C55.2705 70.999 66.7201 82.4486 80.8439 82.4486Z" fill="#EFCC00"/>
<path d="M80.8438 16.25V25.2687" stroke="#EFCC00" stroke-width="3" stroke-miterlimit="10" stroke-linecap="round"/>
<path d="M80.8438 88.4814V97.5002" stroke="#EFCC00" stroke-width="3" stroke-miterlimit="10" stroke-linecap="round"/>
<path d="M40.2188 56.875H49.2578" stroke="#EFCC00" stroke-width="3" stroke-miterlimit="10" stroke-linecap="round"/>
<path d="M112.45 56.875H121.469" stroke="#EFCC00" stroke-width="3" stroke-miterlimit="10" stroke-linecap="round"/>
<path d="M52.1221 28.1533L58.5002 34.5314" stroke="#EFCC00" stroke-width="3" stroke-miterlimit="10" stroke-linecap="round"/>
<path d="M103.188 79.2188L109.566 85.5969" stroke="#EFCC00" stroke-width="3" stroke-miterlimit="10" stroke-linecap="round"/>
<path d="M52.1221 85.5969L58.5002 79.2188" stroke="#EFCC00" stroke-width="3" stroke-miterlimit="10" stroke-linecap="round"/>
<path d="M103.188 34.5314L109.566 28.1533" stroke="#EFCC00" stroke-width="3" stroke-miterlimit="10" stroke-linecap="round"/>
<path d="M47.7344 44.4844C54.2092 44.4713 60.5646 46.2279 66.1136 49.5645C71.6625 52.9011 76.1942 57.6907 79.2187 63.4157C82.9241 61.2492 87.079 59.966 91.3607 59.6655C95.6424 59.365 99.9358 60.0555 103.907 61.6832C107.879 63.3109 111.422 65.8321 114.261 69.0511C117.101 72.27 119.16 76.1 120.279 80.2438C121.399 84.3876 121.548 88.7335 120.715 92.9443C119.882 97.155 118.091 101.117 115.479 104.523C112.867 107.929 109.505 110.687 105.654 112.583C101.803 114.48 97.5672 115.463 93.275 115.456L47.7344 115.578C38.3068 115.578 29.2653 111.833 22.5989 105.167C15.9326 98.5004 12.1875 89.4589 12.1875 80.0313C12.1875 70.6037 15.9326 61.5622 22.5989 54.8959C29.2653 48.2296 38.3068 44.4844 47.7344 44.4844Z" fill="url(#paint0_linear_69_58)"/>
<path d="M120.112 95.0373C124.263 80.1811 115.584 64.773 100.728 60.6223C85.8718 56.4715 70.4636 65.15 66.3129 80.0062C62.1622 94.8624 70.8407 110.271 85.6969 114.421C100.553 118.572 115.961 109.894 120.112 95.0373Z" fill="url(#paint1_linear_69_58)"/>
<defs>
<linearGradient id="paint0_linear_69_58" x1="38.7562" y1="118.605" x2="81.5953" y2="63.1313" gradientUnits="userSpaceOnUse">
<stop stop-color="#F2F2F2"/>
<stop offset="1" stop-color="#CFCFCF"/>
</linearGradient>
<linearGradient id="paint1_linear_69_58" x1="104.614" y1="77.5889" x2="72.2534" y2="105.772" gradientUnits="userSpaceOnUse">
<stop offset="0.02" stop-color="white"/>
<stop offset="1" stop-color="white" stop-opacity="0"/>
</linearGradient>
</defs>
</svg>
