<svg width="150" height="70" viewBox="0 0 150 70" fill="none" xmlns="http://www.w3.org/2000/svg">
<path d="M132.573 69.9999C136.892 70.0015 141.057 68.3012 144.261 65.229C147.464 62.1567 149.479 57.9315 149.912 53.3729C150.346 48.8143 149.168 44.2474 146.607 40.5579C144.047 36.8685 140.286 34.3196 136.054 33.4057C134.666 28.6481 132.035 24.4056 128.466 21.171C124.896 17.9363 120.536 15.8422 115.889 15.1316C111.243 14.4211 106.502 15.1233 102.217 17.1568C97.9323 19.1903 94.2789 22.4716 91.6811 26.6197C88.8001 25.6277 85.7507 25.3101 82.7428 25.689C79.735 26.0678 76.8404 27.134 74.2584 28.8141C71.6764 30.4942 69.4684 32.7482 67.7867 35.4209C66.1049 38.0936 64.9893 41.1213 64.5168 44.2955C64.0443 47.4697 64.226 50.7148 65.0496 53.8073C65.8731 56.8997 67.3188 59.766 69.2871 62.2085C71.2553 64.6511 73.6994 66.6118 76.4507 67.9557C79.2021 69.2996 82.1954 69.9946 85.2243 69.9928" fill="#535353"/>
<path fill-rule="evenodd" clip-rule="evenodd" d="M15.9538 63.4313C7.14031 63.4313 0 55.8558 0 46.5053C0 37.2579 6.98466 29.7444 15.6814 29.5792C16.7126 13.0454 29.6702 0 45.4879 0C58.2704 0 69.1852 8.50429 73.446 20.4763C74.6523 20.2493 75.878 20.1254 77.1232 20.1254C87.4932 20.1254 96.0732 28.3408 97.3573 38.9711C103.719 38.9711 108.875 44.4618 108.875 51.1909C108.875 57.8581 103.875 63.2661 97.6491 63.4313C70.4109 63.8235 43.1921 63.4313 15.9538 63.4313Z" fill="#5E5E5A"/>
</svg>
