<svg width="150" height="120" viewBox="0 0 150 120" fill="none" xmlns="http://www.w3.org/2000/svg">
<path d="M28.7865 53.3619C34.03 53.3496 39.1767 54.9961 43.6704 58.1236C48.164 61.251 51.8339 65.7405 54.2832 71.1067C57.2839 69.076 60.6486 67.8732 64.116 67.5915C67.5834 67.3099 71.0603 67.957 74.2766 69.4828C77.4929 71.0085 80.3621 73.3717 82.6615 76.3889C84.9608 79.4061 86.6285 82.9961 87.5348 86.8802C88.4412 90.7642 88.562 94.8378 87.8877 98.7847C87.2135 102.732 85.7624 106.445 83.6471 109.638C81.5319 112.83 78.8093 115.416 75.6909 117.193C72.5725 118.97 69.1422 119.892 65.6662 119.886L28.7865 120C21.1519 120 13.8299 116.49 8.43138 110.241C3.03286 103.993 0 95.5178 0 86.681C0 77.8442 3.03286 69.3694 8.43138 63.1208C13.8299 56.8723 21.1519 53.3619 28.7865 53.3619Z" fill="url(#paint0_linear_143_1380)"/>
<path d="M90.9726 20.1401C94.6378 18.3576 98.6679 17.7685 102.627 18.4364C106.587 19.1044 110.325 21.004 113.438 23.93C115.008 21.494 117.048 19.5141 119.401 18.144C121.753 16.7738 124.354 16.0504 127.002 16.0298C129.65 16.0092 132.274 16.692 134.67 18.0252C137.065 19.3584 139.168 21.3061 140.815 23.717C142.462 26.128 143.609 28.9374 144.167 31.927C144.724 34.9167 144.677 38.0061 144.03 40.9555C143.383 43.9049 142.152 46.6348 140.434 48.9334C138.716 51.2319 136.556 53.0372 134.123 54.209L108.351 66.7658C103.01 69.3487 96.9718 69.3696 91.5653 66.824C86.1589 64.2784 81.8269 59.3747 79.5223 53.1918C77.2178 47.0088 77.1295 40.0531 79.2768 33.8547C81.4241 27.6563 85.6312 22.723 90.9726 20.1401Z" fill="url(#paint1_linear_143_1380)"/>
<defs>
<linearGradient id="paint0_linear_143_1380" x1="21.5159" y1="122.837" x2="62.7588" y2="76.6957" gradientUnits="userSpaceOnUse">
<stop stop-color="#F2F2F2"/>
<stop offset="1" stop-color="#CFCFCF"/>
</linearGradient>
<linearGradient id="paint1_linear_143_1380" x1="104.004" y1="71.2104" x2="118.46" y2="24.2452" gradientUnits="userSpaceOnUse">
<stop stop-color="#F2F2F2"/>
<stop offset="1" stop-color="#CFCFCF"/>
</linearGradient>
</defs>
</svg>
