<svg width="150" height="120" viewBox="0 0 150 120" fill="none" xmlns="http://www.w3.org/2000/svg">
<path d="M17.1468 76.9921H14.3968V74.1267C14.3968 73.9944 14.3122 73.9062 14.1853 73.9062C14.0584 73.9062 13.9738 73.9944 13.9738 74.1267V76.9921H11.2238C11.0969 76.9921 11.0123 77.0803 11.0123 77.2126C11.0123 77.3448 11.0969 77.433 11.2238 77.433H13.9738V80.2985C13.9738 80.4307 14.0584 80.5189 14.1853 80.5189C14.3122 80.5189 14.3968 80.4307 14.3968 80.2985V77.433H17.1468C17.2737 77.433 17.3583 77.3448 17.3583 77.2126C17.3583 77.0803 17.2737 76.9921 17.1468 76.9921Z" fill="#2197F3"/>
<path d="M14.1853 76.1102C14.143 76.1102 14.1007 76.0882 14.0584 76.0661L13.0007 75.1844C12.9161 75.1183 12.8949 74.964 12.9584 74.8758C13.0219 74.7877 13.1699 74.7656 13.2546 74.8317L14.1853 75.6032L15.1161 74.8317C15.2007 74.7656 15.3488 74.7656 15.4122 74.8758C15.4757 74.964 15.4757 75.1183 15.3699 75.1844L14.3122 76.0661C14.2699 76.0882 14.2276 76.1102 14.1853 76.1102Z" fill="#16BCD4"/>
<path d="M15.243 79.6366C15.2007 79.6366 15.1584 79.6146 15.1161 79.5925L14.1853 78.8211L13.2546 79.5925C13.1699 79.6587 13.0219 79.6587 12.9584 79.5485C12.8949 79.4603 12.8949 79.306 13.0007 79.2399L14.0584 78.3582C14.143 78.2921 14.2488 78.2921 14.3122 78.3582L15.3699 79.2399C15.4545 79.306 15.4757 79.4603 15.4122 79.5485C15.3699 79.6146 15.3064 79.6366 15.243 79.6366Z" fill="#16BCD4"/>
<path d="M12.07 78.5348C12.0277 78.5348 11.9853 78.5127 11.943 78.4907C11.8584 78.4246 11.8373 78.2703 11.9007 78.1821L12.6411 77.2122L11.9007 76.2424C11.8373 76.1542 11.8373 75.9999 11.943 75.9338C12.0277 75.8677 12.1757 75.8677 12.2392 75.9779L13.0853 77.08C13.1488 77.1682 13.1488 77.2784 13.0853 77.3445L12.2392 78.4466C12.1969 78.5127 12.1334 78.5348 12.07 78.5348Z" fill="#16BCD4"/>
<path d="M16.3006 78.5354C16.2372 78.5354 16.1737 78.5134 16.1314 78.4472L15.2853 77.3451C15.2218 77.257 15.2218 77.1468 15.2853 77.0806L16.1314 75.9785C16.1949 75.8904 16.3429 75.8683 16.4276 75.9344C16.5122 76.0006 16.5333 76.1549 16.4699 76.243L15.7295 77.2129L16.4699 78.1827C16.5333 78.2709 16.5333 78.4252 16.4276 78.4913C16.3852 78.5134 16.3429 78.5354 16.3006 78.5354Z" fill="#16BCD4"/>
<path d="M27.2258 85.7441H24.4758V82.8786C24.4758 82.7464 24.3912 82.6582 24.2643 82.6582C24.1373 82.6582 24.0527 82.7464 24.0527 82.8786V85.7441H21.3028C21.1759 85.7441 21.0912 85.8323 21.0912 85.9645C21.0912 86.0968 21.1759 86.1849 21.3028 86.1849H24.0527V89.0504C24.0527 89.1827 24.1373 89.2708 24.2643 89.2708C24.3912 89.2708 24.4758 89.1827 24.4758 89.0504V86.1849H27.2258C27.3527 86.1849 27.4373 86.0968 27.4373 85.9645C27.4373 85.8323 27.3527 85.7441 27.2258 85.7441Z" fill="#2197F3"/>
<path d="M24.2643 84.8626C24.222 84.8626 24.1797 84.8406 24.1374 84.8186L23.0797 83.9369C22.9951 83.8707 22.9739 83.7164 23.0374 83.6283C23.1008 83.5401 23.2489 83.5181 23.3335 83.5842L24.2643 84.3557L25.195 83.5842C25.2797 83.5181 25.4277 83.5181 25.4912 83.6283C25.5547 83.7164 25.5547 83.8707 25.4489 83.9369L24.3912 84.8186C24.3489 84.8406 24.3066 84.8626 24.2643 84.8626Z" fill="#16BCD4"/>
<path d="M25.322 88.3891C25.2797 88.3891 25.2374 88.367 25.195 88.345L24.2643 87.5735L23.3335 88.345C23.2489 88.4111 23.1008 88.4111 23.0374 88.3009C22.9739 88.2127 22.9739 88.0584 23.0797 87.9923L24.1374 87.1106C24.222 87.0445 24.3278 87.0445 24.3912 87.1106L25.4489 87.9923C25.5335 88.0584 25.5547 88.2127 25.4912 88.3009C25.4489 88.367 25.3854 88.3891 25.322 88.3891Z" fill="#16BCD4"/>
<path d="M22.1489 87.2872C22.1066 87.2872 22.0643 87.2652 22.022 87.2431C21.9374 87.177 21.9163 87.0227 21.9797 86.9345L22.7201 85.9647L21.9797 84.9948C21.9163 84.9067 21.9163 84.7524 22.022 84.6862C22.1066 84.6201 22.2547 84.6201 22.3182 84.7303L23.1643 85.8324C23.2278 85.9206 23.2278 86.0308 23.1643 86.0969L22.3182 87.199C22.2759 87.2652 22.2124 87.2872 22.1489 87.2872Z" fill="#16BCD4"/>
<path d="M26.3797 87.2864C26.3162 87.2864 26.2528 87.2644 26.2104 87.1982L25.3643 86.0961C25.3008 86.0079 25.3008 85.8977 25.3643 85.8316L26.2104 84.7295C26.2739 84.6413 26.422 84.6193 26.5066 84.6854C26.5912 84.7515 26.6124 84.9058 26.5489 84.994L25.8085 85.9639L26.5489 86.9337C26.6124 87.0219 26.6124 87.1762 26.5066 87.2423C26.4643 87.2644 26.422 87.2864 26.3797 87.2864Z" fill="#16BCD4"/>
<path d="M32.6386 69.2124H29.8886V66.3469C29.8886 66.2146 29.804 66.1265 29.6771 66.1265C29.5502 66.1265 29.4656 66.2146 29.4656 66.3469V69.2124H26.7156C26.5887 69.2124 26.5041 69.3005 26.5041 69.4328C26.5041 69.565 26.5887 69.6532 26.7156 69.6532H29.4656V72.5187C29.4656 72.6509 29.5502 72.7391 29.6771 72.7391C29.804 72.7391 29.8886 72.6509 29.8886 72.5187V69.6532H32.6386C32.7655 69.6532 32.8501 69.565 32.8501 69.4328C32.8501 69.3005 32.7655 69.2124 32.6386 69.2124Z" fill="#2197F3"/>
<path d="M29.6771 68.3309C29.6348 68.3309 29.5925 68.3089 29.5502 68.2868L28.4925 67.4051C28.4079 67.339 28.3868 67.1847 28.4502 67.0965C28.5137 67.0084 28.6618 66.9863 28.7464 67.0525L29.6771 67.8239L30.6079 67.0525C30.6925 66.9863 30.8406 66.9863 30.904 67.0965C30.9675 67.1847 30.9675 67.339 30.8617 67.4051L29.8041 68.2868C29.7617 68.3089 29.7194 68.3309 29.6771 68.3309Z" fill="#16BCD4"/>
<path d="M30.7347 71.8573C30.6924 71.8573 30.6501 71.8353 30.6078 71.8133L29.6771 71.0418L28.7463 71.8133C28.6617 71.8794 28.5136 71.8794 28.4502 71.7692C28.3867 71.681 28.3867 71.5267 28.4925 71.4606L29.5502 70.5789C29.6348 70.5128 29.7405 70.5128 29.804 70.5789L30.8617 71.4606C30.9463 71.5267 30.9674 71.681 30.904 71.7692C30.8617 71.8353 30.7982 71.8573 30.7347 71.8573Z" fill="#16BCD4"/>
<path d="M27.5617 70.7555C27.5194 70.7555 27.4771 70.7334 27.4348 70.7114C27.3502 70.6453 27.329 70.491 27.3925 70.4028L28.1329 69.4329L27.3925 68.4631C27.329 68.3749 27.329 68.2206 27.4348 68.1545C27.5194 68.0884 27.6675 68.0884 27.7309 68.1986L28.5771 69.3007C28.6405 69.3889 28.6405 69.4991 28.5771 69.5652L27.7309 70.6673C27.6886 70.7334 27.6252 70.7555 27.5617 70.7555Z" fill="#16BCD4"/>
<path d="M31.7925 70.7551C31.729 70.7551 31.6655 70.7331 31.6232 70.667L30.7771 69.5649C30.7136 69.4767 30.7136 69.3665 30.7771 69.3004L31.6232 68.1983C31.6867 68.1101 31.8348 68.088 31.9194 68.1542C32.004 68.2203 32.0251 68.3746 31.9617 68.4628L31.2213 69.4326L31.9617 70.4025C32.0251 70.4906 32.0251 70.6449 31.9194 70.7111C31.8771 70.7331 31.8348 70.7551 31.7925 70.7551Z" fill="#16BCD4"/>
<path d="M42.5309 78.353H39.781V75.4875C39.781 75.3553 39.6964 75.2671 39.5694 75.2671C39.4425 75.2671 39.3579 75.3553 39.3579 75.4875V78.353H36.608C36.481 78.353 36.3964 78.4412 36.3964 78.5734C36.3964 78.7057 36.481 78.7938 36.608 78.7938H39.3579V81.6593C39.3579 81.7916 39.4425 81.8797 39.5694 81.8797C39.6964 81.8797 39.781 81.7916 39.781 81.6593V78.7938H42.5309C42.6579 78.7938 42.7425 78.7057 42.7425 78.5734C42.7425 78.4412 42.6579 78.353 42.5309 78.353Z" fill="#2197F3"/>
<path d="M39.5695 77.472C39.5272 77.472 39.4849 77.45 39.4425 77.4279L38.3849 76.5462C38.3003 76.4801 38.2791 76.3258 38.3426 76.2377C38.406 76.1495 38.5541 76.1274 38.6387 76.1936L39.5695 76.965L40.5002 76.1936C40.5848 76.1274 40.7329 76.1274 40.7964 76.2377C40.8598 76.3258 40.8598 76.4801 40.7541 76.5462L39.6964 77.4279C39.6541 77.45 39.6118 77.472 39.5695 77.472Z" fill="#16BCD4"/>
<path d="M40.6271 80.998C40.5848 80.998 40.5425 80.9759 40.5002 80.9539L39.5695 80.1824L38.6387 80.9539C38.5541 81.02 38.406 81.02 38.3426 80.9098C38.2791 80.8216 38.2791 80.6673 38.3849 80.6012L39.4425 79.7195C39.5272 79.6534 39.6329 79.6534 39.6964 79.7195L40.7541 80.6012C40.8387 80.6673 40.8598 80.8216 40.7964 80.9098C40.7541 80.9759 40.6906 80.998 40.6271 80.998Z" fill="#16BCD4"/>
<path d="M37.4541 79.8961C37.4118 79.8961 37.3695 79.8741 37.3272 79.852C37.2426 79.7859 37.2214 79.6316 37.2849 79.5434L38.0253 78.5736L37.2849 77.6037C37.2214 77.5156 37.2214 77.3613 37.3272 77.2951C37.4118 77.229 37.5599 77.229 37.6233 77.3392L38.4695 78.4413C38.5329 78.5295 38.5329 78.6397 38.4695 78.7058L37.6233 79.8079C37.581 79.8741 37.5176 79.8961 37.4541 79.8961Z" fill="#16BCD4"/>
<path d="M41.6848 79.8958C41.6213 79.8958 41.5579 79.8737 41.5156 79.8076L40.6694 78.7055C40.606 78.6173 40.606 78.5071 40.6694 78.441L41.5156 77.3389C41.579 77.2507 41.7271 77.2287 41.8117 77.2948C41.8963 77.3609 41.9175 77.5152 41.854 77.6034L41.1136 78.5732L41.854 79.5431C41.9175 79.6313 41.9175 79.7856 41.8117 79.8517C41.7694 79.8737 41.7271 79.8958 41.6848 79.8958Z" fill="#16BCD4"/>
<path d="M52.4233 115.695H49.6734V112.83C49.6734 112.698 49.5888 112.609 49.4618 112.609C49.3349 112.609 49.2503 112.698 49.2503 112.83V115.695H46.5004C46.3734 115.695 46.2888 115.783 46.2888 115.916C46.2888 116.048 46.3734 116.136 46.5004 116.136H49.2503V119.002C49.2503 119.134 49.3349 119.222 49.4618 119.222C49.5888 119.222 49.6734 119.134 49.6734 119.002V116.136H52.4233C52.5503 116.136 52.6349 116.048 52.6349 115.916C52.6349 115.783 52.5503 115.695 52.4233 115.695Z" fill="#2197F3"/>
<path d="M49.4619 114.814C49.4196 114.814 49.3772 114.792 49.3349 114.77L48.2773 113.888C48.1927 113.822 48.1715 113.668 48.235 113.579C48.2984 113.491 48.4465 113.469 48.5311 113.535L49.4619 114.307L50.3926 113.535C50.4772 113.469 50.6253 113.469 50.6888 113.579C50.7522 113.668 50.7522 113.822 50.6465 113.888L49.5888 114.77C49.5465 114.792 49.5042 114.814 49.4619 114.814Z" fill="#16BCD4"/>
<path d="M50.5195 118.34C50.4772 118.34 50.4349 118.318 50.3926 118.296L49.4618 117.525L48.531 118.296C48.4464 118.362 48.2984 118.362 48.2349 118.252C48.1714 118.164 48.1714 118.01 48.2772 117.943L49.3349 117.062C49.4195 116.996 49.5253 116.996 49.5887 117.062L50.6464 117.943C50.731 118.01 50.7522 118.164 50.6887 118.252C50.6464 118.318 50.5829 118.34 50.5195 118.34Z" fill="#16BCD4"/>
<path d="M47.3464 117.238C47.3041 117.238 47.2618 117.216 47.2195 117.194C47.1349 117.128 47.1138 116.973 47.1772 116.885L47.9176 115.915L47.1772 114.946C47.1138 114.857 47.1138 114.703 47.2195 114.637C47.3041 114.571 47.4522 114.571 47.5157 114.681L48.3618 115.783C48.4253 115.871 48.4253 115.981 48.3618 116.048L47.5157 117.15C47.4734 117.216 47.4099 117.238 47.3464 117.238Z" fill="#16BCD4"/>
<path d="M51.5772 117.238C51.5137 117.238 51.4503 117.216 51.408 117.149L50.5618 116.047C50.4984 115.959 50.4984 115.849 50.5618 115.783L51.408 114.681C51.4714 114.593 51.6195 114.57 51.7041 114.637C51.7887 114.703 51.8099 114.857 51.7464 114.945L51.006 115.915L51.7464 116.885C51.8099 116.973 51.8099 117.127 51.7041 117.193C51.6618 117.216 51.6195 117.238 51.5772 117.238Z" fill="#16BCD4"/>
<path d="M40.4778 101.691H37.7279V98.8259C37.7279 98.6936 37.6433 98.6055 37.5163 98.6055C37.3894 98.6055 37.3048 98.6936 37.3048 98.8259V101.691H34.5549C34.4279 101.691 34.3433 101.78 34.3433 101.912C34.3433 102.044 34.4279 102.132 34.5549 102.132H37.3048V104.998C37.3048 105.13 37.3894 105.218 37.5163 105.218C37.6433 105.218 37.7279 105.13 37.7279 104.998V102.132H40.4778C40.6048 102.132 40.6894 102.044 40.6894 101.912C40.6894 101.78 40.6048 101.691 40.4778 101.691Z" fill="#2197F3"/>
<path d="M37.5164 100.81C37.4741 100.81 37.4318 100.788 37.3894 100.766L36.3318 99.8846C36.2472 99.8185 36.226 99.6642 36.2895 99.576C36.3529 99.4879 36.501 99.4658 36.5856 99.5319L37.5164 100.303L38.4471 99.5319C38.5317 99.4658 38.6798 99.4658 38.7433 99.576C38.8067 99.6642 38.8067 99.8185 38.701 99.8846L37.6433 100.766C37.601 100.788 37.5587 100.81 37.5164 100.81Z" fill="#16BCD4"/>
<path d="M38.574 104.336C38.5317 104.336 38.4894 104.314 38.4471 104.292L37.5163 103.521L36.5856 104.292C36.5009 104.358 36.3529 104.358 36.2894 104.248C36.2259 104.16 36.2259 104.006 36.3317 103.94L37.3894 103.058C37.474 102.992 37.5798 102.992 37.6432 103.058L38.7009 103.94C38.7855 104.006 38.8067 104.16 38.7432 104.248C38.7009 104.314 38.6374 104.336 38.574 104.336Z" fill="#16BCD4"/>
<path d="M35.401 103.234C35.3586 103.234 35.3163 103.212 35.274 103.19C35.1894 103.124 35.1683 102.97 35.2317 102.882L35.9721 101.912L35.2317 100.942C35.1683 100.854 35.1683 100.7 35.274 100.634C35.3586 100.567 35.5067 100.567 35.5702 100.678L36.4163 101.78C36.4798 101.868 36.4798 101.978 36.4163 102.044L35.5702 103.146C35.5279 103.212 35.4644 103.234 35.401 103.234Z" fill="#16BCD4"/>
<path d="M39.6317 103.235C39.5682 103.235 39.5048 103.213 39.4625 103.147L38.6163 102.045C38.5529 101.957 38.5529 101.846 38.6163 101.78L39.4625 100.678C39.5259 100.59 39.674 100.568 39.7586 100.634C39.8432 100.7 39.8644 100.855 39.8009 100.943L39.0605 101.913L39.8009 102.882C39.8644 102.971 39.8644 103.125 39.7586 103.191C39.7163 103.213 39.674 103.235 39.6317 103.235Z" fill="#16BCD4"/>
<path d="M23.4928 107.332H20.7428V104.467C20.7428 104.335 20.6582 104.247 20.5313 104.247C20.4044 104.247 20.3198 104.335 20.3198 104.467V107.332H17.5698C17.4429 107.332 17.3583 107.421 17.3583 107.553C17.3583 107.685 17.4429 107.773 17.5698 107.773H20.3198V110.639C20.3198 110.771 20.4044 110.859 20.5313 110.859C20.6582 110.859 20.7428 110.771 20.7428 110.639V107.773H23.4928C23.6197 107.773 23.7043 107.685 23.7043 107.553C23.7043 107.421 23.6197 107.332 23.4928 107.332Z" fill="#2197F3"/>
<path d="M20.5313 106.451C20.489 106.451 20.4467 106.428 20.4044 106.406L19.3467 105.525C19.2621 105.459 19.241 105.304 19.3044 105.216C19.3679 105.128 19.516 105.106 19.6006 105.172L20.5313 105.944L21.4621 105.172C21.5467 105.106 21.6948 105.106 21.7582 105.216C21.8217 105.304 21.8217 105.459 21.7159 105.525L20.6582 106.406C20.6159 106.428 20.5736 106.451 20.5313 106.451Z" fill="#16BCD4"/>
<path d="M21.589 109.978C21.5467 109.978 21.5044 109.956 21.4621 109.934L20.5313 109.162L19.6006 109.934C19.516 110 19.3679 110 19.3044 109.89C19.241 109.802 19.241 109.647 19.3467 109.581L20.4044 108.699C20.489 108.633 20.5948 108.633 20.6582 108.699L21.7159 109.581C21.8005 109.647 21.8217 109.802 21.7582 109.89C21.7159 109.956 21.6525 109.978 21.589 109.978Z" fill="#16BCD4"/>
<path d="M18.416 108.875C18.3737 108.875 18.3314 108.853 18.289 108.831C18.2044 108.764 18.1833 108.61 18.2467 108.522L18.9871 107.552L18.2467 106.582C18.1833 106.494 18.1833 106.34 18.289 106.274C18.3737 106.208 18.5217 106.208 18.5852 106.318L19.4313 107.42C19.4948 107.508 19.4948 107.618 19.4313 107.684L18.5852 108.786C18.5429 108.853 18.4794 108.875 18.416 108.875Z" fill="#16BCD4"/>
<path d="M22.6467 108.875C22.5832 108.875 22.5198 108.853 22.4775 108.787L21.6313 107.685C21.5679 107.597 21.5679 107.487 21.6313 107.42L22.4775 106.318C22.5409 106.23 22.689 106.208 22.7736 106.274C22.8582 106.34 22.8794 106.495 22.8159 106.583L22.0756 107.553L22.8159 108.523C22.8794 108.611 22.8794 108.765 22.7736 108.831C22.7313 108.853 22.689 108.875 22.6467 108.875Z" fill="#16BCD4"/>
<path d="M55.5964 89.0507H52.8464V86.1853C52.8464 86.053 52.7618 85.9648 52.6349 85.9648C52.508 85.9648 52.4233 86.053 52.4233 86.1853V89.0507H49.6734C49.5465 89.0507 49.4619 89.1389 49.4619 89.2712C49.4619 89.4034 49.5465 89.4916 49.6734 89.4916H52.4233V92.3571C52.4233 92.4893 52.508 92.5775 52.6349 92.5775C52.7618 92.5775 52.8464 92.4893 52.8464 92.3571V89.4916H55.5964C55.7233 89.4916 55.8079 89.4034 55.8079 89.2712C55.8079 89.1389 55.7233 89.0507 55.5964 89.0507Z" fill="#2197F3"/>
<path d="M52.6348 88.1688C52.5925 88.1688 52.5502 88.1467 52.5079 88.1247L51.4502 87.243C51.3656 87.1769 51.3445 87.0226 51.4079 86.9344C51.4714 86.8463 51.6195 86.8242 51.7041 86.8903L52.6348 87.6618L53.5656 86.8903C53.6502 86.8242 53.7983 86.8242 53.8617 86.9344C53.9252 87.0226 53.9252 87.1769 53.8194 87.243L52.7618 88.1247C52.7194 88.1467 52.6771 88.1688 52.6348 88.1688Z" fill="#16BCD4"/>
<path d="M53.6925 91.6952C53.6502 91.6952 53.6079 91.6732 53.5656 91.6511L52.6348 90.8797L51.7041 91.6511C51.6195 91.7173 51.4714 91.7173 51.4079 91.6071C51.3445 91.5189 51.3445 91.3646 51.4502 91.2985L52.5079 90.4168C52.5925 90.3507 52.6983 90.3507 52.7618 90.4168L53.8194 91.2985C53.904 91.3646 53.9252 91.5189 53.8617 91.6071C53.8194 91.6732 53.756 91.6952 53.6925 91.6952Z" fill="#16BCD4"/>
<path d="M50.5195 90.5934C50.4772 90.5934 50.4349 90.5713 50.3926 90.5493C50.3079 90.4832 50.2868 90.3289 50.3503 90.2407L51.0906 89.2708L50.3503 88.301C50.2868 88.2128 50.2868 88.0585 50.3926 87.9924C50.4772 87.9263 50.6253 87.9263 50.6887 88.0365L51.5349 89.1386C51.5983 89.2268 51.5983 89.337 51.5349 89.4031L50.6887 90.5052C50.6464 90.5713 50.5829 90.5934 50.5195 90.5934Z" fill="#16BCD4"/>
<path d="M54.7502 90.5925C54.6868 90.5925 54.6233 90.5705 54.581 90.5044L53.7349 89.4023C53.6714 89.3141 53.6714 89.2039 53.7349 89.1378L54.581 88.0357C54.6445 87.9475 54.7925 87.9254 54.8771 87.9916C54.9618 88.0577 54.9829 88.212 54.9194 88.3002L54.1791 89.27L54.9194 90.2399C54.9829 90.328 54.9829 90.4823 54.8771 90.5485C54.8348 90.5705 54.7925 90.5925 54.7502 90.5925Z" fill="#16BCD4"/>
<path d="M63.4356 69.2124H60.6856V66.3469C60.6856 66.2146 60.601 66.1265 60.4741 66.1265C60.3472 66.1265 60.2626 66.2146 60.2626 66.3469V69.2124H57.5126C57.3857 69.2124 57.3011 69.3005 57.3011 69.4328C57.3011 69.565 57.3857 69.6532 57.5126 69.6532H60.2626V72.5187C60.2626 72.6509 60.3472 72.7391 60.4741 72.7391C60.601 72.7391 60.6856 72.6509 60.6856 72.5187V69.6532H63.4356C63.5625 69.6532 63.6471 69.565 63.6471 69.4328C63.6471 69.3005 63.5625 69.2124 63.4356 69.2124Z" fill="#2197F3"/>
<path d="M60.4741 68.3309C60.4318 68.3309 60.3895 68.3089 60.3471 68.2868L59.2895 67.4051C59.2049 67.339 59.1837 67.1847 59.2472 67.0965C59.3106 67.0084 59.4587 66.9863 59.5433 67.0525L60.4741 67.8239L61.4048 67.0525C61.4894 66.9863 61.6375 66.9863 61.701 67.0965C61.7644 67.1847 61.7644 67.339 61.6587 67.4051L60.601 68.2868C60.5587 68.3089 60.5164 68.3309 60.4741 68.3309Z" fill="#16BCD4"/>
<path d="M61.5317 71.8573C61.4894 71.8573 61.4471 71.8353 61.4048 71.8133L60.4741 71.0418L59.5433 71.8133C59.4587 71.8794 59.3106 71.8794 59.2472 71.7692C59.1837 71.681 59.1837 71.5267 59.2895 71.4606L60.3471 70.5789C60.4318 70.5128 60.5375 70.5128 60.601 70.5789L61.6587 71.4606C61.7433 71.5267 61.7644 71.681 61.701 71.7692C61.6587 71.8353 61.5952 71.8573 61.5317 71.8573Z" fill="#16BCD4"/>
<path d="M58.3587 70.7555C58.3164 70.7555 58.2741 70.7334 58.2318 70.7114C58.1472 70.6453 58.126 70.491 58.1895 70.4028L58.9299 69.4329L58.1895 68.4631C58.126 68.3749 58.126 68.2206 58.2318 68.1545C58.3164 68.0884 58.4645 68.0884 58.5279 68.1986L59.3741 69.3007C59.4375 69.3889 59.4375 69.4991 59.3741 69.5652L58.5279 70.6673C58.4856 70.7334 58.4222 70.7555 58.3587 70.7555Z" fill="#16BCD4"/>
<path d="M62.5895 70.7551C62.526 70.7551 62.4625 70.7331 62.4202 70.667L61.5741 69.5649C61.5106 69.4767 61.5106 69.3665 61.5741 69.3004L62.4202 68.1983C62.4837 68.1101 62.6318 68.088 62.7164 68.1542C62.801 68.2203 62.8221 68.3746 62.7587 68.4628L62.0183 69.4326L62.7587 70.4025C62.8221 70.4906 62.8221 70.6449 62.7164 70.7111C62.6741 70.7331 62.6318 70.7551 62.5895 70.7551Z" fill="#16BCD4"/>
<path d="M83.9669 89.0507H81.217V86.1853C81.217 86.053 81.1323 85.9648 81.0054 85.9648C80.8785 85.9648 80.7939 86.053 80.7939 86.1853V89.0507H78.0439C77.917 89.0507 77.8324 89.1389 77.8324 89.2712C77.8324 89.4034 77.917 89.4916 78.0439 89.4916H80.7939V92.3571C80.7939 92.4893 80.8785 92.5775 81.0054 92.5775C81.1323 92.5775 81.217 92.4893 81.217 92.3571V89.4916H83.9669C84.0938 89.4916 84.1784 89.4034 84.1784 89.2712C84.1784 89.1389 84.0938 89.0507 83.9669 89.0507Z" fill="#2197F3"/>
<path d="M81.0054 88.1688C80.9631 88.1688 80.9208 88.1467 80.8785 88.1247L79.8208 87.243C79.7362 87.1769 79.7151 87.0226 79.7785 86.9344C79.842 86.8463 79.9901 86.8242 80.0747 86.8903L81.0054 87.6618L81.9362 86.8903C82.0208 86.8242 82.1689 86.8242 82.2323 86.9344C82.2958 87.0226 82.2958 87.1769 82.19 87.243L81.1324 88.1247C81.0901 88.1467 81.0477 88.1688 81.0054 88.1688Z" fill="#16BCD4"/>
<path d="M82.0631 91.6952C82.0208 91.6952 81.9785 91.6732 81.9362 91.6511L81.0054 90.8797L80.0747 91.6511C79.9901 91.7173 79.842 91.7173 79.7785 91.6071C79.7151 91.5189 79.7151 91.3646 79.8208 91.2985L80.8785 90.4168C80.9631 90.3507 81.0689 90.3507 81.1324 90.4168L82.19 91.2985C82.2747 91.3646 82.2958 91.5189 82.2323 91.6071C82.19 91.6732 82.1266 91.6952 82.0631 91.6952Z" fill="#16BCD4"/>
<path d="M78.8901 90.5934C78.8478 90.5934 78.8055 90.5713 78.7632 90.5493C78.6786 90.4832 78.6574 90.3289 78.7209 90.2407L79.4612 89.2708L78.7209 88.301C78.6574 88.2128 78.6574 88.0585 78.7632 87.9924C78.8478 87.9263 78.9959 87.9263 79.0593 88.0365L79.9055 89.1386C79.9689 89.2268 79.9689 89.337 79.9055 89.4031L79.0593 90.5052C79.017 90.5713 78.9535 90.5934 78.8901 90.5934Z" fill="#16BCD4"/>
<path d="M83.1208 90.5925C83.0573 90.5925 82.9938 90.5705 82.9515 90.5044L82.1054 89.4023C82.0419 89.3141 82.0419 89.2039 82.1054 89.1378L82.9515 88.0357C83.015 87.9475 83.1631 87.9254 83.2477 87.9916C83.3323 88.0577 83.3535 88.212 83.29 88.3002L82.5496 89.27L83.29 90.2399C83.3535 90.328 83.3535 90.4823 83.2477 90.5485C83.2054 90.5705 83.1631 90.5925 83.1208 90.5925Z" fill="#16BCD4"/>
<path d="M66.6086 106.749H63.8586V103.884C63.8586 103.752 63.774 103.664 63.6471 103.664C63.5202 103.664 63.4355 103.752 63.4355 103.884V106.749H60.6856C60.5587 106.749 60.4741 106.838 60.4741 106.97C60.4741 107.102 60.5587 107.19 60.6856 107.19H63.4355V110.056C63.4355 110.188 63.5202 110.276 63.6471 110.276C63.774 110.276 63.8586 110.188 63.8586 110.056V107.19H66.6086C66.7355 107.19 66.8201 107.102 66.8201 106.97C66.8201 106.838 66.7355 106.749 66.6086 106.749Z" fill="#2197F3"/>
<path d="M63.6471 105.867C63.6048 105.867 63.5625 105.845 63.5202 105.823L62.4625 104.941C62.3779 104.875 62.3567 104.721 62.4202 104.633C62.4837 104.545 62.6317 104.522 62.7163 104.589L63.6471 105.36L64.5779 104.589C64.6625 104.522 64.8105 104.522 64.874 104.633C64.9375 104.721 64.9375 104.875 64.8317 104.941L63.774 105.823C63.7317 105.845 63.6894 105.867 63.6471 105.867Z" fill="#16BCD4"/>
<path d="M64.7048 109.394C64.6625 109.394 64.6202 109.372 64.5779 109.35L63.6471 108.579L62.7164 109.35C62.6317 109.416 62.4837 109.416 62.4202 109.306C62.3567 109.218 62.3567 109.064 62.4625 108.998L63.5202 108.116C63.6048 108.05 63.7106 108.05 63.774 108.116L64.8317 108.998C64.9163 109.064 64.9375 109.218 64.874 109.306C64.8317 109.372 64.7682 109.394 64.7048 109.394Z" fill="#16BCD4"/>
<path d="M61.5318 108.291C61.4894 108.291 61.4471 108.269 61.4048 108.247C61.3202 108.181 61.2991 108.027 61.3625 107.938L62.1029 106.969L61.3625 105.999C61.2991 105.911 61.2991 105.756 61.4048 105.69C61.4894 105.624 61.6375 105.624 61.701 105.734L62.5471 106.836C62.6106 106.925 62.6106 107.035 62.5471 107.101L61.701 108.203C61.6587 108.269 61.5952 108.291 61.5318 108.291Z" fill="#16BCD4"/>
<path d="M65.7625 108.292C65.699 108.292 65.6356 108.27 65.5933 108.204L64.7471 107.101C64.6837 107.013 64.6837 106.903 64.7471 106.837L65.5933 105.735C65.6567 105.647 65.8048 105.625 65.8894 105.691C65.974 105.757 65.9952 105.911 65.9317 105.999L65.1913 106.969L65.9317 107.939C65.9952 108.027 65.9952 108.182 65.8894 108.248C65.8471 108.27 65.8048 108.292 65.7625 108.292Z" fill="#16BCD4"/>
<path d="M94.4192 112H91.6692V109.134C91.6692 109.002 91.5846 108.914 91.4577 108.914C91.3308 108.914 91.2462 109.002 91.2462 109.134V112H88.4962C88.3693 112 88.2847 112.088 88.2847 112.22C88.2847 112.353 88.3693 112.441 88.4962 112.441H91.2462V115.306C91.2462 115.439 91.3308 115.527 91.4577 115.527C91.5846 115.527 91.6692 115.439 91.6692 115.306V112.441H94.4192C94.5461 112.441 94.6307 112.353 94.6307 112.22C94.6307 112.088 94.5461 112 94.4192 112Z" fill="#2197F3"/>
<path d="M91.4577 111.118C91.4154 111.118 91.3731 111.096 91.3308 111.074L90.2731 110.193C90.1885 110.127 90.1673 109.972 90.2308 109.884C90.2943 109.796 90.4423 109.774 90.527 109.84L91.4577 110.612L92.3885 109.84C92.4731 109.774 92.6212 109.774 92.6846 109.884C92.7481 109.972 92.7481 110.127 92.6423 110.193L91.5846 111.074C91.5423 111.096 91.5 111.118 91.4577 111.118Z" fill="#16BCD4"/>
<path d="M92.5154 114.645C92.4731 114.645 92.4308 114.623 92.3885 114.601L91.4577 113.829L90.527 114.601C90.4423 114.667 90.2943 114.667 90.2308 114.557C90.1673 114.469 90.1673 114.314 90.2731 114.248L91.3308 113.366C91.4154 113.3 91.5212 113.3 91.5846 113.366L92.6423 114.248C92.7269 114.314 92.7481 114.469 92.6846 114.557C92.6423 114.623 92.5788 114.645 92.5154 114.645Z" fill="#16BCD4"/>
<path d="M89.3424 113.543C89.3001 113.543 89.2577 113.521 89.2154 113.499C89.1308 113.433 89.1097 113.279 89.1731 113.19L89.9135 112.221L89.1731 111.251C89.1097 111.163 89.1097 111.008 89.2154 110.942C89.3001 110.876 89.4481 110.876 89.5116 110.986L90.3577 112.088C90.4212 112.176 90.4212 112.287 90.3577 112.353L89.5116 113.455C89.4693 113.521 89.4058 113.543 89.3424 113.543Z" fill="#16BCD4"/>
<path d="M93.5731 113.543C93.5096 113.543 93.4462 113.521 93.4039 113.455L92.5577 112.353C92.4943 112.265 92.4943 112.155 92.5577 112.088L93.4039 110.986C93.4673 110.898 93.6154 110.876 93.7 110.942C93.7846 111.008 93.8058 111.163 93.7423 111.251L93.002 112.221L93.7423 113.191C93.8058 113.279 93.8058 113.433 93.7 113.499C93.6577 113.521 93.6154 113.543 93.5731 113.543Z" fill="#16BCD4"/>
<path d="M114.577 92.3569H111.827V89.4914C111.827 89.3592 111.743 89.271 111.616 89.271C111.489 89.271 111.404 89.3592 111.404 89.4914V92.3569H108.654C108.527 92.3569 108.443 92.4451 108.443 92.5773C108.443 92.7096 108.527 92.7977 108.654 92.7977H111.404V95.6632C111.404 95.7955 111.489 95.8836 111.616 95.8836C111.743 95.8836 111.827 95.7955 111.827 95.6632V92.7977H114.577C114.704 92.7977 114.789 92.7096 114.789 92.5773C114.789 92.4451 114.704 92.3569 114.577 92.3569Z" fill="#2197F3"/>
<path d="M111.616 91.4754C111.573 91.4754 111.531 91.4534 111.489 91.4313L110.431 90.5497C110.347 90.4835 110.325 90.3292 110.389 90.2411C110.452 90.1529 110.6 90.1309 110.685 90.197L111.616 90.9685L112.546 90.197C112.631 90.1309 112.779 90.1309 112.843 90.2411C112.906 90.3292 112.906 90.4835 112.8 90.5497L111.743 91.4313C111.7 91.4534 111.658 91.4754 111.616 91.4754Z" fill="#16BCD4"/>
<path d="M112.673 95.0019C112.631 95.0019 112.589 94.9798 112.546 94.9578L111.616 94.1863L110.685 94.9578C110.6 95.0239 110.452 95.0239 110.389 94.9137C110.325 94.8255 110.325 94.6712 110.431 94.6051L111.489 93.7234C111.573 93.6573 111.679 93.6573 111.743 93.7234L112.8 94.6051C112.885 94.6712 112.906 94.8255 112.843 94.9137C112.8 94.9798 112.737 95.0019 112.673 95.0019Z" fill="#16BCD4"/>
<path d="M109.5 93.8995C109.458 93.8995 109.416 93.8775 109.373 93.8554C109.289 93.7893 109.268 93.635 109.331 93.5468L110.072 92.577L109.331 91.6071C109.268 91.519 109.268 91.3647 109.373 91.2985C109.458 91.2324 109.606 91.2324 109.67 91.3426L110.516 92.4447C110.579 92.5329 110.579 92.6431 110.516 92.7092L109.67 93.8114C109.627 93.8775 109.564 93.8995 109.5 93.8995Z" fill="#16BCD4"/>
<path d="M113.731 93.8992C113.668 93.8992 113.604 93.8771 113.562 93.811L112.716 92.7089C112.652 92.6207 112.652 92.5105 112.716 92.4444L113.562 91.3423C113.625 91.2541 113.773 91.2321 113.858 91.2982C113.943 91.3643 113.964 91.5186 113.9 91.6068L113.16 92.5767L113.9 93.5465C113.964 93.6347 113.964 93.789 113.858 93.8551C113.816 93.8771 113.773 93.8992 113.731 93.8992Z" fill="#16BCD4"/>
<path d="M101.698 68.8227H98.9485V65.9572C98.9485 65.825 98.8639 65.7368 98.737 65.7368C98.6101 65.7368 98.5255 65.825 98.5255 65.9572V68.8227H95.7755C95.6486 68.8227 95.564 68.9109 95.564 69.0431C95.564 69.1754 95.6486 69.2636 95.7755 69.2636H98.5255V72.129C98.5255 72.2613 98.6101 72.3495 98.737 72.3495C98.8639 72.3495 98.9485 72.2613 98.9485 72.129V69.2636H101.698C101.825 69.2636 101.91 69.1754 101.91 69.0431C101.91 68.9109 101.825 68.8227 101.698 68.8227Z" fill="#2197F3"/>
<path d="M98.737 67.9412C98.6947 67.9412 98.6524 67.9192 98.6101 67.8972L97.5524 67.0155C97.4678 66.9494 97.4466 66.7951 97.5101 66.7069C97.5736 66.6187 97.7216 66.5967 97.8063 66.6628L98.737 67.4343L99.6678 66.6628C99.7524 66.5967 99.9004 66.5967 99.9639 66.7069C100.027 66.7951 100.027 66.9494 99.9216 67.0155L98.8639 67.8972C98.8216 67.9192 98.7793 67.9412 98.737 67.9412Z" fill="#16BCD4"/>
<path d="M99.7947 71.4682C99.7524 71.4682 99.7101 71.4461 99.6678 71.4241L98.737 70.6526L97.8063 71.4241C97.7216 71.4902 97.5736 71.4902 97.5101 71.38C97.4466 71.2918 97.4466 71.1375 97.5524 71.0714L98.6101 70.1897C98.6947 70.1236 98.8005 70.1236 98.8639 70.1897L99.9216 71.0714C100.006 71.1375 100.027 71.2918 99.9639 71.38C99.9216 71.4461 99.8581 71.4682 99.7947 71.4682Z" fill="#16BCD4"/>
<path d="M96.6217 70.3663C96.5793 70.3663 96.537 70.3443 96.4947 70.3222C96.4101 70.2561 96.389 70.1018 96.4524 70.0136L97.1928 69.0438L96.4524 68.0739C96.389 67.9858 96.389 67.8315 96.4947 67.7653C96.5793 67.6992 96.7274 67.6992 96.7909 67.8094L97.637 68.9115C97.7005 68.9997 97.7005 69.1099 97.637 69.176L96.7909 70.2781C96.7486 70.3443 96.6851 70.3663 96.6217 70.3663Z" fill="#16BCD4"/>
<path d="M100.852 70.366C100.789 70.366 100.725 70.3439 100.683 70.2778L99.837 69.1757C99.7735 69.0875 99.7735 68.9773 99.837 68.9112L100.683 67.8091C100.747 67.7209 100.895 67.6989 100.979 67.765C101.064 67.8311 101.085 67.9854 101.022 68.0736L100.281 69.0435L101.022 70.0133C101.085 70.1015 101.085 70.2558 100.979 70.3219C100.937 70.3439 100.895 70.366 100.852 70.366Z" fill="#16BCD4"/>
<path d="M100.392 98.7749H97.642V95.9094C97.642 95.7771 97.5574 95.689 97.4305 95.689C97.3035 95.689 97.2189 95.7771 97.2189 95.9094V98.7749H94.469C94.3421 98.7749 94.2574 98.863 94.2574 98.9953C94.2574 99.1275 94.3421 99.2157 94.469 99.2157H97.2189V102.081C97.2189 102.213 97.3035 102.302 97.4305 102.302C97.5574 102.302 97.642 102.213 97.642 102.081V99.2157H100.392C100.519 99.2157 100.603 99.1275 100.603 98.9953C100.603 98.863 100.519 98.7749 100.392 98.7749Z" fill="#2197F3"/>
<path d="M97.4305 97.8924C97.3882 97.8924 97.3459 97.8704 97.3036 97.8483L96.2459 96.9667C96.1613 96.9005 96.1401 96.7462 96.2036 96.6581C96.267 96.5699 96.4151 96.5478 96.4997 96.614L97.4305 97.3855L98.3612 96.614C98.4459 96.5478 98.5939 96.5478 98.6574 96.6581C98.7209 96.7462 98.7209 96.9005 98.6151 96.9667L97.5574 97.8483C97.5151 97.8704 97.4728 97.8924 97.4305 97.8924Z" fill="#16BCD4"/>
<path d="M98.4882 101.42C98.4459 101.42 98.4036 101.398 98.3612 101.376L97.4305 100.604L96.4997 101.376C96.4151 101.442 96.267 101.442 96.2036 101.332C96.1401 101.243 96.1401 101.089 96.2459 101.023L97.3036 100.141C97.3882 100.075 97.494 100.075 97.5574 100.141L98.6151 101.023C98.6997 101.089 98.7209 101.243 98.6574 101.332C98.6151 101.398 98.5516 101.42 98.4882 101.42Z" fill="#16BCD4"/>
<path d="M95.3151 100.318C95.2728 100.318 95.2305 100.296 95.1882 100.274C95.1036 100.208 95.0824 100.053 95.1459 99.9653L95.8863 98.9954L95.1459 98.0256C95.0824 97.9374 95.0824 97.7831 95.1882 97.717C95.2728 97.6509 95.4209 97.6509 95.4844 97.7611L96.3305 98.8632C96.394 98.9514 96.394 99.0616 96.3305 99.1277L95.4844 100.23C95.4421 100.296 95.3786 100.318 95.3151 100.318Z" fill="#16BCD4"/>
<path d="M99.5458 100.318C99.4824 100.318 99.4189 100.296 99.3766 100.229L98.5304 99.1274C98.467 99.0392 98.467 98.929 98.5304 98.8629L99.3766 97.7608C99.44 97.6726 99.5881 97.6505 99.6727 97.7167C99.7573 97.7828 99.7785 97.9371 99.715 98.0253L98.9747 98.9951L99.715 99.965C99.7785 100.053 99.7785 100.207 99.6727 100.274C99.6304 100.296 99.5881 100.318 99.5458 100.318Z" fill="#16BCD4"/>
<path d="M134.735 108.499H131.985V105.634C131.985 105.502 131.901 105.414 131.774 105.414C131.647 105.414 131.562 105.502 131.562 105.634V108.499H128.812C128.685 108.499 128.601 108.588 128.601 108.72C128.601 108.852 128.685 108.94 128.812 108.94H131.562V111.806C131.562 111.938 131.647 112.026 131.774 112.026C131.901 112.026 131.985 111.938 131.985 111.806V108.94H134.735C134.862 108.94 134.947 108.852 134.947 108.72C134.947 108.588 134.862 108.499 134.735 108.499Z" fill="#2197F3"/>
<path d="M131.774 107.618C131.732 107.618 131.689 107.596 131.647 107.574L130.589 106.692C130.505 106.626 130.483 106.472 130.547 106.384C130.61 106.295 130.758 106.273 130.843 106.34L131.774 107.111L132.705 106.34C132.789 106.273 132.937 106.273 133.001 106.384C133.064 106.472 133.064 106.626 132.958 106.692L131.901 107.574C131.858 107.596 131.816 107.618 131.774 107.618Z" fill="#16BCD4"/>
<path d="M132.831 111.144C132.789 111.144 132.747 111.122 132.705 111.1L131.774 110.329L130.843 111.1C130.758 111.166 130.61 111.166 130.547 111.056C130.483 110.968 130.483 110.814 130.589 110.748L131.647 109.866C131.731 109.8 131.837 109.8 131.901 109.866L132.958 110.748C133.043 110.814 133.064 110.968 133.001 111.056C132.958 111.122 132.895 111.144 132.831 111.144Z" fill="#16BCD4"/>
<path d="M129.658 110.043C129.616 110.043 129.574 110.021 129.531 109.999C129.447 109.932 129.426 109.778 129.489 109.69L130.23 108.72L129.489 107.75C129.426 107.662 129.426 107.508 129.531 107.442C129.616 107.375 129.764 107.375 129.828 107.486L130.674 108.588C130.737 108.676 130.737 108.786 130.674 108.852L129.828 109.954C129.785 110.021 129.722 110.043 129.658 110.043Z" fill="#16BCD4"/>
<path d="M133.889 110.042C133.826 110.042 133.762 110.02 133.72 109.954L132.874 108.851C132.81 108.763 132.81 108.653 132.874 108.587L133.72 107.485C133.783 107.397 133.931 107.375 134.016 107.441C134.101 107.507 134.122 107.661 134.058 107.749L133.318 108.719L134.058 109.689C134.122 109.777 134.122 109.932 134.016 109.998C133.974 110.02 133.931 110.042 133.889 110.042Z" fill="#16BCD4"/>
<path d="M113.644 116.473H110.894V113.608C110.894 113.475 110.809 113.387 110.682 113.387C110.556 113.387 110.471 113.475 110.471 113.608V116.473H107.721C107.594 116.473 107.509 116.561 107.509 116.694C107.509 116.826 107.594 116.914 107.721 116.914H110.471V119.779C110.471 119.912 110.556 120 110.682 120C110.809 120 110.894 119.912 110.894 119.779V116.914H113.644C113.771 116.914 113.856 116.826 113.856 116.694C113.856 116.561 113.771 116.473 113.644 116.473Z" fill="#2197F3"/>
<path d="M110.683 115.591C110.64 115.591 110.598 115.569 110.556 115.547L109.498 114.665C109.413 114.599 109.392 114.445 109.456 114.357C109.519 114.269 109.667 114.247 109.752 114.313L110.683 115.084L111.613 114.313C111.698 114.247 111.846 114.247 111.909 114.357C111.973 114.445 111.973 114.599 111.867 114.665L110.809 115.547C110.767 115.569 110.725 115.591 110.683 115.591Z" fill="#16BCD4"/>
<path d="M111.74 119.119C111.698 119.119 111.656 119.097 111.613 119.074L110.683 118.303L109.752 119.074C109.667 119.141 109.519 119.141 109.456 119.03C109.392 118.942 109.392 118.788 109.498 118.722L110.556 117.84C110.64 117.774 110.746 117.774 110.809 117.84L111.867 118.722C111.952 118.788 111.973 118.942 111.909 119.03C111.867 119.097 111.804 119.119 111.74 119.119Z" fill="#16BCD4"/>
<path d="M108.567 118.017C108.525 118.017 108.483 117.995 108.44 117.973C108.356 117.906 108.334 117.752 108.398 117.664L109.138 116.694L108.398 115.724C108.334 115.636 108.334 115.482 108.44 115.416C108.525 115.35 108.673 115.35 108.736 115.46L109.583 116.562C109.646 116.65 109.646 116.76 109.583 116.826L108.736 117.929C108.694 117.995 108.631 118.017 108.567 118.017Z" fill="#16BCD4"/>
<path d="M112.798 118.016C112.734 118.016 112.671 117.994 112.629 117.928L111.782 116.826C111.719 116.738 111.719 116.628 111.782 116.562L112.629 115.459C112.692 115.371 112.84 115.349 112.925 115.415C113.009 115.482 113.031 115.636 112.967 115.724L112.227 116.694L112.967 117.664C113.031 117.752 113.031 117.906 112.925 117.972C112.882 117.994 112.84 118.016 112.798 118.016Z" fill="#16BCD4"/>
<path d="M142.015 76.0195H139.265V73.154C139.265 73.0218 139.18 72.9336 139.053 72.9336C138.926 72.9336 138.842 73.0218 138.842 73.154V76.0195H136.092C135.965 76.0195 135.88 76.1077 135.88 76.2399C135.88 76.3722 135.965 76.4603 136.092 76.4603H138.842V79.3258C138.842 79.4581 138.926 79.5462 139.053 79.5462C139.18 79.5462 139.265 79.4581 139.265 79.3258V76.4603H142.015C142.141 76.4603 142.226 76.3722 142.226 76.2399C142.226 76.1077 142.141 76.0195 142.015 76.0195Z" fill="#2197F3"/>
<path d="M139.053 75.1375C139.011 75.1375 138.968 75.1155 138.926 75.0935L137.868 74.2118C137.784 74.1456 137.763 73.9913 137.826 73.9032C137.89 73.815 138.038 73.793 138.122 73.8591L139.053 74.6306L139.984 73.8591C140.068 73.793 140.216 73.793 140.28 73.9032C140.343 73.9913 140.343 74.1456 140.238 74.2118L139.18 75.0935C139.138 75.1155 139.095 75.1375 139.053 75.1375Z" fill="#16BCD4"/>
<path d="M140.111 78.664C140.068 78.664 140.026 78.6419 139.984 78.6199L139.053 77.8484L138.122 78.6199C138.038 78.686 137.89 78.686 137.826 78.5758C137.763 78.4876 137.763 78.3333 137.868 78.2672L138.926 77.3855C139.011 77.3194 139.117 77.3194 139.18 77.3855L140.238 78.2672C140.322 78.3333 140.343 78.4876 140.28 78.5758C140.238 78.6419 140.174 78.664 140.111 78.664Z" fill="#16BCD4"/>
<path d="M136.938 77.5621C136.895 77.5621 136.853 77.5401 136.811 77.518C136.726 77.4519 136.705 77.2976 136.768 77.2094L137.509 76.2396L136.768 75.2697C136.705 75.1816 136.705 75.0273 136.811 74.9611C136.895 74.895 137.043 74.895 137.107 75.0052L137.953 76.1073C138.017 76.1955 138.017 76.3057 137.953 76.3718L137.107 77.4739C137.065 77.5401 137.001 77.5621 136.938 77.5621Z" fill="#16BCD4"/>
<path d="M141.168 77.5628C141.105 77.5628 141.042 77.5407 140.999 77.4746L140.153 76.3725C140.09 76.2843 140.09 76.1741 140.153 76.108L140.999 75.0059C141.063 74.9177 141.211 74.8957 141.295 74.9618C141.38 75.0279 141.401 75.1822 141.338 75.2704L140.597 76.2402L141.338 77.2101C141.401 77.2983 141.401 77.4526 141.295 77.5187C141.253 77.5407 141.211 77.5628 141.168 77.5628Z" fill="#16BCD4"/>
<path d="M86.2627 72.2852H84.2407V70.1782C84.2407 70.0809 84.1784 70.0161 84.0851 70.0161C83.9918 70.0161 83.9296 70.0809 83.9296 70.1782V72.2852H81.9076C81.8142 72.2852 81.752 72.35 81.752 72.4472C81.752 72.5445 81.8142 72.6093 81.9076 72.6093H83.9296V74.7163C83.9296 74.8135 83.9918 74.8783 84.0851 74.8783C84.1784 74.8783 84.2407 74.8135 84.2407 74.7163V72.6093H86.2627C86.356 72.6093 86.4182 72.5445 86.4182 72.4472C86.4182 72.35 86.356 72.2852 86.2627 72.2852Z" fill="#2197F3"/>
<path d="M84.0851 71.6373C84.054 71.6373 84.0229 71.6211 83.9918 71.6049L83.2141 70.9566C83.1518 70.9079 83.1363 70.7945 83.183 70.7297C83.2296 70.6648 83.3385 70.6486 83.4007 70.6972L84.0851 71.2645L84.7695 70.6972C84.8317 70.6486 84.9406 70.6486 84.9872 70.7297C85.0339 70.7945 85.0339 70.9079 84.9561 70.9566L84.1784 71.6049C84.1473 71.6211 84.1162 71.6373 84.0851 71.6373Z" fill="#16BCD4"/>
<path d="M84.8628 74.2304C84.8317 74.2304 84.8006 74.2142 84.7695 74.198L84.0851 73.6307L83.4007 74.198C83.3385 74.2466 83.2296 74.2466 83.183 74.1656C83.1363 74.1007 83.1363 73.9873 83.2141 73.9387L83.9918 73.2904C84.054 73.2418 84.1318 73.2418 84.1784 73.2904L84.9561 73.9387C85.0183 73.9873 85.0339 74.1007 84.9872 74.1656C84.9561 74.2142 84.9095 74.2304 84.8628 74.2304Z" fill="#16BCD4"/>
<path d="M82.5297 73.4203C82.4986 73.4203 82.4675 73.4041 82.4364 73.3879C82.3741 73.3392 82.3586 73.2258 82.4053 73.161L82.9496 72.4478L82.4053 71.7347C82.3586 71.6699 82.3586 71.5564 82.4364 71.5078C82.4986 71.4592 82.6075 71.4592 82.6541 71.5402L83.2763 72.3506C83.3229 72.4154 83.3229 72.4964 83.2763 72.5451L82.6541 73.3554C82.623 73.4041 82.5764 73.4203 82.5297 73.4203Z" fill="#16BCD4"/>
<path d="M85.6405 73.4198C85.5939 73.4198 85.5472 73.4035 85.5161 73.3549L84.8939 72.5446C84.8473 72.4797 84.8473 72.3987 84.8939 72.3501L85.5161 71.5397C85.5628 71.4749 85.6716 71.4587 85.7339 71.5073C85.7961 71.5559 85.8116 71.6693 85.765 71.7342L85.2206 72.4473L85.765 73.1604C85.8116 73.2253 85.8116 73.3387 85.7339 73.3873C85.7028 73.4035 85.6716 73.4198 85.6405 73.4198Z" fill="#16BCD4"/>
<path d="M67.9711 82.5933H65.9491V80.4863C65.9491 80.389 65.8869 80.3242 65.7936 80.3242C65.7002 80.3242 65.638 80.389 65.638 80.4863V82.5933H63.616C63.5227 82.5933 63.4604 82.6581 63.4604 82.7553C63.4604 82.8526 63.5227 82.9174 63.616 82.9174H65.638V85.0244C65.638 85.1216 65.7002 85.1865 65.7936 85.1865C65.8869 85.1865 65.9491 85.1216 65.9491 85.0244V82.9174H67.9711C68.0644 82.9174 68.1267 82.8526 68.1267 82.7553C68.1267 82.6581 68.0644 82.5933 67.9711 82.5933Z" fill="#2197F3"/>
<path d="M65.7935 81.9444C65.7624 81.9444 65.7313 81.9282 65.7002 81.912L64.9225 81.2637C64.8603 81.2151 64.8447 81.1016 64.8914 81.0368C64.9381 80.972 65.0469 80.9558 65.1091 81.0044L65.7935 81.5716L66.4779 81.0044C66.5401 80.9558 66.649 80.9558 66.6957 81.0368C66.7423 81.1016 66.7423 81.2151 66.6645 81.2637L65.8868 81.912C65.8557 81.9282 65.8246 81.9444 65.7935 81.9444Z" fill="#16BCD4"/>
<path d="M66.5713 84.5375C66.5402 84.5375 66.5091 84.5213 66.478 84.5051L65.7936 83.9379L65.1092 84.5051C65.047 84.5537 64.9381 84.5537 64.8915 84.4727C64.8448 84.4079 64.8448 84.2944 64.9226 84.2458L65.7003 83.5975C65.7625 83.5489 65.8403 83.5489 65.8869 83.5975L66.6646 84.2458C66.7268 84.2944 66.7424 84.4079 66.6957 84.4727C66.6646 84.5213 66.618 84.5375 66.5713 84.5375Z" fill="#16BCD4"/>
<path d="M64.2381 83.7274C64.207 83.7274 64.1759 83.7112 64.1448 83.695C64.0826 83.6464 64.067 83.5329 64.1137 83.4681L64.6581 82.755L64.1137 82.0418C64.067 81.977 64.067 81.8635 64.1448 81.8149C64.207 81.7663 64.3159 81.7663 64.3626 81.8473L64.9847 82.6577C65.0314 82.7225 65.0314 82.8036 64.9847 82.8522L64.3626 83.6626C64.3314 83.7112 64.2848 83.7274 64.2381 83.7274Z" fill="#16BCD4"/>
<path d="M67.349 83.7279C67.3023 83.7279 67.2556 83.7117 67.2245 83.663L66.6024 82.8527C66.5557 82.7878 66.5557 82.7068 66.6024 82.6582L67.2245 81.8478C67.2712 81.783 67.3801 81.7668 67.4423 81.8154C67.5045 81.864 67.5201 81.9775 67.4734 82.0423L66.929 82.7554L67.4734 83.4685C67.5201 83.5334 67.5201 83.6468 67.4423 83.6954C67.4112 83.7117 67.3801 83.7279 67.349 83.7279Z" fill="#16BCD4"/>
<path d="M79.17 105.349H77.148V103.242C77.148 103.145 77.0858 103.08 76.9925 103.08C76.8991 103.08 76.8369 103.145 76.8369 103.242V105.349H74.8149C74.7216 105.349 74.6594 105.414 74.6594 105.511C74.6594 105.608 74.7216 105.673 74.8149 105.673H76.8369V107.78C76.8369 107.877 76.8991 107.942 76.9925 107.942C77.0858 107.942 77.148 107.877 77.148 107.78V105.673H79.17C79.2634 105.673 79.3256 105.608 79.3256 105.511C79.3256 105.414 79.2634 105.349 79.17 105.349Z" fill="#2197F3"/>
<path d="M76.9925 104.7C76.9614 104.7 76.9303 104.684 76.8992 104.667L76.1215 104.019C76.0593 103.97 76.0437 103.857 76.0904 103.792C76.137 103.727 76.2459 103.711 76.3081 103.76L76.9925 104.327L77.6769 103.76C77.7391 103.711 77.848 103.711 77.8946 103.792C77.9413 103.857 77.9413 103.97 77.8635 104.019L77.0858 104.667C77.0547 104.684 77.0236 104.7 76.9925 104.7Z" fill="#16BCD4"/>
<path d="M77.7702 107.293C77.739 107.293 77.7079 107.277 77.6768 107.26L76.9925 106.693L76.3081 107.26C76.2459 107.309 76.137 107.309 76.0903 107.228C76.0437 107.163 76.0437 107.05 76.1214 107.001L76.8991 106.353C76.9613 106.304 77.0391 106.304 77.0858 106.353L77.8635 107.001C77.9257 107.05 77.9412 107.163 77.8946 107.228C77.8635 107.277 77.8168 107.293 77.7702 107.293Z" fill="#16BCD4"/>
<path d="M75.4371 106.483C75.406 106.483 75.3749 106.467 75.3438 106.45C75.2816 106.402 75.266 106.288 75.3127 106.223L75.8571 105.51L75.3127 104.797C75.266 104.732 75.266 104.619 75.3438 104.57C75.406 104.522 75.5149 104.522 75.5615 104.603L76.1837 105.413C76.2304 105.478 76.2304 105.559 76.1837 105.608L75.5615 106.418C75.5304 106.467 75.4838 106.483 75.4371 106.483Z" fill="#16BCD4"/>
<path d="M78.5479 106.483C78.5012 106.483 78.4546 106.467 78.4235 106.418L77.8013 105.608C77.7546 105.543 77.7546 105.462 77.8013 105.414L78.4235 104.603C78.4701 104.538 78.579 104.522 78.6412 104.571C78.7034 104.619 78.719 104.733 78.6723 104.798L78.1279 105.511L78.6723 106.224C78.719 106.289 78.719 106.402 78.6412 106.451C78.6101 106.467 78.579 106.483 78.5479 106.483Z" fill="#16BCD4"/>
<path d="M50.7995 100.291H48.7775V98.184C48.7775 98.0868 48.7152 98.022 48.6219 98.022C48.5286 98.022 48.4664 98.0868 48.4664 98.184V100.291H46.4444C46.351 100.291 46.2888 100.356 46.2888 100.453C46.2888 100.55 46.351 100.615 46.4444 100.615H48.4664V102.722C48.4664 102.819 48.5286 102.884 48.6219 102.884C48.7152 102.884 48.7775 102.819 48.7775 102.722V100.615H50.7995C50.8928 100.615 50.955 100.55 50.955 100.453C50.955 100.356 50.8928 100.291 50.7995 100.291Z" fill="#2197F3"/>
<path d="M48.6219 99.6431C48.5908 99.6431 48.5597 99.6269 48.5286 99.6107L47.7509 98.9624C47.6887 98.9138 47.6731 98.8003 47.7198 98.7355C47.7664 98.6707 47.8753 98.6545 47.9375 98.7031L48.6219 99.2704L49.3063 98.7031C49.3685 98.6545 49.4774 98.6545 49.524 98.7355C49.5707 98.8003 49.5707 98.9138 49.4929 98.9624L48.7152 99.6107C48.6841 99.6269 48.653 99.6431 48.6219 99.6431Z" fill="#16BCD4"/>
<path d="M49.3996 102.236C49.3685 102.236 49.3374 102.22 49.3063 102.204L48.6219 101.637L47.9375 102.204C47.8753 102.252 47.7664 102.252 47.7198 102.171C47.6731 102.107 47.6731 101.993 47.7509 101.945L48.5286 101.296C48.5908 101.248 48.6686 101.248 48.7152 101.296L49.4929 101.945C49.5551 101.993 49.5707 102.107 49.524 102.171C49.4929 102.22 49.4463 102.236 49.3996 102.236Z" fill="#16BCD4"/>
<path d="M47.0665 101.426C47.0354 101.426 47.0043 101.41 46.9732 101.394C46.911 101.345 46.8954 101.232 46.9421 101.167L47.4865 100.454L46.9421 99.7406C46.8954 99.6757 46.8954 99.5623 46.9732 99.5137C47.0354 99.465 47.1443 99.465 47.1909 99.5461L47.8131 100.356C47.8598 100.421 47.8598 100.502 47.8131 100.551L47.1909 101.361C47.1598 101.41 47.1132 101.426 47.0665 101.426Z" fill="#16BCD4"/>
<path d="M50.1773 101.427C50.1306 101.427 50.084 101.41 50.0528 101.362L49.4307 100.551C49.384 100.487 49.384 100.406 49.4307 100.357L50.0528 99.5465C50.0995 99.4817 50.2084 99.4655 50.2706 99.5141C50.3328 99.5627 50.3484 99.6762 50.3017 99.741L49.7573 100.454L50.3017 101.167C50.3484 101.232 50.3484 101.346 50.2706 101.394C50.2395 101.41 50.2084 101.427 50.1773 101.427Z" fill="#16BCD4"/>
<path d="M30.6415 79.0918H28.6194V76.9848C28.6194 76.8876 28.5572 76.8228 28.4639 76.8228C28.3706 76.8228 28.3084 76.8876 28.3084 76.9848V79.0918H26.2863C26.193 79.0918 26.1308 79.1566 26.1308 79.2539C26.1308 79.3511 26.193 79.4159 26.2863 79.4159H28.3084V81.5229C28.3084 81.6202 28.3706 81.685 28.4639 81.685C28.5572 81.685 28.6194 81.6202 28.6194 81.5229V79.4159H30.6415C30.7348 79.4159 30.797 79.3511 30.797 79.2539C30.797 79.1566 30.7348 79.0918 30.6415 79.0918Z" fill="#2197F3"/>
<path d="M28.4639 78.4439C28.4328 78.4439 28.4017 78.4277 28.3705 78.4115L27.5928 77.7632C27.5306 77.7146 27.5151 77.6011 27.5617 77.5363C27.6084 77.4715 27.7173 77.4553 27.7795 77.5039L28.4639 78.0711L29.1482 77.5039C29.2105 77.4553 29.3193 77.4553 29.366 77.5363C29.4127 77.6011 29.4127 77.7146 29.3349 77.7632L28.5572 78.4115C28.5261 78.4277 28.495 78.4439 28.4639 78.4439Z" fill="#16BCD4"/>
<path d="M29.2416 81.037C29.2105 81.037 29.1794 81.0208 29.1483 81.0046L28.4639 80.4374L27.7795 81.0046C27.7173 81.0533 27.6084 81.0533 27.5618 80.9722C27.5151 80.9074 27.5151 80.7939 27.5929 80.7453L28.3706 80.097C28.4328 80.0484 28.5105 80.0484 28.5572 80.097L29.3349 80.7453C29.3971 80.7939 29.4127 80.9074 29.366 80.9722C29.3349 81.0208 29.2883 81.037 29.2416 81.037Z" fill="#16BCD4"/>
<path d="M26.9085 80.2269C26.8774 80.2269 26.8463 80.2107 26.8152 80.1945C26.7529 80.1459 26.7374 80.0324 26.784 79.9676L27.3284 79.2545L26.784 78.5413C26.7374 78.4765 26.7374 78.3631 26.8152 78.3144C26.8774 78.2658 26.9862 78.2658 27.0329 78.3468L27.6551 79.1572C27.7017 79.2221 27.7017 79.3031 27.6551 79.3517L27.0329 80.1621C27.0018 80.2107 26.9551 80.2269 26.9085 80.2269Z" fill="#16BCD4"/>
<path d="M30.0193 80.2274C29.9726 80.2274 29.9259 80.2112 29.8948 80.1625L29.2727 79.3522C29.226 79.2873 29.226 79.2063 29.2727 79.1577L29.8948 78.3473C29.9415 78.2825 30.0504 78.2663 30.1126 78.3149C30.1748 78.3635 30.1904 78.477 30.1437 78.5418L29.5993 79.2549L30.1437 79.9681C30.1904 80.0329 30.1904 80.1463 30.1126 80.195C30.0815 80.2112 30.0504 80.2274 30.0193 80.2274Z" fill="#16BCD4"/>
<path d="M42.027 87.8447H40.005V85.7378C40.005 85.6405 39.9428 85.5757 39.8495 85.5757C39.7561 85.5757 39.6939 85.6405 39.6939 85.7378V87.8447H37.6719C37.5786 87.8447 37.5164 87.9096 37.5164 88.0068C37.5164 88.104 37.5786 88.1689 37.6719 88.1689H39.6939V90.2758C39.6939 90.3731 39.7561 90.4379 39.8495 90.4379C39.9428 90.4379 40.005 90.3731 40.005 90.2758V88.1689H42.027C42.1204 88.1689 42.1826 88.104 42.1826 88.0068C42.1826 87.9096 42.1204 87.8447 42.027 87.8447Z" fill="#2197F3"/>
<path d="M39.8494 87.1964C39.8183 87.1964 39.7872 87.1802 39.7561 87.1639L38.9784 86.5156C38.9162 86.467 38.9006 86.3536 38.9473 86.2887C38.994 86.2239 39.1028 86.2077 39.1651 86.2563L39.8494 86.8236L40.5338 86.2563C40.596 86.2077 40.7049 86.2077 40.7516 86.2887C40.7982 86.3536 40.7982 86.467 40.7205 86.5156L39.9428 87.1639C39.9116 87.1802 39.8805 87.1964 39.8494 87.1964Z" fill="#16BCD4"/>
<path d="M40.6271 89.7895C40.596 89.7895 40.5649 89.7733 40.5338 89.7571L39.8494 89.1898L39.1651 89.7571C39.1029 89.8057 38.994 89.8057 38.9473 89.7247C38.9006 89.6598 38.9006 89.5464 38.9784 89.4978L39.7561 88.8495C39.8183 88.8008 39.8961 88.8008 39.9428 88.8495L40.7205 89.4978C40.7827 89.5464 40.7982 89.6598 40.7516 89.7247C40.7205 89.7733 40.6738 89.7895 40.6271 89.7895Z" fill="#16BCD4"/>
<path d="M38.294 88.9789C38.2629 88.9789 38.2318 88.9627 38.2007 88.9465C38.1385 88.8978 38.1229 88.7844 38.1696 88.7195L38.714 88.0064L38.1696 87.2933C38.1229 87.2285 38.1229 87.115 38.2007 87.0664C38.2629 87.0178 38.3718 87.0178 38.4185 87.0988L39.0406 87.9092C39.0873 87.974 39.0873 88.055 39.0406 88.1037L38.4185 88.914C38.3874 88.9627 38.3407 88.9789 38.294 88.9789Z" fill="#16BCD4"/>
<path d="M41.4048 88.9793C41.3582 88.9793 41.3115 88.9631 41.2804 88.9145L40.6582 88.1041C40.6116 88.0393 40.6116 87.9583 40.6582 87.9096L41.2804 87.0993C41.327 87.0344 41.4359 87.0182 41.4981 87.0668C41.5604 87.1155 41.5759 87.2289 41.5293 87.2937L40.9849 88.0069L41.5293 88.72C41.5759 88.7848 41.5759 88.8983 41.4981 88.9469C41.467 88.9631 41.4359 88.9793 41.4048 88.9793Z" fill="#16BCD4"/>
<path d="M27.8417 96.207H25.8197V94.1001C25.8197 94.0028 25.7575 93.938 25.6642 93.938C25.5708 93.938 25.5086 94.0028 25.5086 94.1001V96.207H23.4866C23.3933 96.207 23.3311 96.2719 23.3311 96.3691C23.3311 96.4664 23.3933 96.5312 23.4866 96.5312H25.5086V98.6382C25.5086 98.7354 25.5708 98.8002 25.6642 98.8002C25.7575 98.8002 25.8197 98.7354 25.8197 98.6382V96.5312H27.8417C27.935 96.5312 27.9973 96.4664 27.9973 96.3691C27.9973 96.2719 27.935 96.207 27.8417 96.207Z" fill="#2197F3"/>
<path d="M25.6641 95.5592C25.633 95.5592 25.6019 95.5429 25.5708 95.5267L24.7931 94.8784C24.7309 94.8298 24.7153 94.7164 24.762 94.6515C24.8087 94.5867 24.9175 94.5705 24.9798 94.6191L25.6641 95.1864L26.3485 94.6191C26.4107 94.5705 26.5196 94.5705 26.5663 94.6515C26.6129 94.7164 26.6129 94.8298 26.5352 94.8784L25.7575 95.5267C25.7263 95.5429 25.6952 95.5592 25.6641 95.5592Z" fill="#16BCD4"/>
<path d="M26.4418 98.1523C26.4107 98.1523 26.3796 98.1361 26.3485 98.1199L25.6641 97.5526L24.9798 98.1199C24.9175 98.1685 24.8087 98.1685 24.762 98.0875C24.7153 98.0226 24.7153 97.9092 24.7931 97.8605L25.5708 97.2122C25.633 97.1636 25.7108 97.1636 25.7575 97.2122L26.5352 97.8605C26.5974 97.9092 26.6129 98.0226 26.5663 98.0875C26.5352 98.1361 26.4885 98.1523 26.4418 98.1523Z" fill="#16BCD4"/>
<path d="M24.1087 97.3421C24.0776 97.3421 24.0465 97.3259 24.0154 97.3097C23.9532 97.2611 23.9376 97.1477 23.9843 97.0828L24.5287 96.3697L23.9843 95.6566C23.9376 95.5917 23.9376 95.4783 24.0154 95.4297C24.0776 95.381 24.1865 95.381 24.2332 95.4621L24.8553 96.2725C24.902 96.3373 24.902 96.4183 24.8553 96.4669L24.2332 97.2773C24.2021 97.3259 24.1554 97.3421 24.1087 97.3421Z" fill="#16BCD4"/>
<path d="M27.2196 97.3426C27.1729 97.3426 27.1263 97.3264 27.0951 97.2778L26.473 96.4674C26.4263 96.4026 26.4263 96.3215 26.473 96.2729L27.0951 95.4625C27.1418 95.3977 27.2507 95.3815 27.3129 95.4301C27.3751 95.4787 27.3907 95.5922 27.344 95.657L26.7996 96.3702L27.344 97.0833C27.3907 97.1481 27.3907 97.2616 27.3129 97.3102C27.2818 97.3264 27.2507 97.3426 27.2196 97.3426Z" fill="#16BCD4"/>
<path d="M17.576 92.7065H15.554V90.5996C15.554 90.5023 15.4918 90.4375 15.3985 90.4375C15.3051 90.4375 15.2429 90.5023 15.2429 90.5996V92.7065H13.2209C13.1276 92.7065 13.0654 92.7714 13.0654 92.8686C13.0654 92.9659 13.1276 93.0307 13.2209 93.0307H15.2429V95.1377C15.2429 95.2349 15.3051 95.2997 15.3985 95.2997C15.4918 95.2997 15.554 95.2349 15.554 95.1377V93.0307H17.576C17.6694 93.0307 17.7316 92.9659 17.7316 92.8686C17.7316 92.7714 17.6694 92.7065 17.576 92.7065Z" fill="#2197F3"/>
<path d="M15.3985 92.0577C15.3674 92.0577 15.3363 92.0415 15.3052 92.0253L14.5275 91.377C14.4653 91.3284 14.4497 91.2149 14.4964 91.1501C14.543 91.0852 14.6519 91.069 14.7141 91.1177L15.3985 91.6849L16.0829 91.1177C16.1451 91.069 16.254 91.069 16.3006 91.1501C16.3473 91.2149 16.3473 91.3284 16.2695 91.377L15.4918 92.0253C15.4607 92.0415 15.4296 92.0577 15.3985 92.0577Z" fill="#16BCD4"/>
<path d="M16.1762 94.6508C16.1451 94.6508 16.114 94.6346 16.0829 94.6184L15.3985 94.0511L14.7141 94.6184C14.6519 94.667 14.543 94.667 14.4964 94.586C14.4497 94.5212 14.4497 94.4077 14.5275 94.3591L15.3052 93.7108C15.3674 93.6622 15.4452 93.6622 15.4918 93.7108L16.2695 94.3591C16.3318 94.4077 16.3473 94.5212 16.3007 94.586C16.2695 94.6346 16.2229 94.6508 16.1762 94.6508Z" fill="#16BCD4"/>
<path d="M13.8431 93.8417C13.812 93.8417 13.7809 93.8255 13.7498 93.8092C13.6876 93.7606 13.672 93.6472 13.7187 93.5823L14.2631 92.8692L13.7187 92.1561C13.672 92.0913 13.672 91.9778 13.7498 91.9292C13.812 91.8806 13.9209 91.8806 13.9675 91.9616L14.5897 92.772C14.6364 92.8368 14.6364 92.9178 14.5897 92.9665L13.9675 93.7768C13.9364 93.8255 13.8898 93.8417 13.8431 93.8417Z" fill="#16BCD4"/>
<path d="M16.9539 93.8411C16.9072 93.8411 16.8606 93.8249 16.8295 93.7763L16.2073 92.9659C16.1606 92.9011 16.1606 92.8201 16.2073 92.7714L16.8295 91.9611C16.8761 91.8962 16.985 91.88 17.0472 91.9287C17.1094 91.9773 17.125 92.0907 17.0783 92.1556L16.5339 92.8687L17.0783 93.5818C17.125 93.6467 17.125 93.7601 17.0472 93.8087C17.0161 93.8249 16.985 93.8411 16.9539 93.8411Z" fill="#16BCD4"/>
<path d="M35.121 111.183H33.099V109.076C33.099 108.979 33.0368 108.914 32.9435 108.914C32.8501 108.914 32.7879 108.979 32.7879 109.076V111.183H30.7659C30.6726 111.183 30.6104 111.248 30.6104 111.345C30.6104 111.442 30.6726 111.507 30.7659 111.507H32.7879V113.614C32.7879 113.711 32.8501 113.776 32.9435 113.776C33.0368 113.776 33.099 113.711 33.099 113.614V111.507H35.121C35.2143 111.507 35.2766 111.442 35.2766 111.345C35.2766 111.248 35.2143 111.183 35.121 111.183Z" fill="#2197F3"/>
<path d="M32.9434 110.535C32.9123 110.535 32.8812 110.519 32.8501 110.503L32.0724 109.855C32.0102 109.806 31.9946 109.692 32.0413 109.628C32.088 109.563 32.1968 109.547 32.259 109.595L32.9434 110.162L33.6278 109.595C33.69 109.547 33.7989 109.547 33.8456 109.628C33.8922 109.692 33.8922 109.806 33.8145 109.855L33.0367 110.503C33.0056 110.519 32.9745 110.535 32.9434 110.535Z" fill="#16BCD4"/>
<path d="M33.7211 113.128C33.69 113.128 33.6589 113.112 33.6278 113.096L32.9434 112.529L32.2591 113.096C32.1968 113.145 32.088 113.145 32.0413 113.064C31.9946 112.999 31.9946 112.885 32.0724 112.837L32.8501 112.188C32.9123 112.14 32.9901 112.14 33.0368 112.188L33.8145 112.837C33.8767 112.885 33.8922 112.999 33.8456 113.064C33.8145 113.112 33.7678 113.128 33.7211 113.128Z" fill="#16BCD4"/>
<path d="M31.388 112.318C31.3569 112.318 31.3258 112.302 31.2947 112.286C31.2325 112.237 31.2169 112.124 31.2636 112.059L31.808 111.346L31.2636 110.633C31.2169 110.568 31.2169 110.454 31.2947 110.406C31.3569 110.357 31.4658 110.357 31.5125 110.438L32.1346 111.249C32.1813 111.313 32.1813 111.394 32.1346 111.443L31.5125 112.253C31.4814 112.302 31.4347 112.318 31.388 112.318Z" fill="#16BCD4"/>
<path d="M34.4988 112.318C34.4522 112.318 34.4055 112.301 34.3744 112.253L33.7522 111.443C33.7056 111.378 33.7056 111.297 33.7522 111.248L34.3744 110.438C34.421 110.373 34.5299 110.357 34.5921 110.405C34.6544 110.454 34.6699 110.567 34.6232 110.632L34.0789 111.345L34.6232 112.058C34.6699 112.123 34.6699 112.237 34.5921 112.285C34.561 112.301 34.5299 112.318 34.4988 112.318Z" fill="#16BCD4"/>
<path d="M68.1578 96.207H66.1357V94.1001C66.1357 94.0028 66.0735 93.938 65.9802 93.938C65.8869 93.938 65.8247 94.0028 65.8247 94.1001V96.207H63.8026C63.7093 96.207 63.6471 96.2719 63.6471 96.3691C63.6471 96.4664 63.7093 96.5312 63.8026 96.5312H65.8247V98.6382C65.8247 98.7354 65.8869 98.8002 65.9802 98.8002C66.0735 98.8002 66.1357 98.7354 66.1357 98.6382V96.5312H68.1578C68.2511 96.5312 68.3133 96.4664 68.3133 96.3691C68.3133 96.2719 68.2511 96.207 68.1578 96.207Z" fill="#2197F3"/>
<path d="M65.9802 95.5592C65.9491 95.5592 65.918 95.5429 65.8869 95.5267L65.1092 94.8784C65.047 94.8298 65.0314 94.7164 65.0781 94.6515C65.1248 94.5867 65.2336 94.5705 65.2959 94.6191L65.9802 95.1864L66.6646 94.6191C66.7268 94.5705 66.8357 94.5705 66.8824 94.6515C66.929 94.7164 66.929 94.8298 66.8513 94.8784L66.0736 95.5267C66.0424 95.5429 66.0113 95.5592 65.9802 95.5592Z" fill="#16BCD4"/>
<path d="M66.7579 98.1523C66.7268 98.1523 66.6957 98.1361 66.6646 98.1199L65.9802 97.5526L65.2959 98.1199C65.2337 98.1685 65.1248 98.1685 65.0781 98.0875C65.0314 98.0226 65.0314 97.9092 65.1092 97.8605L65.8869 97.2122C65.9491 97.1636 66.0269 97.1636 66.0736 97.2122L66.8513 97.8605C66.9135 97.9092 66.929 98.0226 66.8824 98.0875C66.8513 98.1361 66.8046 98.1523 66.7579 98.1523Z" fill="#16BCD4"/>
<path d="M64.4248 97.3421C64.3937 97.3421 64.3626 97.3259 64.3315 97.3097C64.2693 97.2611 64.2537 97.1477 64.3004 97.0828L64.8448 96.3697L64.3004 95.6566C64.2537 95.5917 64.2537 95.4783 64.3315 95.4297C64.3937 95.381 64.5026 95.381 64.5493 95.4621L65.1714 96.2725C65.2181 96.3373 65.2181 96.4183 65.1714 96.4669L64.5493 97.2773C64.5182 97.3259 64.4715 97.3421 64.4248 97.3421Z" fill="#16BCD4"/>
<path d="M67.5356 97.3426C67.489 97.3426 67.4423 97.3264 67.4112 97.2778L66.789 96.4674C66.7424 96.4026 66.7424 96.3215 66.789 96.2729L67.4112 95.4625C67.4578 95.3977 67.5667 95.3815 67.6289 95.4301C67.6912 95.4787 67.7067 95.5922 67.6601 95.657L67.1157 96.3702L67.6601 97.0833C67.7067 97.1481 67.7067 97.2616 67.6289 97.3102C67.5978 97.3264 67.5667 97.3426 67.5356 97.3426Z" fill="#16BCD4"/>
<path d="M96.715 79.6753H94.693V77.5683C94.693 77.4711 94.6308 77.4062 94.5375 77.4062C94.4441 77.4062 94.3819 77.4711 94.3819 77.5683V79.6753H92.3599C92.2666 79.6753 92.2043 79.7401 92.2043 79.8374C92.2043 79.9346 92.2666 79.9994 92.3599 79.9994H94.3819V82.1064C94.3819 82.2037 94.4441 82.2685 94.5375 82.2685C94.6308 82.2685 94.693 82.2037 94.693 82.1064V79.9994H96.715C96.8083 79.9994 96.8706 79.9346 96.8706 79.8374C96.8706 79.7401 96.8083 79.6753 96.715 79.6753Z" fill="#2197F3"/>
<path d="M94.5374 79.0279C94.5063 79.0279 94.4752 79.0117 94.4441 78.9955L93.6664 78.3472C93.6042 78.2986 93.5886 78.1851 93.6353 78.1203C93.6819 78.0555 93.7908 78.0392 93.853 78.0879L94.5374 78.6551L95.2218 78.0879C95.284 78.0392 95.3929 78.0392 95.4396 78.1203C95.4862 78.1851 95.4862 78.2986 95.4084 78.3472L94.6307 78.9955C94.5996 79.0117 94.5685 79.0279 94.5374 79.0279Z" fill="#16BCD4"/>
<path d="M95.3151 81.621C95.284 81.621 95.2529 81.6048 95.2218 81.5886L94.5374 81.0214L93.8531 81.5886C93.7908 81.6372 93.682 81.6372 93.6353 81.5562C93.5886 81.4914 93.5886 81.3779 93.6664 81.3293L94.4441 80.681C94.5063 80.6324 94.5841 80.6324 94.6308 80.681L95.4085 81.3293C95.4707 81.3779 95.4862 81.4914 95.4396 81.5562C95.4085 81.6048 95.3618 81.621 95.3151 81.621Z" fill="#16BCD4"/>
<path d="M92.982 80.8104C92.9509 80.8104 92.9198 80.7942 92.8887 80.778C92.8265 80.7294 92.8109 80.6159 92.8576 80.5511L93.402 79.838L92.8576 79.1248C92.8109 79.06 92.8109 78.9466 92.8887 78.8979C92.9509 78.8493 93.0598 78.8493 93.1065 78.9303L93.7286 79.7407C93.7753 79.8055 93.7753 79.8866 93.7286 79.9352L93.1065 80.7456C93.0753 80.7942 93.0287 80.8104 92.982 80.8104Z" fill="#16BCD4"/>
<path d="M96.0928 80.8104C96.0461 80.8104 95.9995 80.7942 95.9684 80.7456L95.3462 79.9352C95.2996 79.8703 95.2996 79.7893 95.3462 79.7407L95.9684 78.9303C96.015 78.8655 96.1239 78.8493 96.1861 78.8979C96.2483 78.9465 96.2639 79.06 96.2172 79.1248L95.6728 79.8379L96.2172 80.5511C96.2639 80.6159 96.2639 80.7293 96.1861 80.778C96.155 80.7942 96.1239 80.8104 96.0928 80.8104Z" fill="#16BCD4"/>
<path d="M113.887 68.9785H111.865V66.8715C111.865 66.7743 111.802 66.7095 111.709 66.7095C111.616 66.7095 111.554 66.7743 111.554 66.8715V68.9785H109.532C109.438 68.9785 109.376 69.0433 109.376 69.1406C109.376 69.2378 109.438 69.3027 109.532 69.3027H111.554V71.4096C111.554 71.5069 111.616 71.5717 111.709 71.5717C111.802 71.5717 111.865 71.5069 111.865 71.4096V69.3027H113.887C113.98 69.3027 114.042 69.2378 114.042 69.1406C114.042 69.0433 113.98 68.9785 113.887 68.9785Z" fill="#2197F3"/>
<path d="M111.709 68.3306C111.678 68.3306 111.647 68.3144 111.616 68.2982L110.838 67.6499C110.776 67.6013 110.76 67.4878 110.807 67.423C110.854 67.3582 110.963 67.342 111.025 67.3906L111.709 67.9579L112.393 67.3906C112.456 67.342 112.565 67.342 112.611 67.423C112.658 67.4878 112.658 67.6013 112.58 67.6499L111.802 68.2982C111.771 68.3144 111.74 68.3306 111.709 68.3306Z" fill="#16BCD4"/>
<path d="M112.487 70.9238C112.456 70.9238 112.425 70.9076 112.393 70.8913L111.709 70.3241L111.025 70.8913C110.962 70.94 110.854 70.94 110.807 70.8589C110.76 70.7941 110.76 70.6807 110.838 70.632L111.616 69.9837C111.678 69.9351 111.756 69.9351 111.802 69.9837L112.58 70.632C112.642 70.6807 112.658 70.7941 112.611 70.8589C112.58 70.9076 112.533 70.9238 112.487 70.9238Z" fill="#16BCD4"/>
<path d="M110.154 70.1136C110.123 70.1136 110.091 70.0974 110.06 70.0812C109.998 70.0326 109.983 69.9191 110.029 69.8543L110.574 69.1412L110.029 68.4281C109.983 68.3632 109.983 68.2498 110.06 68.2012C110.123 68.1525 110.231 68.1525 110.278 68.2336L110.9 69.0439C110.947 69.1088 110.947 69.1898 110.9 69.2384L110.278 70.0488C110.247 70.0974 110.2 70.1136 110.154 70.1136Z" fill="#16BCD4"/>
<path d="M113.264 70.1141C113.218 70.1141 113.171 70.0979 113.14 70.0493L112.518 69.2389C112.471 69.1741 112.471 69.093 112.518 69.0444L113.14 68.234C113.187 68.1692 113.296 68.153 113.358 68.2016C113.42 68.2502 113.436 68.3637 113.389 68.4285L112.844 69.1416L113.389 69.8548C113.436 69.9196 113.436 70.0331 113.358 70.0817C113.327 70.0979 113.296 70.1141 113.264 70.1141Z" fill="#16BCD4"/>
<path d="M133.858 59.4487H131.836V57.3418C131.836 57.2445 131.774 57.1797 131.68 57.1797C131.587 57.1797 131.525 57.2445 131.525 57.3418V59.4487H129.503C129.41 59.4487 129.347 59.5136 129.347 59.6108C129.347 59.7081 129.41 59.7729 129.503 59.7729H131.525V61.8798C131.525 61.9771 131.587 62.0419 131.68 62.0419C131.774 62.0419 131.836 61.9771 131.836 61.8798V59.7729H133.858C133.951 59.7729 134.014 59.7081 134.014 59.6108C134.014 59.5136 133.951 59.4487 133.858 59.4487Z" fill="#2197F3"/>
<path d="M131.68 58.7999C131.649 58.7999 131.618 58.7837 131.587 58.7675L130.809 58.1192C130.747 58.0705 130.732 57.9571 130.778 57.8923C130.825 57.8274 130.934 57.8112 130.996 57.8598L131.68 58.4271L132.365 57.8598C132.427 57.8112 132.536 57.8112 132.583 57.8923C132.629 57.9571 132.629 58.0705 132.552 58.1192L131.774 58.7675C131.743 58.7837 131.712 58.7999 131.68 58.7999Z" fill="#16BCD4"/>
<path d="M132.458 61.3945C132.427 61.3945 132.396 61.3783 132.365 61.3621L131.68 60.7948L130.996 61.3621C130.934 61.4107 130.825 61.4107 130.778 61.3296C130.732 61.2648 130.732 61.1514 130.809 61.1027L131.587 60.4544C131.649 60.4058 131.727 60.4058 131.774 60.4544L132.551 61.1027C132.614 61.1514 132.629 61.2648 132.583 61.3296C132.551 61.3783 132.505 61.3945 132.458 61.3945Z" fill="#16BCD4"/>
<path d="M130.125 60.5838C130.094 60.5838 130.063 60.5676 130.032 60.5514C129.969 60.5028 129.954 60.3894 130.001 60.3245L130.545 59.6114L130.001 58.8983C129.954 58.8334 129.954 58.72 130.032 58.6714C130.094 58.6227 130.203 58.6227 130.249 58.7038L130.872 59.5142C130.918 59.579 130.918 59.66 130.872 59.7086L130.249 60.519C130.218 60.5676 130.172 60.5838 130.125 60.5838Z" fill="#16BCD4"/>
<path d="M133.236 60.5838C133.189 60.5838 133.142 60.5676 133.111 60.519L132.489 59.7086C132.443 59.6438 132.443 59.5627 132.489 59.5141L133.111 58.7038C133.158 58.6389 133.267 58.6227 133.329 58.6713C133.391 58.72 133.407 58.8334 133.36 58.8982L132.816 59.6114L133.36 60.3245C133.407 60.3893 133.407 60.5028 133.329 60.5514C133.298 60.5676 133.267 60.5838 133.236 60.5838Z" fill="#16BCD4"/>
<path d="M127.139 85.3159H125.117V83.2089C125.117 83.1117 125.054 83.0469 124.961 83.0469C124.868 83.0469 124.806 83.1117 124.806 83.2089V85.3159H122.784C122.69 85.3159 122.628 85.3807 122.628 85.478C122.628 85.5752 122.69 85.6401 122.784 85.6401H124.806V87.747C124.806 87.8443 124.868 87.9091 124.961 87.9091C125.054 87.9091 125.117 87.8443 125.117 87.747V85.6401H127.139C127.232 85.6401 127.294 85.5752 127.294 85.478C127.294 85.3807 127.232 85.3159 127.139 85.3159Z" fill="#2197F3"/>
<path d="M124.961 84.668C124.93 84.668 124.899 84.6518 124.868 84.6356L124.09 83.9873C124.028 83.9387 124.012 83.8253 124.059 83.7604C124.106 83.6956 124.215 83.6794 124.277 83.728L124.961 84.2953L125.646 83.728C125.708 83.6794 125.817 83.6794 125.863 83.7604C125.91 83.8253 125.91 83.9387 125.832 83.9873L125.054 84.6356C125.023 84.6518 124.992 84.668 124.961 84.668Z" fill="#16BCD4"/>
<path d="M125.739 87.2612C125.708 87.2612 125.677 87.245 125.645 87.2288L124.961 86.6615L124.277 87.2288C124.214 87.2774 124.106 87.2774 124.059 87.1963C124.012 87.1315 124.012 87.0181 124.09 86.9694L124.868 86.3211C124.93 86.2725 125.008 86.2725 125.054 86.3211L125.832 86.9694C125.894 87.0181 125.91 87.1315 125.863 87.1963C125.832 87.245 125.785 87.2612 125.739 87.2612Z" fill="#16BCD4"/>
<path d="M123.406 86.4501C123.375 86.4501 123.344 86.4338 123.312 86.4176C123.25 86.369 123.235 86.2556 123.281 86.1907L123.826 85.4776L123.281 84.7645C123.235 84.6997 123.235 84.5862 123.312 84.5376C123.375 84.489 123.483 84.489 123.53 84.57L124.152 85.3804C124.199 85.4452 124.199 85.5262 124.152 85.5749L123.53 86.3852C123.499 86.4338 123.452 86.4501 123.406 86.4501Z" fill="#16BCD4"/>
<path d="M126.517 86.4505C126.47 86.4505 126.423 86.4343 126.392 86.3857L125.77 85.5753C125.723 85.5105 125.723 85.4294 125.77 85.3808L126.392 84.5705C126.439 84.5056 126.548 84.4894 126.61 84.538C126.672 84.5867 126.688 84.7001 126.641 84.7649L126.097 85.4781L126.641 86.1912C126.688 86.256 126.688 86.3695 126.61 86.4181C126.579 86.4343 126.548 86.4505 126.517 86.4505Z" fill="#16BCD4"/>
<path d="M141.137 96.7905H139.115V94.6836C139.115 94.5863 139.053 94.5215 138.96 94.5215C138.866 94.5215 138.804 94.5863 138.804 94.6836V96.7905H136.782C136.689 96.7905 136.627 96.8554 136.627 96.9526C136.627 97.0498 136.689 97.1147 136.782 97.1147H138.804V99.2216C138.804 99.3189 138.866 99.3837 138.96 99.3837C139.053 99.3837 139.115 99.3189 139.115 99.2216V97.1147H141.137C141.231 97.1147 141.293 97.0498 141.293 96.9526C141.293 96.8554 141.231 96.7905 141.137 96.7905Z" fill="#2197F3"/>
<path d="M138.96 96.1431C138.929 96.1431 138.898 96.1269 138.866 96.1107L138.089 95.4624C138.027 95.4138 138.011 95.3003 138.058 95.2355C138.104 95.1707 138.213 95.1545 138.275 95.2031L138.96 95.7704L139.644 95.2031C139.706 95.1545 139.815 95.1545 139.862 95.2355C139.909 95.3003 139.909 95.4138 139.831 95.4624L139.053 96.1107C139.022 96.1269 138.991 96.1431 138.96 96.1431Z" fill="#16BCD4"/>
<path d="M139.737 98.7363C139.706 98.7363 139.675 98.7201 139.644 98.7038L138.96 98.1366L138.275 98.7038C138.213 98.7525 138.104 98.7525 138.058 98.6714C138.011 98.6066 138.011 98.4932 138.089 98.4445L138.866 97.7962C138.929 97.7476 139.006 97.7476 139.053 97.7962L139.831 98.4445C139.893 98.4932 139.909 98.6066 139.862 98.6714C139.831 98.7201 139.784 98.7363 139.737 98.7363Z" fill="#16BCD4"/>
<path d="M137.404 97.9256C137.373 97.9256 137.342 97.9094 137.311 97.8932C137.249 97.8446 137.233 97.7312 137.28 97.6663L137.824 96.9532L137.28 96.2401C137.233 96.1752 137.233 96.0618 137.311 96.0132C137.373 95.9645 137.482 95.9645 137.529 96.0456L138.151 96.856C138.198 96.9208 138.198 97.0018 138.151 97.0504L137.529 97.8608C137.498 97.9094 137.451 97.9256 137.404 97.9256Z" fill="#16BCD4"/>
<path d="M140.515 97.9256C140.468 97.9256 140.422 97.9094 140.391 97.8608L139.769 97.0504C139.722 96.9856 139.722 96.9045 139.769 96.8559L140.391 96.0455C140.437 95.9807 140.546 95.9645 140.608 96.0131C140.671 96.0618 140.686 96.1752 140.64 96.24L140.095 96.9532L140.64 97.6663C140.686 97.7311 140.686 97.8446 140.608 97.8932C140.577 97.9094 140.546 97.9256 140.515 97.9256Z" fill="#16BCD4"/>
<path d="M128.445 69.562H126.423V67.455C126.423 67.3578 126.361 67.293 126.268 67.293C126.174 67.293 126.112 67.3578 126.112 67.455V69.562H124.09C123.997 69.562 123.935 69.6268 123.935 69.7241C123.935 69.8213 123.997 69.8862 124.09 69.8862H126.112V71.9931C126.112 72.0904 126.174 72.1552 126.268 72.1552C126.361 72.1552 126.423 72.0904 126.423 71.9931V69.8862H128.445C128.539 69.8862 128.601 69.8213 128.601 69.7241C128.601 69.6268 128.539 69.562 128.445 69.562Z" fill="#2197F3"/>
<path d="M126.268 68.9146C126.237 68.9146 126.205 68.8984 126.174 68.8822L125.397 68.2339C125.334 68.1853 125.319 68.0718 125.366 68.007C125.412 67.9422 125.521 67.926 125.583 67.9746L126.268 68.5418L126.952 67.9746C127.014 67.926 127.123 67.926 127.17 68.007C127.216 68.0718 127.216 68.1853 127.139 68.2339L126.361 68.8822C126.33 68.8984 126.299 68.9146 126.268 68.9146Z" fill="#16BCD4"/>
<path d="M127.045 71.5077C127.014 71.5077 126.983 71.4915 126.952 71.4753L126.268 70.9081L125.583 71.4753C125.521 71.524 125.412 71.524 125.366 71.4429C125.319 71.3781 125.319 71.2646 125.397 71.216L126.174 70.5677C126.237 70.5191 126.314 70.5191 126.361 70.5677L127.139 71.216C127.201 71.2646 127.216 71.3781 127.17 71.4429C127.139 71.4915 127.092 71.5077 127.045 71.5077Z" fill="#16BCD4"/>
<path d="M124.712 70.6971C124.681 70.6971 124.65 70.6809 124.619 70.6647C124.557 70.6161 124.541 70.5026 124.588 70.4378L125.132 69.7247L124.588 69.0116C124.541 68.9467 124.541 68.8333 124.619 68.7846C124.681 68.736 124.79 68.736 124.837 68.8171L125.459 69.6274C125.506 69.6923 125.506 69.7733 125.459 69.8219L124.837 70.6323C124.806 70.6809 124.759 70.6971 124.712 70.6971Z" fill="#16BCD4"/>
<path d="M127.823 70.6971C127.776 70.6971 127.73 70.6809 127.699 70.6323L127.076 69.8219C127.03 69.7571 127.03 69.676 127.076 69.6274L127.699 68.817C127.745 68.7522 127.854 68.736 127.916 68.7846C127.979 68.8332 127.994 68.9467 127.947 69.0115L127.403 69.7247L127.947 70.4378C127.994 70.5026 127.994 70.6161 127.916 70.6647C127.885 70.6809 127.854 70.6971 127.823 70.6971Z" fill="#16BCD4"/>
<path d="M112.393 58.8652H110.371V56.7583C110.371 56.661 110.309 56.5962 110.216 56.5962C110.123 56.5962 110.06 56.661 110.06 56.7583V58.8652H108.038C107.945 58.8652 107.883 58.9301 107.883 59.0273C107.883 59.1246 107.945 59.1894 108.038 59.1894H110.06V61.2964C110.06 61.3936 110.123 61.4584 110.216 61.4584C110.309 61.4584 110.371 61.3936 110.371 61.2964V59.1894H112.393C112.487 59.1894 112.549 59.1246 112.549 59.0273C112.549 58.9301 112.487 58.8652 112.393 58.8652Z" fill="#2197F3"/>
<path d="M110.216 58.2169C110.185 58.2169 110.154 58.2007 110.123 58.1845L109.345 57.5362C109.283 57.4875 109.267 57.3741 109.314 57.3093C109.36 57.2444 109.469 57.2282 109.532 57.2768L110.216 57.8441L110.9 57.2768C110.962 57.2282 111.071 57.2282 111.118 57.3093C111.165 57.3741 111.165 57.4875 111.087 57.5362L110.309 58.1845C110.278 58.2007 110.247 58.2169 110.216 58.2169Z" fill="#16BCD4"/>
<path d="M110.994 60.81C110.962 60.81 110.931 60.7938 110.9 60.7776L110.216 60.2103L109.532 60.7776C109.469 60.8262 109.36 60.8262 109.314 60.7452C109.267 60.6803 109.267 60.5669 109.345 60.5183L110.123 59.87C110.185 59.8213 110.263 59.8213 110.309 59.87L111.087 60.5183C111.149 60.5669 111.165 60.6803 111.118 60.7452C111.087 60.7938 111.04 60.81 110.994 60.81Z" fill="#16BCD4"/>
<path d="M108.66 60.0003C108.629 60.0003 108.598 59.9841 108.567 59.9679C108.505 59.9193 108.489 59.8059 108.536 59.741L109.08 59.0279L108.536 58.3148C108.489 58.2499 108.489 58.1365 108.567 58.0879C108.629 58.0392 108.738 58.0392 108.785 58.1203L109.407 58.9307C109.454 58.9955 109.454 59.0765 109.407 59.1251L108.785 59.9355C108.754 59.9841 108.707 60.0003 108.66 60.0003Z" fill="#16BCD4"/>
<path d="M111.771 59.9993C111.725 59.9993 111.678 59.9831 111.647 59.9345L111.025 59.1241C110.978 59.0593 110.978 58.9783 111.025 58.9297L111.647 58.1193C111.694 58.0545 111.802 58.0382 111.865 58.0869C111.927 58.1355 111.942 58.2489 111.896 58.3138L111.351 59.0269L111.896 59.74C111.942 59.8049 111.942 59.9183 111.865 59.9669C111.833 59.9831 111.802 59.9993 111.771 59.9993Z" fill="#16BCD4"/>
<path fill-rule="evenodd" clip-rule="evenodd" d="M13.392 63.3817C5.99375 63.3817 0 57.1362 0 49.4271C0 41.8031 5.86309 35.6086 13.1634 35.4725C14.029 21.8412 24.9059 11.0859 38.1836 11.0859C48.9135 11.0859 58.0757 18.0973 61.6523 27.9676C62.6649 27.7804 63.6938 27.6783 64.739 27.6783C73.4438 27.6783 80.6461 34.4514 81.724 43.2156C87.0645 43.2156 91.3924 47.7423 91.3924 53.2902C91.3924 58.7869 87.1951 63.2456 81.969 63.3817C59.1045 63.7051 36.2565 63.3817 13.392 63.3817Z" fill="#475158"/>
<path fill-rule="evenodd" clip-rule="evenodd" d="M71.9996 52.2958C64.6014 52.2958 58.6076 46.0502 58.6076 38.3412C58.6076 30.7172 64.4707 24.5227 71.771 24.3865C72.6366 10.7553 83.5135 0 96.7912 0C107.521 0 116.683 7.01134 120.26 16.8817C121.272 16.6945 122.301 16.5924 123.347 16.5924C132.051 16.5924 139.254 23.3655 140.332 32.1297C145.672 32.1297 150 36.6564 150 42.2042C150 47.701 145.803 52.1596 140.577 52.2958C117.712 52.6191 94.8641 52.2958 71.9996 52.2958Z" fill="#475158"/>
</svg>
