<svg width="130" height="130" viewBox="0 0 130 130" fill="none" xmlns="http://www.w3.org/2000/svg">
<path fill-rule="evenodd" clip-rule="evenodd" d="M19.0493 76.4275C8.52573 76.4275 0 67.3 0 56.0336C0 44.8915 8.33988 35.8386 18.7241 35.6397C19.9553 15.7183 35.4271 0 54.3138 0C69.5765 0 82.609 10.2467 87.6966 24.6717C89.1369 24.3981 90.6004 24.2489 92.0872 24.2489C104.469 24.2489 114.714 34.1474 116.247 46.9558C123.844 46.9558 130 53.5714 130 61.6792C130 69.7125 124.03 76.2286 116.596 76.4275C84.0725 76.9001 51.5726 76.4275 19.0493 76.4275Z" fill="#757677"/>
<ellipse cx="110.633" cy="86.0046" rx="2.12245" ry="2.27074" fill="#D9D9D9"/>
<ellipse cx="89.6735" cy="95.3713" rx="2.12245" ry="2.27074" fill="#D9D9D9"/>
<ellipse cx="61.0204" cy="87.7073" rx="2.12245" ry="2.27074" fill="#D9D9D9"/>
<ellipse cx="37.6734" cy="98.7774" rx="2.65306" ry="2.83843" fill="#D9D9D9"/>
<ellipse cx="28.3878" cy="87.4239" rx="2.65306" ry="2.83843" fill="#D9D9D9"/>
<ellipse cx="32.3673" cy="115.524" rx="2.65306" ry="2.83843" fill="#D9D9D9"/>
<ellipse cx="56.2449" cy="107.293" rx="2.65306" ry="2.83843" fill="#D9D9D9"/>
<ellipse cx="65.2653" cy="123.755" rx="2.12245" ry="2.27074" fill="#D9D9D9"/>
<ellipse cx="42.9796" cy="127.161" rx="2.65306" ry="2.83843" fill="#D9D9D9"/>
<ellipse cx="43.7755" cy="109.563" rx="2.12245" ry="2.27074" fill="#D9D9D9"/>
<ellipse cx="75.3469" cy="108.144" rx="2.65306" ry="2.83843" fill="#D9D9D9"/>
<ellipse cx="89.4082" cy="126.31" rx="2.65306" ry="2.83843" fill="#D9D9D9"/>
<ellipse cx="96.0408" cy="109.28" rx="2.12245" ry="2.27074" fill="#D9D9D9"/>
<ellipse cx="102.939" cy="96.7906" rx="2.65306" ry="2.83843" fill="#D9D9D9"/>
<ellipse cx="108.245" cy="119.498" rx="2.65306" ry="2.83843" fill="#D9D9D9"/>
<ellipse cx="80.6531" cy="85.4371" rx="2.65306" ry="2.83843" fill="#D9D9D9"/>
<ellipse cx="71.102" cy="96.7906" rx="2.65306" ry="2.83843" fill="#D9D9D9"/>
<ellipse cx="48.2858" cy="90.2618" rx="2.65306" ry="2.83843" fill="#D9D9D9"/>
<ellipse cx="24.1428" cy="104.738" rx="2.12245" ry="2.27074" fill="#D9D9D9"/>
</svg>
