<svg width="130" height="150" viewBox="0 0 130 150" fill="none" xmlns="http://www.w3.org/2000/svg">
<path d="M24.3902 91.4207H20.4786V87.4459C20.4786 87.2624 20.3582 87.1401 20.1777 87.1401C19.9971 87.1401 19.8768 87.2624 19.8768 87.4459V91.4207H15.9651C15.7846 91.4207 15.6642 91.543 15.6642 91.7265C15.6642 91.9099 15.7846 92.0322 15.9651 92.0322H19.8768V96.007C19.8768 96.1905 19.9971 96.3128 20.1777 96.3128C20.3582 96.3128 20.4786 96.1905 20.4786 96.007V92.0322H24.3902C24.5707 92.0322 24.6911 91.9099 24.6911 91.7265C24.6911 91.543 24.5707 91.4207 24.3902 91.4207Z" fill="#2197F3"/>
<path d="M20.1777 90.1978C20.1175 90.1978 20.0573 90.1672 19.9971 90.1366L18.4927 88.9136C18.3723 88.8219 18.3422 88.6079 18.4325 88.4856C18.5228 88.3633 18.7334 88.3327 18.8537 88.4244L20.1777 89.4946L21.5016 88.4244C21.622 88.3327 21.8326 88.3327 21.9229 88.4856C22.0131 88.6079 22.0131 88.8219 21.8627 88.9136L20.3582 90.1366C20.298 90.1672 20.2379 90.1978 20.1777 90.1978Z" fill="#16BCD4"/>
<path d="M21.6822 95.0897C21.622 95.0897 21.5618 95.0592 21.5016 95.0286L20.1777 93.9584L18.8537 95.0286C18.7334 95.1203 18.5228 95.1203 18.4325 94.9674C18.3422 94.8451 18.3422 94.6311 18.4927 94.5394L19.9971 93.3164C20.1175 93.2246 20.2679 93.2246 20.3582 93.3164L21.8627 94.5394C21.983 94.6311 22.0131 94.8451 21.9229 94.9674C21.8627 95.0592 21.7724 95.0897 21.6822 95.0897Z" fill="#16BCD4"/>
<path d="M17.1687 93.5611C17.1085 93.5611 17.0484 93.5306 16.9882 93.5C16.8678 93.4083 16.8377 93.1942 16.928 93.0719L17.9811 91.7266L16.928 90.3813C16.8377 90.259 16.8377 90.045 16.9882 89.9532C17.1085 89.8615 17.3192 89.8615 17.4094 90.0144L18.613 91.5432C18.7033 91.6655 18.7033 91.8183 18.613 91.9101L17.4094 93.4388C17.3493 93.5306 17.259 93.5611 17.1687 93.5611Z" fill="#16BCD4"/>
<path d="M23.1867 93.5612C23.0964 93.5612 23.0061 93.5306 22.9459 93.4388L21.7424 91.9101C21.6521 91.7878 21.6521 91.6349 21.7424 91.5432L22.9459 90.0144C23.0362 89.8921 23.2468 89.8615 23.3672 89.9532C23.4875 90.045 23.5176 90.259 23.4274 90.3813L22.3742 91.7266L23.4274 93.0719C23.5176 93.1942 23.5176 93.4083 23.3672 93.5C23.307 93.5306 23.2468 93.5612 23.1867 93.5612Z" fill="#16BCD4"/>
<path d="M38.727 103.561H34.8154V99.5865C34.8154 99.4031 34.695 99.2808 34.5145 99.2808C34.3339 99.2808 34.2136 99.4031 34.2136 99.5865V103.561H30.3019C30.1214 103.561 30.001 103.684 30.001 103.867C30.001 104.051 30.1214 104.173 30.3019 104.173H34.2136V108.148C34.2136 108.331 34.3339 108.453 34.5145 108.453C34.695 108.453 34.8154 108.331 34.8154 108.148V104.173H38.727C38.9075 104.173 39.0279 104.051 39.0279 103.867C39.0279 103.684 38.9075 103.561 38.727 103.561Z" fill="#2197F3"/>
<path d="M34.5145 102.338C34.4543 102.338 34.3941 102.307 34.3339 102.277L32.8295 101.054C32.7091 100.962 32.679 100.748 32.7693 100.626C32.8596 100.503 33.0702 100.473 33.1905 100.565L34.5145 101.635L35.8384 100.565C35.9588 100.473 36.1694 100.473 36.2597 100.626C36.3499 100.748 36.3499 100.962 36.1995 101.054L34.695 102.277C34.6348 102.307 34.5747 102.338 34.5145 102.338Z" fill="#16BCD4"/>
<path d="M36.0189 107.23C35.9588 107.23 35.8986 107.2 35.8384 107.169L34.5145 106.099L33.1905 107.169C33.0702 107.261 32.8595 107.261 32.7693 107.108C32.679 106.986 32.679 106.772 32.8295 106.68L34.3339 105.457C34.4543 105.365 34.6047 105.365 34.695 105.457L36.1995 106.68C36.3198 106.772 36.3499 106.986 36.2597 107.108C36.1995 107.2 36.1092 107.23 36.0189 107.23Z" fill="#16BCD4"/>
<path d="M31.5055 105.701C31.4453 105.701 31.3851 105.671 31.325 105.64C31.2046 105.548 31.1745 105.334 31.2648 105.212L32.3179 103.867L31.2648 102.521C31.1745 102.399 31.1745 102.185 31.325 102.093C31.4453 102.002 31.656 102.002 31.7462 102.155L32.9498 103.683C33.0401 103.806 33.0401 103.958 32.9498 104.05L31.7462 105.579C31.686 105.671 31.5958 105.701 31.5055 105.701Z" fill="#16BCD4"/>
<path d="M37.5234 105.701C37.4331 105.701 37.3428 105.671 37.2827 105.579L36.0791 104.05C35.9888 103.928 35.9888 103.775 36.0791 103.683L37.2827 102.155C37.3729 102.032 37.5836 102.002 37.7039 102.093C37.8243 102.185 37.8544 102.399 37.7641 102.521L36.711 103.867L37.7641 105.212C37.8544 105.334 37.8544 105.548 37.7039 105.64C37.6437 105.671 37.5836 105.701 37.5234 105.701Z" fill="#16BCD4"/>
<path d="M46.4264 80.6302H42.5147V76.6554C42.5147 76.4719 42.3944 76.3496 42.2138 76.3496C42.0333 76.3496 41.9129 76.4719 41.9129 76.6554V80.6302H38.0013C37.8208 80.6302 37.7004 80.7525 37.7004 80.9359C37.7004 81.1194 37.8208 81.2417 38.0013 81.2417H41.9129V85.2165C41.9129 85.4 42.0333 85.5223 42.2138 85.5223C42.3944 85.5223 42.5147 85.4 42.5147 85.2165V81.2417H46.4264C46.6069 81.2417 46.7273 81.1194 46.7273 80.9359C46.7273 80.7525 46.6069 80.6302 46.4264 80.6302Z" fill="#2197F3"/>
<path d="M42.2138 79.4063C42.1536 79.4063 42.0935 79.3757 42.0333 79.3451L40.5288 78.1221C40.4084 78.0304 40.3784 77.8164 40.4686 77.6941C40.5589 77.5718 40.7695 77.5412 40.8899 77.6329L42.2138 78.7031L43.5378 77.6329C43.6581 77.5412 43.8687 77.5412 43.959 77.6941C44.0493 77.8164 44.0493 78.0304 43.8988 78.1221L42.3944 79.3451C42.3342 79.3757 42.274 79.4063 42.2138 79.4063Z" fill="#16BCD4"/>
<path d="M43.7183 84.2987C43.6581 84.2987 43.5979 84.2681 43.5377 84.2376L42.2138 83.1674L40.8899 84.2376C40.7695 84.3293 40.5589 84.3293 40.4686 84.1764C40.3783 84.0541 40.3783 83.8401 40.5288 83.7484L42.0333 82.5253C42.1536 82.4336 42.3041 82.4336 42.3943 82.5253L43.8988 83.7484C44.0192 83.8401 44.0493 84.0541 43.959 84.1764C43.8988 84.2681 43.8086 84.2987 43.7183 84.2987Z" fill="#16BCD4"/>
<path d="M39.2049 82.7696C39.1447 82.7696 39.0846 82.7391 39.0244 82.7085C38.904 82.6168 38.8739 82.4027 38.9642 82.2804L40.0173 80.9351L38.9642 79.5898C38.8739 79.4675 38.8739 79.2534 39.0244 79.1617C39.1447 79.07 39.3554 79.07 39.4456 79.2229L40.6492 80.7516C40.7395 80.874 40.7395 81.0268 40.6492 81.1186L39.4456 82.6473C39.3854 82.7391 39.2952 82.7696 39.2049 82.7696Z" fill="#16BCD4"/>
<path d="M45.2228 82.7696C45.1325 82.7696 45.0422 82.7391 44.9821 82.6473L43.7785 81.1186C43.6882 80.9963 43.6882 80.8434 43.7785 80.7517L44.9821 79.2229C45.0723 79.1006 45.283 79.07 45.4033 79.1617C45.5237 79.2535 45.5538 79.4675 45.4635 79.5898L44.4104 80.9351L45.4635 82.2804C45.5538 82.4027 45.5538 82.6168 45.4033 82.7085C45.3431 82.7391 45.283 82.7696 45.2228 82.7696Z" fill="#16BCD4"/>
<path d="M60.4976 93.3094H56.586V89.3346C56.586 89.1511 56.4656 89.0288 56.2851 89.0288C56.1046 89.0288 55.9842 89.1511 55.9842 89.3346V93.3094H52.0726C51.892 93.3094 51.7717 93.4317 51.7717 93.6151C51.7717 93.7986 51.892 93.9209 52.0726 93.9209H55.9842V97.8957C55.9842 98.0792 56.1046 98.2015 56.2851 98.2015C56.4656 98.2015 56.586 98.0792 56.586 97.8957V93.9209H60.4976C60.6782 93.9209 60.7985 93.7986 60.7985 93.6151C60.7985 93.4317 60.6782 93.3094 60.4976 93.3094Z" fill="#2197F3"/>
<path d="M56.2851 92.087C56.2249 92.087 56.1647 92.0564 56.1046 92.0258L54.6001 90.8028C54.4797 90.7111 54.4496 90.497 54.5399 90.3747C54.6302 90.2524 54.8408 90.2218 54.9612 90.3136L56.2851 91.3837L57.609 90.3136C57.7294 90.2218 57.94 90.2218 58.0303 90.3747C58.1206 90.497 58.1206 90.7111 57.9701 90.8028L56.4656 92.0258C56.4055 92.0564 56.3453 92.087 56.2851 92.087Z" fill="#16BCD4"/>
<path d="M57.7896 96.9784C57.7294 96.9784 57.6692 96.9478 57.609 96.9173L56.2851 95.8471L54.9612 96.9173C54.8408 97.009 54.6302 97.009 54.5399 96.8561C54.4496 96.7338 54.4496 96.5198 54.6001 96.428L56.1046 95.205C56.2249 95.1133 56.3754 95.1133 56.4656 95.205L57.9701 96.428C58.0905 96.5198 58.1206 96.7338 58.0303 96.8561C57.9701 96.9478 57.8798 96.9784 57.7896 96.9784Z" fill="#16BCD4"/>
<path d="M53.2761 95.4498C53.216 95.4498 53.1558 95.4192 53.0956 95.3887C52.9752 95.2969 52.9452 95.0829 53.0354 94.9606L54.0886 93.6153L53.0354 92.27C52.9452 92.1477 52.9452 91.9336 53.0956 91.8419C53.216 91.7502 53.4266 91.7502 53.5169 91.903L54.7204 93.4318C54.8107 93.5541 54.8107 93.707 54.7204 93.7987L53.5169 95.3275C53.4567 95.4192 53.3664 95.4498 53.2761 95.4498Z" fill="#16BCD4"/>
<path d="M59.2941 95.4503C59.2038 95.4503 59.1135 95.4197 59.0534 95.328L57.8498 93.7992C57.7595 93.6769 57.7595 93.5241 57.8498 93.4323L59.0534 91.9035C59.1436 91.7812 59.3543 91.7507 59.4746 91.8424C59.595 91.9341 59.6251 92.1482 59.5348 92.2705L58.4817 93.6158L59.5348 94.9611C59.6251 95.0834 59.6251 95.2974 59.4746 95.3892C59.4144 95.4197 59.3543 95.4503 59.2941 95.4503Z" fill="#16BCD4"/>
<path d="M74.5689 145.108H70.6572V141.133C70.6572 140.949 70.5369 140.827 70.3564 140.827C70.1758 140.827 70.0555 140.949 70.0555 141.133V145.108H66.1438C65.9633 145.108 65.8429 145.23 65.8429 145.413C65.8429 145.597 65.9633 145.719 66.1438 145.719H70.0555V149.694C70.0555 149.878 70.1758 150 70.3564 150C70.5369 150 70.6572 149.878 70.6572 149.694V145.719H74.5689C74.7494 145.719 74.8698 145.597 74.8698 145.413C74.8698 145.23 74.7494 145.108 74.5689 145.108Z" fill="#2197F3"/>
<path d="M70.3564 143.885C70.2962 143.885 70.236 143.854 70.1759 143.824L68.6714 142.601C68.551 142.509 68.5209 142.295 68.6112 142.173C68.7015 142.05 68.9121 142.02 69.0325 142.111L70.3564 143.182L71.6803 142.111C71.8007 142.02 72.0113 142.02 72.1016 142.173C72.1919 142.295 72.1919 142.509 72.0414 142.601L70.5369 143.824C70.4768 143.854 70.4166 143.885 70.3564 143.885Z" fill="#16BCD4"/>
<path d="M71.8609 148.777C71.8007 148.777 71.7405 148.746 71.6803 148.716L70.3564 147.645L69.0324 148.716C68.9121 148.807 68.7015 148.807 68.6112 148.654C68.5209 148.532 68.5209 148.318 68.6714 148.226L70.1759 147.003C70.2962 146.912 70.4467 146.912 70.5369 147.003L72.0414 148.226C72.1618 148.318 72.1918 148.532 72.1016 148.654C72.0414 148.746 71.9511 148.777 71.8609 148.777Z" fill="#16BCD4"/>
<path d="M67.3474 147.248C67.2872 147.248 67.2271 147.218 67.1669 147.187C67.0465 147.095 67.0164 146.881 67.1067 146.759L68.1598 145.414L67.1067 144.068C67.0164 143.946 67.0164 143.732 67.1669 143.64C67.2872 143.549 67.4979 143.549 67.5881 143.701L68.7917 145.23C68.882 145.352 68.882 145.505 68.7917 145.597L67.5881 147.126C67.528 147.218 67.4377 147.248 67.3474 147.248Z" fill="#16BCD4"/>
<path d="M73.3653 147.248C73.275 147.248 73.1848 147.218 73.1246 147.126L71.921 145.597C71.8307 145.475 71.8307 145.322 71.921 145.23L73.1246 143.701C73.2149 143.579 73.4255 143.549 73.5458 143.64C73.6662 143.732 73.6963 143.946 73.606 144.068L72.5529 145.414L73.606 146.759C73.6963 146.881 73.6963 147.095 73.5458 147.187C73.4857 147.218 73.4255 147.248 73.3653 147.248Z" fill="#16BCD4"/>
<path d="M57.5772 125.683H53.6656V121.709C53.6656 121.525 53.5452 121.403 53.3647 121.403C53.1841 121.403 53.0638 121.525 53.0638 121.709V125.683H49.1521C48.9716 125.683 48.8512 125.806 48.8512 125.989C48.8512 126.173 48.9716 126.295 49.1521 126.295H53.0638V130.27C53.0638 130.453 53.1841 130.575 53.3647 130.575C53.5452 130.575 53.6656 130.453 53.6656 130.27V126.295H57.5772C57.7577 126.295 57.8781 126.173 57.8781 125.989C57.8781 125.806 57.7577 125.683 57.5772 125.683Z" fill="#2197F3"/>
<path d="M53.3646 124.46C53.3045 124.46 53.2443 124.43 53.1841 124.399L51.6796 123.176C51.5593 123.085 51.5292 122.871 51.6194 122.748C51.7097 122.626 51.9203 122.595 52.0407 122.687L53.3646 123.757L54.6886 122.687C54.8089 122.595 55.0196 122.595 55.1098 122.748C55.2001 122.871 55.2001 123.085 55.0496 123.176L53.5452 124.399C53.485 124.43 53.4248 124.46 53.3646 124.46Z" fill="#16BCD4"/>
<path d="M54.8691 129.352C54.809 129.352 54.7488 129.322 54.6886 129.291L53.3647 128.221L52.0407 129.291C51.9204 129.383 51.7097 129.383 51.6195 129.23C51.5292 129.108 51.5292 128.894 51.6796 128.802L53.1841 127.579C53.3045 127.487 53.4549 127.487 53.5452 127.579L55.0497 128.802C55.17 128.894 55.2001 129.108 55.1099 129.23C55.0497 129.322 54.9594 129.352 54.8691 129.352Z" fill="#16BCD4"/>
<path d="M50.3557 127.824C50.2955 127.824 50.2354 127.793 50.1752 127.763C50.0548 127.671 50.0247 127.457 50.115 127.335L51.1681 125.989L50.115 124.644C50.0247 124.522 50.0247 124.308 50.1752 124.216C50.2955 124.124 50.5062 124.124 50.5964 124.277L51.8 125.806C51.8903 125.928 51.8903 126.081 51.8 126.173L50.5964 127.702C50.5363 127.793 50.446 127.824 50.3557 127.824Z" fill="#16BCD4"/>
<path d="M56.3736 127.824C56.2833 127.824 56.1931 127.793 56.1329 127.702L54.9293 126.173C54.839 126.05 54.839 125.898 54.9293 125.806L56.1329 124.277C56.2232 124.155 56.4338 124.124 56.5541 124.216C56.6745 124.308 56.7046 124.522 56.6143 124.644L55.5612 125.989L56.6143 127.335C56.7046 127.457 56.7046 127.671 56.5541 127.763C56.494 127.793 56.4338 127.824 56.3736 127.824Z" fill="#16BCD4"/>
<path d="M33.4171 133.507H29.5054V129.532C29.5054 129.349 29.3851 129.227 29.2045 129.227C29.024 129.227 28.9036 129.349 28.9036 129.532V133.507H24.992C24.8115 133.507 24.6911 133.629 24.6911 133.813C24.6911 133.996 24.8115 134.119 24.992 134.119H28.9036V138.093C28.9036 138.277 29.024 138.399 29.2045 138.399C29.3851 138.399 29.5054 138.277 29.5054 138.093V134.119H33.4171C33.5976 134.119 33.718 133.996 33.718 133.813C33.718 133.629 33.5976 133.507 33.4171 133.507Z" fill="#2197F3"/>
<path d="M29.2045 132.284C29.1444 132.284 29.0842 132.254 29.024 132.223L27.5195 131C27.3992 130.908 27.3691 130.694 27.4593 130.572C27.5496 130.45 27.7602 130.419 27.8806 130.511L29.2045 131.581L30.5285 130.511C30.6488 130.419 30.8595 130.419 30.9497 130.572C31.04 130.694 31.04 130.908 30.8896 131L29.3851 132.223C29.3249 132.254 29.2647 132.284 29.2045 132.284Z" fill="#16BCD4"/>
<path d="M30.709 137.176C30.6488 137.176 30.5887 137.146 30.5285 137.115L29.2045 136.045L27.8806 137.115C27.7602 137.207 27.5496 137.207 27.4593 137.054C27.3691 136.932 27.3691 136.718 27.5195 136.626L29.024 135.403C29.1444 135.311 29.2948 135.311 29.3851 135.403L30.8895 136.626C31.0099 136.718 31.04 136.932 30.9497 137.054C30.8895 137.146 30.7993 137.176 30.709 137.176Z" fill="#16BCD4"/>
<path d="M26.1956 135.648C26.1354 135.648 26.0752 135.617 26.015 135.586C25.8947 135.495 25.8646 135.281 25.9549 135.158L27.008 133.813L25.9549 132.468C25.8646 132.345 25.8646 132.131 26.015 132.04C26.1354 131.948 26.346 131.948 26.4363 132.101L27.6399 133.63C27.7301 133.752 27.7301 133.905 27.6399 133.996L26.4363 135.525C26.3761 135.617 26.2858 135.648 26.1956 135.648Z" fill="#16BCD4"/>
<path d="M32.2135 135.648C32.1232 135.648 32.0329 135.617 31.9728 135.525L30.7692 133.996C30.6789 133.874 30.6789 133.721 30.7692 133.63L31.9728 132.101C32.063 131.979 32.2737 131.948 32.394 132.04C32.5144 132.131 32.5445 132.345 32.4542 132.468L31.4011 133.813L32.4542 135.158C32.5445 135.281 32.5445 135.495 32.394 135.586C32.3338 135.617 32.2737 135.648 32.2135 135.648Z" fill="#16BCD4"/>
<path d="M79.0823 108.147H75.1707V104.172C75.1707 103.989 75.0503 103.867 74.8698 103.867C74.6893 103.867 74.5689 103.989 74.5689 104.172V108.147H70.6573C70.4767 108.147 70.3564 108.27 70.3564 108.453C70.3564 108.636 70.4767 108.759 70.6573 108.759H74.5689V112.734C74.5689 112.917 74.6893 113.039 74.8698 113.039C75.0503 113.039 75.1707 112.917 75.1707 112.734V108.759H79.0823C79.2629 108.759 79.3832 108.636 79.3832 108.453C79.3832 108.27 79.2629 108.147 79.0823 108.147Z" fill="#2197F3"/>
<path d="M74.8698 106.924C74.8096 106.924 74.7494 106.894 74.6893 106.863L73.1848 105.64C73.0644 105.548 73.0343 105.334 73.1246 105.212C73.2149 105.09 73.4255 105.059 73.5459 105.151L74.8698 106.221L76.1937 105.151C76.3141 105.059 76.5247 105.059 76.615 105.212C76.7053 105.334 76.7053 105.548 76.5548 105.64L75.0503 106.863C74.9901 106.894 74.93 106.924 74.8698 106.924Z" fill="#16BCD4"/>
<path d="M76.3743 111.816C76.3141 111.816 76.2539 111.786 76.1937 111.755L74.8698 110.685L73.5458 111.755C73.4255 111.847 73.2149 111.847 73.1246 111.694C73.0343 111.572 73.0343 111.358 73.1848 111.266L74.6892 110.043C74.8096 109.951 74.9601 109.951 75.0503 110.043L76.5548 111.266C76.6752 111.358 76.7052 111.572 76.615 111.694C76.5548 111.786 76.4645 111.816 76.3743 111.816Z" fill="#16BCD4"/>
<path d="M71.8609 110.287C71.8007 110.287 71.7405 110.257 71.6803 110.226C71.56 110.134 71.5299 109.92 71.6201 109.798L72.6733 108.453L71.6201 107.107C71.5299 106.985 71.5299 106.771 71.6803 106.679C71.8007 106.588 72.0113 106.588 72.1016 106.74L73.3052 108.269C73.3954 108.392 73.3954 108.544 73.3052 108.636L72.1016 110.165C72.0414 110.257 71.9511 110.287 71.8609 110.287Z" fill="#16BCD4"/>
<path d="M77.8788 110.288C77.7885 110.288 77.6982 110.257 77.638 110.165L76.4345 108.637C76.3442 108.514 76.3442 108.361 76.4345 108.27L77.638 106.741C77.7283 106.619 77.9389 106.588 78.0593 106.68C78.1797 106.772 78.2097 106.986 78.1195 107.108L77.0663 108.453L78.1195 109.799C78.2097 109.921 78.2097 110.135 78.0593 110.227C77.9991 110.257 77.9389 110.288 77.8788 110.288Z" fill="#16BCD4"/>
<path d="M90.2332 80.6302H86.3215V76.6554C86.3215 76.4719 86.2012 76.3496 86.0206 76.3496C85.8401 76.3496 85.7197 76.4719 85.7197 76.6554V80.6302H81.8081C81.6276 80.6302 81.5072 80.7525 81.5072 80.9359C81.5072 81.1194 81.6276 81.2417 81.8081 81.2417H85.7197V85.2165C85.7197 85.4 85.8401 85.5223 86.0206 85.5223C86.2012 85.5223 86.3215 85.4 86.3215 85.2165V81.2417H90.2332C90.4137 81.2417 90.5341 81.1194 90.5341 80.9359C90.5341 80.7525 90.4137 80.6302 90.2332 80.6302Z" fill="#2197F3"/>
<path d="M86.0206 79.4063C85.9604 79.4063 85.9003 79.3757 85.8401 79.3451L84.3356 78.1221C84.2152 78.0304 84.1851 77.8164 84.2754 77.6941C84.3657 77.5718 84.5763 77.5412 84.6967 77.6329L86.0206 78.7031L87.3445 77.6329C87.4649 77.5412 87.6755 77.5412 87.7658 77.6941C87.8561 77.8164 87.8561 78.0304 87.7056 78.1221L86.2011 79.3451C86.141 79.3757 86.0808 79.4063 86.0206 79.4063Z" fill="#16BCD4"/>
<path d="M87.5251 84.2987C87.4649 84.2987 87.4047 84.2681 87.3445 84.2376L86.0206 83.1674L84.6967 84.2376C84.5763 84.3293 84.3657 84.3293 84.2754 84.1764C84.1851 84.0541 84.1851 83.8401 84.3356 83.7484L85.8401 82.5253C85.9604 82.4336 86.1109 82.4336 86.2011 82.5253L87.7056 83.7484C87.826 83.8401 87.8561 84.0541 87.7658 84.1764C87.7056 84.2681 87.6153 84.2987 87.5251 84.2987Z" fill="#16BCD4"/>
<path d="M83.0117 82.7696C82.9515 82.7696 82.8913 82.7391 82.8311 82.7085C82.7108 82.6168 82.6807 82.4027 82.771 82.2804L83.8241 80.9351L82.771 79.5898C82.6807 79.4675 82.6807 79.2534 82.8311 79.1617C82.9515 79.07 83.1621 79.07 83.2524 79.2229L84.456 80.7516C84.5462 80.874 84.5462 81.0268 84.456 81.1186L83.2524 82.6473C83.1922 82.7391 83.1019 82.7696 83.0117 82.7696Z" fill="#16BCD4"/>
<path d="M89.0296 82.7696C88.9393 82.7696 88.849 82.7391 88.7889 82.6473L87.5853 81.1186C87.495 80.9963 87.495 80.8434 87.5853 80.7517L88.7889 79.2229C88.8791 79.1006 89.0898 79.07 89.2101 79.1617C89.3305 79.2535 89.3606 79.4675 89.2703 79.5898L88.2172 80.9351L89.2703 82.2804C89.3606 82.4027 89.3606 82.6168 89.2101 82.7085C89.1499 82.7391 89.0898 82.7696 89.0296 82.7696Z" fill="#16BCD4"/>
<path d="M94.7466 132.698H90.835V128.723C90.835 128.54 90.7146 128.417 90.5341 128.417C90.3535 128.417 90.2332 128.54 90.2332 128.723V132.698H86.3215C86.141 132.698 86.0206 132.82 86.0206 133.004C86.0206 133.187 86.141 133.31 86.3215 133.31H90.2332V137.284C90.2332 137.468 90.3535 137.59 90.5341 137.59C90.7146 137.59 90.835 137.468 90.835 137.284V133.31H94.7466C94.9271 133.31 95.0475 133.187 95.0475 133.004C95.0475 132.82 94.9271 132.698 94.7466 132.698Z" fill="#2197F3"/>
<path d="M90.5341 131.475C90.4739 131.475 90.4137 131.444 90.3535 131.414L88.8491 130.19C88.7287 130.099 88.6986 129.885 88.7889 129.762C88.8791 129.64 89.0898 129.61 89.2101 129.701L90.5341 130.771L91.858 129.701C91.9784 129.61 92.189 129.61 92.2793 129.762C92.3695 129.885 92.3695 130.099 92.2191 130.19L90.7146 131.414C90.6544 131.444 90.5942 131.475 90.5341 131.475Z" fill="#16BCD4"/>
<path d="M92.0386 136.367C91.9784 136.367 91.9182 136.337 91.858 136.306L90.5341 135.236L89.2102 136.306C89.0898 136.398 88.8792 136.398 88.7889 136.245C88.6986 136.122 88.6986 135.908 88.8491 135.817L90.3536 134.594C90.4739 134.502 90.6244 134.502 90.7146 134.594L92.2191 135.817C92.3395 135.908 92.3696 136.122 92.2793 136.245C92.2191 136.337 92.1288 136.367 92.0386 136.367Z" fill="#16BCD4"/>
<path d="M87.5251 134.838C87.4649 134.838 87.4047 134.807 87.3446 134.777C87.2242 134.685 87.1941 134.471 87.2844 134.349L88.3375 133.003L87.2844 131.658C87.1941 131.536 87.1941 131.322 87.3446 131.23C87.4649 131.138 87.6755 131.138 87.7658 131.291L88.9694 132.82C89.0597 132.942 89.0597 133.095 88.9694 133.187L87.7658 134.716C87.7056 134.807 87.6154 134.838 87.5251 134.838Z" fill="#16BCD4"/>
<path d="M93.543 134.838C93.4527 134.838 93.3625 134.807 93.3023 134.716L92.0987 133.187C92.0084 133.065 92.0084 132.912 92.0987 132.82L93.3023 131.291C93.3926 131.169 93.6032 131.138 93.7235 131.23C93.8439 131.322 93.874 131.536 93.7837 131.658L92.7306 133.003L93.7837 134.349C93.874 134.471 93.874 134.685 93.7235 134.777C93.6634 134.807 93.6032 134.838 93.543 134.838Z" fill="#16BCD4"/>
<path d="M111.207 113.543H107.296V109.568C107.296 109.385 107.175 109.263 106.995 109.263C106.814 109.263 106.694 109.385 106.694 109.568V113.543H102.782C102.602 113.543 102.481 113.666 102.481 113.849C102.481 114.032 102.602 114.155 102.782 114.155H106.694V118.13C106.694 118.313 106.814 118.435 106.995 118.435C107.175 118.435 107.296 118.313 107.296 118.13V114.155H111.207C111.388 114.155 111.508 114.032 111.508 113.849C111.508 113.666 111.388 113.543 111.207 113.543Z" fill="#2197F3"/>
<path d="M106.995 112.32C106.935 112.32 106.874 112.289 106.814 112.259L105.31 111.036C105.189 110.944 105.159 110.73 105.25 110.608C105.34 110.485 105.551 110.455 105.671 110.546L106.995 111.617L108.319 110.546C108.439 110.455 108.65 110.455 108.74 110.608C108.83 110.73 108.83 110.944 108.68 111.036L107.175 112.259C107.115 112.289 107.055 112.32 106.995 112.32Z" fill="#16BCD4"/>
<path d="M108.499 117.212C108.439 117.212 108.379 117.182 108.319 117.151L106.995 116.081L105.671 117.151C105.55 117.243 105.34 117.243 105.25 117.09C105.159 116.968 105.159 116.754 105.31 116.662L106.814 115.439C106.935 115.347 107.085 115.347 107.175 115.439L108.68 116.662C108.8 116.754 108.83 116.968 108.74 117.09C108.68 117.182 108.59 117.212 108.499 117.212Z" fill="#16BCD4"/>
<path d="M103.986 115.684C103.926 115.684 103.865 115.653 103.805 115.623C103.685 115.531 103.655 115.317 103.745 115.194L104.798 113.849L103.745 112.504C103.655 112.382 103.655 112.168 103.805 112.076C103.926 111.984 104.136 111.984 104.227 112.137L105.43 113.666C105.52 113.788 105.52 113.941 105.43 114.033L104.227 115.561C104.166 115.653 104.076 115.684 103.986 115.684Z" fill="#16BCD4"/>
<path d="M110.004 115.683C109.913 115.683 109.823 115.653 109.763 115.561L108.559 114.032C108.469 113.91 108.469 113.757 108.559 113.665L109.763 112.136C109.853 112.014 110.064 111.984 110.184 112.075C110.305 112.167 110.335 112.381 110.244 112.503L109.191 113.849L110.244 115.194C110.335 115.316 110.335 115.53 110.184 115.622C110.124 115.653 110.064 115.683 110.004 115.683Z" fill="#16BCD4"/>
<path d="M121.031 138.094H117.119V134.119C117.119 133.935 116.999 133.813 116.818 133.813C116.638 133.813 116.517 133.935 116.517 134.119V138.094H112.606C112.425 138.094 112.305 138.216 112.305 138.399C112.305 138.583 112.425 138.705 112.606 138.705H116.517V142.68C116.517 142.863 116.638 142.986 116.818 142.986C116.999 142.986 117.119 142.863 117.119 142.68V138.705H121.031C121.211 138.705 121.332 138.583 121.332 138.399C121.332 138.216 121.211 138.094 121.031 138.094Z" fill="#2197F3"/>
<path d="M116.818 136.871C116.758 136.871 116.698 136.84 116.638 136.809L115.133 135.586C115.013 135.495 114.983 135.281 115.073 135.158C115.163 135.036 115.374 135.006 115.494 135.097L116.818 136.167L118.142 135.097C118.262 135.006 118.473 135.006 118.563 135.158C118.654 135.281 118.654 135.495 118.503 135.586L116.999 136.809C116.939 136.84 116.878 136.871 116.818 136.871Z" fill="#16BCD4"/>
<path d="M118.323 141.762C118.262 141.762 118.202 141.732 118.142 141.701L116.818 140.631L115.494 141.701C115.374 141.793 115.163 141.793 115.073 141.64C114.983 141.517 114.983 141.303 115.133 141.212L116.638 139.989C116.758 139.897 116.908 139.897 116.999 139.989L118.503 141.212C118.624 141.303 118.654 141.517 118.563 141.64C118.503 141.732 118.413 141.762 118.323 141.762Z" fill="#16BCD4"/>
<path d="M113.809 140.234C113.749 140.234 113.689 140.203 113.629 140.173C113.508 140.081 113.478 139.867 113.568 139.745L114.622 138.399L113.568 137.054C113.478 136.932 113.478 136.718 113.629 136.626C113.749 136.534 113.96 136.534 114.05 136.687L115.253 138.216C115.344 138.338 115.344 138.491 115.253 138.583L114.05 140.112C113.99 140.203 113.899 140.234 113.809 140.234Z" fill="#16BCD4"/>
<path d="M119.827 140.234C119.737 140.234 119.647 140.203 119.586 140.112L118.383 138.583C118.293 138.461 118.293 138.308 118.383 138.216L119.586 136.687C119.677 136.565 119.887 136.534 120.008 136.626C120.128 136.718 120.158 136.932 120.068 137.054L119.015 138.399L120.068 139.745C120.158 139.867 120.158 140.081 120.008 140.173C119.947 140.203 119.887 140.234 119.827 140.234Z" fill="#16BCD4"/>
<path d="M124.217 83.597H120.305V79.6222C120.305 79.4387 120.185 79.3164 120.004 79.3164C119.824 79.3164 119.703 79.4387 119.703 79.6222V83.597H115.792C115.611 83.597 115.491 83.7193 115.491 83.9027C115.491 84.0862 115.611 84.2085 115.792 84.2085H119.703V88.1833C119.703 88.3668 119.824 88.4891 120.004 88.4891C120.185 88.4891 120.305 88.3668 120.305 88.1833V84.2085H124.217C124.397 84.2085 124.518 84.0862 124.518 83.9027C124.518 83.7193 124.397 83.597 124.217 83.597Z" fill="#2197F3"/>
<path d="M120.004 82.3741C119.944 82.3741 119.884 82.3435 119.824 82.3129L118.319 81.0899C118.199 80.9982 118.169 80.7841 118.259 80.6618C118.349 80.5395 118.56 80.509 118.68 80.6007L120.004 81.6708L121.328 80.6007C121.448 80.509 121.659 80.509 121.749 80.6618C121.84 80.7841 121.84 80.9982 121.689 81.0899L120.185 82.3129C120.124 82.3435 120.064 82.3741 120.004 82.3741Z" fill="#16BCD4"/>
<path d="M121.509 87.2665C121.448 87.2665 121.388 87.2359 121.328 87.2053L120.004 86.1352L118.68 87.2053C118.56 87.2971 118.349 87.2971 118.259 87.1442C118.169 87.0219 118.169 86.8079 118.319 86.7161L119.824 85.4931C119.944 85.4014 120.094 85.4014 120.185 85.4931L121.689 86.7161C121.809 86.8079 121.84 87.0219 121.749 87.1442C121.689 87.2359 121.599 87.2665 121.509 87.2665Z" fill="#16BCD4"/>
<path d="M116.995 85.7374C116.935 85.7374 116.875 85.7068 116.815 85.6763C116.694 85.5845 116.664 85.3705 116.754 85.2482L117.808 83.9029L116.754 82.5576C116.664 82.4352 116.664 82.2212 116.815 82.1295C116.935 82.0378 117.146 82.0378 117.236 82.1906L118.439 83.7194C118.53 83.8417 118.53 83.9946 118.439 84.0863L117.236 85.6151C117.176 85.7068 117.085 85.7374 116.995 85.7374Z" fill="#16BCD4"/>
<path d="M123.013 85.7374C122.923 85.7374 122.833 85.7068 122.772 85.6151L121.569 84.0863C121.479 83.964 121.479 83.8112 121.569 83.7194L122.772 82.1907C122.863 82.0684 123.073 82.0378 123.194 82.1295C123.314 82.2212 123.344 82.4353 123.254 82.5576L122.201 83.9029L123.254 85.2482C123.344 85.3705 123.344 85.5845 123.194 85.6763C123.133 85.7068 123.073 85.7374 123.013 85.7374Z" fill="#16BCD4"/>
<path d="M72.2591 123.741H69.3829V120.819C69.3829 120.684 69.2944 120.594 69.1616 120.594C69.0289 120.594 68.9404 120.684 68.9404 120.819V123.741H66.0642C65.9314 123.741 65.8429 123.831 65.8429 123.966C65.8429 124.101 65.9314 124.191 66.0642 124.191H68.9404V127.114C68.9404 127.248 69.0289 127.338 69.1616 127.338C69.2944 127.338 69.3829 127.248 69.3829 127.114V124.191H72.2591C72.3918 124.191 72.4803 124.101 72.4803 123.966C72.4803 123.831 72.3918 123.741 72.2591 123.741Z" fill="#2197F3"/>
<path d="M69.1617 122.842C69.1174 122.842 69.0732 122.819 69.0289 122.797L67.9227 121.897C67.8342 121.83 67.8121 121.673 67.8784 121.583C67.9448 121.493 68.0997 121.47 68.1882 121.538L69.1617 122.325L70.1352 121.538C70.2236 121.47 70.3785 121.47 70.4449 121.583C70.5113 121.673 70.5113 121.83 70.4006 121.897L69.2944 122.797C69.2502 122.819 69.2059 122.842 69.1617 122.842Z" fill="#16BCD4"/>
<path d="M70.2679 126.439C70.2236 126.439 70.1794 126.416 70.1351 126.394L69.1617 125.607L68.1882 126.394C68.0997 126.461 67.9448 126.461 67.8784 126.349C67.8121 126.259 67.8121 126.101 67.9227 126.034L69.0289 125.135C69.1174 125.067 69.228 125.067 69.2944 125.135L70.4006 126.034C70.4891 126.101 70.5113 126.259 70.4449 126.349C70.4006 126.416 70.3343 126.439 70.2679 126.439Z" fill="#16BCD4"/>
<path d="M66.9492 125.315C66.9049 125.315 66.8607 125.292 66.8164 125.27C66.7279 125.202 66.7058 125.045 66.7722 124.955L67.5466 123.966L66.7722 122.977C66.7058 122.887 66.7058 122.729 66.8164 122.662C66.9049 122.594 67.0598 122.594 67.1262 122.707L68.0112 123.831C68.0775 123.921 68.0775 124.033 68.0112 124.101L67.1262 125.225C67.0819 125.292 67.0156 125.315 66.9492 125.315Z" fill="#16BCD4"/>
<path d="M71.3741 125.315C71.3077 125.315 71.2414 125.292 71.1971 125.225L70.3121 124.101C70.2458 124.011 70.2458 123.898 70.3121 123.831L71.1971 122.707C71.2635 122.617 71.4184 122.594 71.5069 122.662C71.5954 122.729 71.6175 122.887 71.5511 122.977L70.7768 123.966L71.5511 124.955C71.6175 125.045 71.6175 125.202 71.5069 125.27C71.4626 125.292 71.4184 125.315 71.3741 125.315Z" fill="#16BCD4"/>
<path d="M94.5607 114.568H91.6845V111.646C91.6845 111.511 91.596 111.421 91.4633 111.421C91.3305 111.421 91.242 111.511 91.242 111.646V114.568H88.3658C88.2331 114.568 88.1446 114.658 88.1446 114.793C88.1446 114.928 88.2331 115.018 88.3658 115.018H91.242V117.941C91.242 118.076 91.3305 118.166 91.4633 118.166C91.596 118.166 91.6845 118.076 91.6845 117.941V115.018H94.5607C94.6935 115.018 94.782 114.928 94.782 114.793C94.782 114.658 94.6935 114.568 94.5607 114.568Z" fill="#2197F3"/>
<path d="M91.4633 113.669C91.4191 113.669 91.3748 113.646 91.3306 113.624L90.2243 112.725C90.1358 112.657 90.1137 112.5 90.1801 112.41C90.2464 112.32 90.4013 112.297 90.4898 112.365L91.4633 113.152L92.4368 112.365C92.5253 112.297 92.6802 112.297 92.7465 112.41C92.8129 112.5 92.8129 112.657 92.7023 112.725L91.596 113.624C91.5518 113.646 91.5076 113.669 91.4633 113.669Z" fill="#16BCD4"/>
<path d="M92.5695 117.266C92.5253 117.266 92.481 117.243 92.4368 117.221L91.4633 116.434L90.4898 117.221C90.4013 117.288 90.2464 117.288 90.1801 117.176C90.1137 117.086 90.1137 116.928 90.2243 116.861L91.3305 115.962C91.419 115.894 91.5297 115.894 91.596 115.962L92.7023 116.861C92.7908 116.928 92.8129 117.086 92.7465 117.176C92.7023 117.243 92.6359 117.266 92.5695 117.266Z" fill="#16BCD4"/>
<path d="M89.2508 116.142C89.2066 116.142 89.1623 116.119 89.1181 116.097C89.0296 116.029 89.0075 115.872 89.0738 115.782L89.8482 114.793L89.0738 113.804C89.0075 113.714 89.0075 113.556 89.1181 113.489C89.2066 113.421 89.3615 113.421 89.4278 113.534L90.3128 114.658C90.3792 114.748 90.3792 114.86 90.3128 114.928L89.4278 116.052C89.3836 116.119 89.3172 116.142 89.2508 116.142Z" fill="#16BCD4"/>
<path d="M93.6758 116.142C93.6094 116.142 93.543 116.12 93.4988 116.052L92.6138 114.928C92.5474 114.838 92.5474 114.726 92.6138 114.658L93.4988 113.534C93.5651 113.444 93.72 113.422 93.8085 113.489C93.897 113.557 93.9191 113.714 93.8528 113.804L93.0784 114.793L93.8528 115.783C93.9191 115.873 93.9191 116.03 93.8085 116.097C93.7643 116.12 93.72 116.142 93.6758 116.142Z" fill="#16BCD4"/>
<path d="M104.119 145.323H101.242V142.401C101.242 142.266 101.154 142.176 101.021 142.176C100.888 142.176 100.8 142.266 100.8 142.401V145.323H97.9237C97.791 145.323 97.7025 145.413 97.7025 145.548C97.7025 145.683 97.791 145.773 97.9237 145.773H100.8V148.696C100.8 148.83 100.888 148.92 101.021 148.92C101.154 148.92 101.242 148.83 101.242 148.696V145.773H104.119C104.251 145.773 104.34 145.683 104.34 145.548C104.34 145.413 104.251 145.323 104.119 145.323Z" fill="#2197F3"/>
<path d="M101.021 144.424C100.977 144.424 100.933 144.402 100.888 144.379L99.7822 143.48C99.6937 143.413 99.6715 143.255 99.7379 143.165C99.8043 143.075 99.9591 143.053 100.048 143.12L101.021 143.907L101.995 143.12C102.083 143.053 102.238 143.053 102.304 143.165C102.371 143.255 102.371 143.413 102.26 143.48L101.154 144.379C101.11 144.402 101.065 144.424 101.021 144.424Z" fill="#16BCD4"/>
<path d="M102.127 148.022C102.083 148.022 102.039 147.999 101.995 147.977L101.021 147.19L100.048 147.977C99.9591 148.044 99.8042 148.044 99.7379 147.932C99.6715 147.842 99.6715 147.684 99.7821 147.617L100.888 146.718C100.977 146.65 101.087 146.65 101.154 146.718L102.26 147.617C102.349 147.684 102.371 147.842 102.304 147.932C102.26 147.999 102.194 148.022 102.127 148.022Z" fill="#16BCD4"/>
<path d="M98.8087 146.898C98.7644 146.898 98.7202 146.875 98.6759 146.853C98.5874 146.785 98.5653 146.628 98.6317 146.538L99.4061 145.549L98.6317 144.56C98.5653 144.47 98.5653 144.312 98.6759 144.245C98.7644 144.177 98.9193 144.177 98.9857 144.29L99.8707 145.414C99.937 145.504 99.937 145.616 99.8707 145.684L98.9857 146.808C98.9414 146.875 98.8751 146.898 98.8087 146.898Z" fill="#16BCD4"/>
<path d="M103.234 146.898C103.167 146.898 103.101 146.875 103.057 146.808L102.172 145.684C102.105 145.594 102.105 145.481 102.172 145.414L103.057 144.29C103.123 144.2 103.278 144.177 103.366 144.245C103.455 144.312 103.477 144.47 103.411 144.56L102.636 145.549L103.411 146.538C103.477 146.628 103.477 146.785 103.366 146.853C103.322 146.875 103.278 146.898 103.234 146.898Z" fill="#16BCD4"/>
<path d="M127.748 116.727H124.872V113.804C124.872 113.669 124.783 113.579 124.65 113.579C124.518 113.579 124.429 113.669 124.429 113.804V116.727H121.553C121.42 116.727 121.332 116.817 121.332 116.951C121.332 117.086 121.42 117.176 121.553 117.176H124.429V120.099C124.429 120.234 124.518 120.324 124.65 120.324C124.783 120.324 124.872 120.234 124.872 120.099V117.176H127.748C127.88 117.176 127.969 117.086 127.969 116.951C127.969 116.817 127.88 116.727 127.748 116.727Z" fill="#2197F3"/>
<path d="M124.65 115.827C124.606 115.827 124.562 115.805 124.518 115.782L123.411 114.883C123.323 114.815 123.301 114.658 123.367 114.568C123.433 114.478 123.588 114.456 123.677 114.523L124.65 115.31L125.624 114.523C125.712 114.456 125.867 114.456 125.933 114.568C126 114.658 126 114.815 125.889 114.883L124.783 115.782C124.739 115.805 124.695 115.827 124.65 115.827Z" fill="#16BCD4"/>
<path d="M125.756 119.424C125.712 119.424 125.668 119.402 125.624 119.379L124.65 118.593L123.677 119.379C123.588 119.447 123.433 119.447 123.367 119.334C123.301 119.245 123.301 119.087 123.411 119.02L124.517 118.12C124.606 118.053 124.717 118.053 124.783 118.12L125.889 119.02C125.978 119.087 126 119.245 125.933 119.334C125.889 119.402 125.823 119.424 125.756 119.424Z" fill="#16BCD4"/>
<path d="M122.438 118.3C122.394 118.3 122.349 118.278 122.305 118.256C122.217 118.188 122.194 118.031 122.261 117.941L123.035 116.952L122.261 115.962C122.194 115.872 122.194 115.715 122.305 115.648C122.394 115.58 122.548 115.58 122.615 115.693L123.5 116.817C123.566 116.907 123.566 117.019 123.5 117.086L122.615 118.211C122.571 118.278 122.504 118.3 122.438 118.3Z" fill="#16BCD4"/>
<path d="M126.863 118.3C126.796 118.3 126.73 118.278 126.686 118.211L125.801 117.086C125.734 116.997 125.734 116.884 125.801 116.817L126.686 115.693C126.752 115.603 126.907 115.58 126.995 115.648C127.084 115.715 127.106 115.872 127.04 115.962L126.265 116.952L127.04 117.941C127.106 118.031 127.106 118.188 126.995 118.256C126.951 118.278 126.907 118.3 126.863 118.3Z" fill="#16BCD4"/>
<path d="M112.083 88.939H109.207V86.0163C109.207 85.8814 109.119 85.7915 108.986 85.7915C108.853 85.7915 108.765 85.8814 108.765 86.0163V88.939H105.889C105.756 88.939 105.667 89.0289 105.667 89.1638C105.667 89.2987 105.756 89.3886 105.889 89.3886H108.765V92.3113C108.765 92.4462 108.853 92.5361 108.986 92.5361C109.119 92.5361 109.207 92.4462 109.207 92.3113V89.3886H112.083C112.216 89.3886 112.305 89.2987 112.305 89.1638C112.305 89.0289 112.216 88.939 112.083 88.939Z" fill="#2197F3"/>
<path d="M108.986 88.0394C108.942 88.0394 108.898 88.017 108.853 87.9945L107.747 87.0952C107.659 87.0277 107.636 86.8704 107.703 86.7804C107.769 86.6905 107.924 86.668 108.013 86.7355L108.986 87.5224L109.959 86.7355C110.048 86.668 110.203 86.668 110.269 86.7804C110.336 86.8704 110.336 87.0277 110.225 87.0952L109.119 87.9945C109.075 88.017 109.03 88.0394 108.986 88.0394Z" fill="#16BCD4"/>
<path d="M110.092 91.6368C110.048 91.6368 110.004 91.6143 109.959 91.5918L108.986 90.8049L108.013 91.5918C107.924 91.6592 107.769 91.6592 107.703 91.5468C107.636 91.4569 107.636 91.2995 107.747 91.2321L108.853 90.3328C108.942 90.2654 109.052 90.2654 109.119 90.3328L110.225 91.2321C110.313 91.2995 110.336 91.4569 110.269 91.5468C110.225 91.6143 110.159 91.6368 110.092 91.6368Z" fill="#16BCD4"/>
<path d="M106.774 90.5124C106.729 90.5124 106.685 90.4899 106.641 90.4674C106.552 90.4 106.53 90.2426 106.597 90.1527L107.371 89.1635L106.597 88.1743C106.53 88.0843 106.53 87.927 106.641 87.8595C106.729 87.7921 106.884 87.7921 106.951 87.9045L107.836 89.0286C107.902 89.1185 107.902 89.2309 107.836 89.2984L106.951 90.4225C106.906 90.4899 106.84 90.5124 106.774 90.5124Z" fill="#16BCD4"/>
<path d="M111.198 90.5124C111.132 90.5124 111.066 90.4899 111.021 90.4225L110.137 89.2984C110.07 89.2084 110.07 89.096 110.137 89.0286L111.021 87.9045C111.088 87.8146 111.243 87.7921 111.331 87.8595C111.42 87.927 111.442 88.0843 111.375 88.1743L110.601 89.1635L111.375 90.1527C111.442 90.2426 111.442 90.4 111.331 90.4674C111.287 90.4899 111.243 90.5124 111.198 90.5124Z" fill="#16BCD4"/>
<path d="M73.5866 86.2412H70.7104V83.3186C70.7104 83.1837 70.6219 83.0938 70.4891 83.0938C70.3564 83.0938 70.2679 83.1837 70.2679 83.3186V86.2412H67.3917C67.2589 86.2412 67.1704 86.3312 67.1704 86.4661C67.1704 86.6009 67.2589 86.6909 67.3917 86.6909H70.2679V89.6135C70.2679 89.7484 70.3564 89.8384 70.4891 89.8384C70.6219 89.8384 70.7104 89.7484 70.7104 89.6135V86.6909H73.5866C73.7193 86.6909 73.8078 86.6009 73.8078 86.4661C73.8078 86.3312 73.7193 86.2412 73.5866 86.2412Z" fill="#2197F3"/>
<path d="M70.4891 85.3417C70.4449 85.3417 70.4006 85.3192 70.3564 85.2967L69.2501 84.3974C69.1616 84.33 69.1395 84.1726 69.2059 84.0827C69.2723 83.9928 69.4271 83.9703 69.5156 84.0377L70.4891 84.8246L71.4626 84.0377C71.5511 83.9703 71.706 83.9703 71.7723 84.0827C71.8387 84.1726 71.8387 84.33 71.7281 84.3974L70.6219 85.2967C70.5776 85.3192 70.5334 85.3417 70.4891 85.3417Z" fill="#16BCD4"/>
<path d="M71.5954 88.9385C71.5511 88.9385 71.5069 88.916 71.4626 88.8936L70.4891 88.1067L69.5157 88.8936C69.4272 88.961 69.2723 88.961 69.2059 88.8486C69.1395 88.7587 69.1395 88.6013 69.2502 88.5338L70.3564 87.6346C70.4449 87.5671 70.5555 87.5671 70.6219 87.6346L71.7281 88.5338C71.8166 88.6013 71.8387 88.7587 71.7724 88.8486C71.7281 88.916 71.6617 88.9385 71.5954 88.9385Z" fill="#16BCD4"/>
<path d="M68.2766 87.8146C68.2324 87.8146 68.1881 87.7921 68.1439 87.7697C68.0554 87.7022 68.0333 87.5448 68.0996 87.4549L68.874 86.4657L68.0996 85.4765C68.0333 85.3866 68.0333 85.2292 68.1439 85.1618C68.2324 85.0943 68.3873 85.0943 68.4536 85.2067L69.3386 86.3308C69.405 86.4207 69.405 86.5332 69.3386 86.6006L68.4536 87.7247C68.4094 87.7921 68.343 87.8146 68.2766 87.8146Z" fill="#16BCD4"/>
<path d="M72.7016 87.8147C72.6352 87.8147 72.5689 87.7922 72.5246 87.7247L71.6396 86.6006C71.5733 86.5107 71.5733 86.3983 71.6396 86.3308L72.5246 85.2067C72.591 85.1168 72.7459 85.0943 72.8344 85.1618C72.9229 85.2292 72.945 85.3866 72.8786 85.4765L72.1042 86.4657L72.8786 87.4549C72.945 87.5449 72.945 87.7022 72.8344 87.7697C72.7901 87.7922 72.7459 87.8147 72.7016 87.8147Z" fill="#16BCD4"/>
<path d="M98.2777 97.8418H95.4015V94.9192C95.4015 94.7843 95.313 94.6943 95.1802 94.6943C95.0475 94.6943 94.959 94.7843 94.959 94.9192V97.8418H92.0828C91.95 97.8418 91.8615 97.9317 91.8615 98.0666C91.8615 98.2015 91.95 98.2915 92.0828 98.2915H94.959V101.214C94.959 101.349 95.0475 101.439 95.1802 101.439C95.313 101.439 95.4015 101.349 95.4015 101.214V98.2915H98.2777C98.4104 98.2915 98.4989 98.2015 98.4989 98.0666C98.4989 97.9317 98.4104 97.8418 98.2777 97.8418Z" fill="#2197F3"/>
<path d="M95.1802 96.9423C95.136 96.9423 95.0917 96.9198 95.0475 96.8973L93.9412 95.998C93.8527 95.9306 93.8306 95.7732 93.897 95.6833C93.9634 95.5934 94.1182 95.5709 94.2067 95.6383L95.1802 96.4252L96.1537 95.6383C96.2422 95.5709 96.3971 95.5709 96.4635 95.6833C96.5298 95.7732 96.5298 95.9306 96.4192 95.998L95.313 96.8973C95.2687 96.9198 95.2245 96.9423 95.1802 96.9423Z" fill="#16BCD4"/>
<path d="M96.2864 100.54C96.2422 100.54 96.1979 100.517 96.1537 100.495L95.1802 99.7078L94.2067 100.495C94.1182 100.562 93.9634 100.562 93.897 100.45C93.8306 100.36 93.8306 100.202 93.9412 100.135L95.0475 99.2356C95.136 99.1682 95.2466 99.1682 95.313 99.2356L96.4192 100.135C96.5077 100.202 96.5298 100.36 96.4634 100.45C96.4192 100.517 96.3528 100.54 96.2864 100.54Z" fill="#16BCD4"/>
<path d="M92.9677 99.4157C92.9235 99.4157 92.8792 99.3932 92.835 99.3707C92.7465 99.3033 92.7244 99.1459 92.7908 99.056L93.5651 98.0668L92.7908 97.0776C92.7244 96.9876 92.7244 96.8303 92.835 96.7628C92.9235 96.6954 93.0784 96.6954 93.1447 96.8078L94.0297 97.9319C94.0961 98.0218 94.0961 98.1342 94.0297 98.2017L93.1447 99.3258C93.1005 99.3932 93.0341 99.4157 92.9677 99.4157Z" fill="#16BCD4"/>
<path d="M97.3927 99.4157C97.3263 99.4157 97.26 99.3932 97.2157 99.3258L96.3307 98.2017C96.2644 98.1118 96.2644 97.9994 96.3307 97.9319L97.2157 96.8078C97.2821 96.7179 97.437 96.6954 97.5255 96.7628C97.614 96.8303 97.6361 96.9877 97.5697 97.0776L96.7953 98.0668L97.5697 99.056C97.6361 99.1459 97.6361 99.3033 97.5255 99.3708C97.4812 99.3932 97.437 99.4157 97.3927 99.4157Z" fill="#16BCD4"/>
<path d="M43.5856 94.3345H40.7093V91.4118C40.7093 91.2769 40.6208 91.187 40.4881 91.187C40.3554 91.187 40.2669 91.2769 40.2669 91.4118V94.3345H37.3906C37.2579 94.3345 37.1694 94.4244 37.1694 94.5593C37.1694 94.6942 37.2579 94.7841 37.3906 94.7841H40.2669V97.7068C40.2669 97.8417 40.3554 97.9316 40.4881 97.9316C40.6208 97.9316 40.7093 97.8417 40.7093 97.7068V94.7841H43.5856C43.7183 94.7841 43.8068 94.6942 43.8068 94.5593C43.8068 94.4244 43.7183 94.3345 43.5856 94.3345Z" fill="#2197F3"/>
<path d="M40.4881 93.4349C40.4439 93.4349 40.3996 93.4125 40.3554 93.39L39.2491 92.4907C39.1606 92.4233 39.1385 92.2659 39.2049 92.176C39.2713 92.086 39.4261 92.0635 39.5146 92.131L40.4881 92.9179L41.4616 92.131C41.5501 92.0635 41.705 92.0635 41.7713 92.176C41.8377 92.2659 41.8377 92.4233 41.7271 92.4907L40.6209 93.39C40.5766 93.4125 40.5324 93.4349 40.4881 93.4349Z" fill="#16BCD4"/>
<path d="M41.5943 97.0328C41.5501 97.0328 41.5058 97.0103 41.4616 96.9878L40.4881 96.2009L39.5146 96.9878C39.4261 97.0552 39.2712 97.0552 39.2049 96.9428C39.1385 96.8529 39.1385 96.6955 39.2491 96.6281L40.3554 95.7288C40.4439 95.6614 40.5545 95.6614 40.6209 95.7288L41.7271 96.6281C41.8156 96.6955 41.8377 96.8529 41.7713 96.9428C41.7271 97.0103 41.6607 97.0328 41.5943 97.0328Z" fill="#16BCD4"/>
<path d="M38.2756 95.9089C38.2314 95.9089 38.1871 95.8864 38.1429 95.8639C38.0544 95.7965 38.0323 95.6391 38.0986 95.5492L38.873 94.5599L38.0986 93.5707C38.0323 93.4808 38.0323 93.3234 38.1429 93.256C38.2314 93.1885 38.3863 93.1885 38.4526 93.301L39.3376 94.4251C39.404 94.515 39.404 94.6274 39.3376 94.6948L38.4526 95.8189C38.4084 95.8864 38.342 95.9089 38.2756 95.9089Z" fill="#16BCD4"/>
<path d="M42.7006 95.9084C42.6342 95.9084 42.5679 95.8859 42.5236 95.8185L41.6386 94.6944C41.5722 94.6044 41.5722 94.492 41.6386 94.4246L42.5236 93.3005C42.59 93.2106 42.7448 93.1881 42.8333 93.2555C42.9218 93.323 42.944 93.4803 42.8776 93.5703L42.1032 94.5595L42.8776 95.5487C42.944 95.6386 42.944 95.796 42.8333 95.8634C42.7891 95.8859 42.7448 95.9084 42.7006 95.9084Z" fill="#16BCD4"/>
<path d="M59.7808 106.475H56.9046V103.552C56.9046 103.417 56.8161 103.327 56.6833 103.327C56.5506 103.327 56.4621 103.417 56.4621 103.552V106.475H53.5859C53.4531 106.475 53.3646 106.565 53.3646 106.699C53.3646 106.834 53.4531 106.924 53.5859 106.924H56.4621V109.847C56.4621 109.982 56.5506 110.072 56.6833 110.072C56.8161 110.072 56.9046 109.982 56.9046 109.847V106.924H59.7808C59.9135 106.924 60.002 106.834 60.002 106.699C60.002 106.565 59.9135 106.475 59.7808 106.475Z" fill="#2197F3"/>
<path d="M56.6834 105.576C56.6391 105.576 56.5949 105.553 56.5506 105.531L55.4444 104.631C55.3559 104.564 55.3338 104.407 55.4001 104.317C55.4665 104.227 55.6214 104.204 55.7099 104.272L56.6834 105.058L57.6568 104.272C57.7453 104.204 57.9002 104.204 57.9666 104.317C58.033 104.407 58.033 104.564 57.9223 104.631L56.8161 105.531C56.7719 105.553 56.7276 105.576 56.6834 105.576Z" fill="#16BCD4"/>
<path d="M57.7896 109.172C57.7453 109.172 57.7011 109.15 57.6568 109.127L56.6834 108.341L55.7099 109.127C55.6214 109.195 55.4665 109.195 55.4001 109.082C55.3338 108.993 55.3338 108.835 55.4444 108.768L56.5506 107.868C56.6391 107.801 56.7497 107.801 56.8161 107.868L57.9223 108.768C58.0108 108.835 58.033 108.993 57.9666 109.082C57.9223 109.15 57.856 109.172 57.7896 109.172Z" fill="#16BCD4"/>
<path d="M54.4709 108.049C54.4266 108.049 54.3824 108.026 54.3381 108.004C54.2496 107.936 54.2275 107.779 54.2939 107.689L55.0683 106.7L54.2939 105.71C54.2275 105.62 54.2275 105.463 54.3381 105.396C54.4266 105.328 54.5815 105.328 54.6479 105.441L55.5329 106.565C55.5992 106.655 55.5992 106.767 55.5329 106.834L54.6479 107.959C54.6036 108.026 54.5373 108.049 54.4709 108.049Z" fill="#16BCD4"/>
<path d="M58.8958 108.049C58.8294 108.049 58.7631 108.026 58.7188 107.959L57.8338 106.835C57.7675 106.745 57.7675 106.632 57.8338 106.565L58.7188 105.441C58.7852 105.351 58.9401 105.328 59.0286 105.396C59.1171 105.463 59.1392 105.62 59.0728 105.71L58.2985 106.7L59.0728 107.689C59.1392 107.779 59.1392 107.936 59.0286 108.004C58.9843 108.026 58.9401 108.049 58.8958 108.049Z" fill="#16BCD4"/>
<path d="M39.6031 118.076H36.7269V115.153C36.7269 115.018 36.6384 114.928 36.5056 114.928C36.3729 114.928 36.2844 115.018 36.2844 115.153V118.076H33.4082C33.2754 118.076 33.187 118.166 33.187 118.301C33.187 118.435 33.2754 118.525 33.4082 118.525H36.2844V121.448C36.2844 121.583 36.3729 121.673 36.5056 121.673C36.6384 121.673 36.7269 121.583 36.7269 121.448V118.525H39.6031C39.7358 118.525 39.8243 118.435 39.8243 118.301C39.8243 118.166 39.7358 118.076 39.6031 118.076Z" fill="#2197F3"/>
<path d="M36.5057 117.176C36.4614 117.176 36.4172 117.154 36.3729 117.131L35.2667 116.232C35.1782 116.164 35.1561 116.007 35.2224 115.917C35.2888 115.827 35.4437 115.805 35.5322 115.872L36.5057 116.659L37.4791 115.872C37.5676 115.805 37.7225 115.805 37.7889 115.917C37.8553 116.007 37.8553 116.164 37.7446 116.232L36.6384 117.131C36.5942 117.154 36.5499 117.176 36.5057 117.176Z" fill="#16BCD4"/>
<path d="M37.6119 120.773C37.5676 120.773 37.5234 120.751 37.4791 120.729L36.5057 119.942L35.5322 120.729C35.4437 120.796 35.2888 120.796 35.2224 120.684C35.156 120.594 35.156 120.436 35.2667 120.369L36.3729 119.47C36.4614 119.402 36.572 119.402 36.6384 119.47L37.7446 120.369C37.8331 120.436 37.8553 120.594 37.7889 120.684C37.7446 120.751 37.6783 120.773 37.6119 120.773Z" fill="#16BCD4"/>
<path d="M34.2932 119.649C34.2489 119.649 34.2047 119.627 34.1604 119.604C34.0719 119.537 34.0498 119.379 34.1162 119.289L34.8906 118.3L34.1162 117.311C34.0498 117.221 34.0498 117.064 34.1604 116.996C34.2489 116.929 34.4038 116.929 34.4702 117.041L35.3552 118.165C35.4215 118.255 35.4215 118.368 35.3552 118.435L34.4702 119.559C34.4259 119.627 34.3596 119.649 34.2932 119.649Z" fill="#16BCD4"/>
<path d="M38.7181 119.649C38.6518 119.649 38.5854 119.627 38.5412 119.559L37.6562 118.435C37.5898 118.345 37.5898 118.233 37.6562 118.165L38.5412 117.041C38.6075 116.951 38.7624 116.929 38.8509 116.996C38.9394 117.064 38.9615 117.221 38.8951 117.311L38.1208 118.3L38.8951 119.289C38.9615 119.379 38.9615 119.537 38.8509 119.604C38.8066 119.627 38.7624 119.649 38.7181 119.649Z" fill="#16BCD4"/>
<path d="M25.0008 113.219H22.1246V110.297C22.1246 110.162 22.0361 110.072 21.9034 110.072C21.7706 110.072 21.6821 110.162 21.6821 110.297V113.219H18.8059C18.6732 113.219 18.5847 113.309 18.5847 113.444C18.5847 113.579 18.6732 113.669 18.8059 113.669H21.6821V116.592C21.6821 116.726 21.7706 116.816 21.9034 116.816C22.0361 116.816 22.1246 116.726 22.1246 116.592V113.669H25.0008C25.1336 113.669 25.2221 113.579 25.2221 113.444C25.2221 113.309 25.1336 113.219 25.0008 113.219Z" fill="#2197F3"/>
<path d="M21.9034 112.32C21.8592 112.32 21.8149 112.298 21.7707 112.275L20.6644 111.376C20.5759 111.309 20.5538 111.151 20.6202 111.061C20.6866 110.971 20.8414 110.949 20.9299 111.016L21.9034 111.803L22.8769 111.016C22.9654 110.949 23.1203 110.949 23.1867 111.061C23.253 111.151 23.253 111.309 23.1424 111.376L22.0362 112.275C21.9919 112.298 21.9477 112.32 21.9034 112.32Z" fill="#16BCD4"/>
<path d="M23.0096 115.917C22.9654 115.917 22.9212 115.895 22.8769 115.872L21.9034 115.085L20.9299 115.872C20.8414 115.94 20.6866 115.94 20.6202 115.827C20.5538 115.737 20.5538 115.58 20.6644 115.512L21.7707 114.613C21.8592 114.546 21.9698 114.546 22.0362 114.613L23.1424 115.512C23.2309 115.58 23.253 115.737 23.1866 115.827C23.1424 115.895 23.076 115.917 23.0096 115.917Z" fill="#16BCD4"/>
<path d="M19.691 114.793C19.6467 114.793 19.6025 114.771 19.5582 114.748C19.4697 114.681 19.4476 114.523 19.514 114.433L20.2883 113.444L19.514 112.455C19.4476 112.365 19.4476 112.208 19.5582 112.14C19.6467 112.073 19.8016 112.073 19.868 112.185L20.7529 113.309C20.8193 113.399 20.8193 113.512 20.7529 113.579L19.868 114.703C19.8237 114.771 19.7573 114.793 19.691 114.793Z" fill="#16BCD4"/>
<path d="M24.1159 114.793C24.0495 114.793 23.9831 114.771 23.9389 114.703L23.0539 113.579C22.9875 113.489 22.9875 113.377 23.0539 113.309L23.9389 112.185C24.0052 112.095 24.1601 112.073 24.2486 112.14C24.3371 112.208 24.3592 112.365 24.2928 112.455L23.5185 113.444L24.2928 114.433C24.3592 114.523 24.3592 114.681 24.2486 114.748C24.2044 114.771 24.1601 114.793 24.1159 114.793Z" fill="#16BCD4"/>
<path d="M49.9574 138.849H47.0812V135.926C47.0812 135.791 46.9927 135.701 46.86 135.701C46.7272 135.701 46.6387 135.791 46.6387 135.926V138.849H43.7625C43.6298 138.849 43.5413 138.939 43.5413 139.073C43.5413 139.208 43.6298 139.298 43.7625 139.298H46.6387V142.221C46.6387 142.356 46.7272 142.446 46.86 142.446C46.9927 142.446 47.0812 142.356 47.0812 142.221V139.298H49.9574C50.0902 139.298 50.1787 139.208 50.1787 139.073C50.1787 138.939 50.0902 138.849 49.9574 138.849Z" fill="#2197F3"/>
<path d="M46.86 137.95C46.8158 137.95 46.7715 137.927 46.7273 137.905L45.6211 137.005C45.5326 136.938 45.5104 136.781 45.5768 136.691C45.6432 136.601 45.798 136.578 45.8865 136.646L46.86 137.433L47.8335 136.646C47.922 136.578 48.0769 136.578 48.1433 136.691C48.2096 136.781 48.2096 136.938 48.099 137.005L46.9928 137.905C46.9485 137.927 46.9043 137.95 46.86 137.95Z" fill="#16BCD4"/>
<path d="M47.9663 141.546C47.922 141.546 47.8778 141.524 47.8335 141.501L46.86 140.715L45.8865 141.501C45.798 141.569 45.6432 141.569 45.5768 141.457C45.5104 141.367 45.5104 141.209 45.621 141.142L46.7273 140.242C46.8158 140.175 46.9264 140.175 46.9928 140.242L48.099 141.142C48.1875 141.209 48.2096 141.367 48.1433 141.457C48.099 141.524 48.0326 141.546 47.9663 141.546Z" fill="#16BCD4"/>
<path d="M44.6475 140.423C44.6033 140.423 44.559 140.4 44.5148 140.378C44.4263 140.31 44.4042 140.153 44.4705 140.063L45.2449 139.074L44.4705 138.084C44.4042 137.994 44.4042 137.837 44.5148 137.77C44.6033 137.702 44.7581 137.702 44.8245 137.815L45.7095 138.939C45.7759 139.029 45.7759 139.141 45.7095 139.209L44.8245 140.333C44.7803 140.4 44.7139 140.423 44.6475 140.423Z" fill="#16BCD4"/>
<path d="M49.0725 140.422C49.0061 140.422 48.9397 140.4 48.8955 140.332L48.0105 139.208C47.9441 139.118 47.9441 139.006 48.0105 138.938L48.8955 137.814C48.9618 137.724 49.1167 137.702 49.2052 137.769C49.2937 137.837 49.3158 137.994 49.2495 138.084L48.4751 139.073L49.2495 140.062C49.3158 140.152 49.3158 140.31 49.2052 140.377C49.161 140.4 49.1167 140.422 49.0725 140.422Z" fill="#16BCD4"/>
<path fill-rule="evenodd" clip-rule="evenodd" d="M19.0493 72.5416C8.52573 72.5416 0 63.8782 0 53.1846C0 42.609 8.33988 34.0164 18.7241 33.8276C19.9553 14.9191 35.4271 0 54.3138 0C69.5765 0 82.609 9.72572 87.6966 23.4173C89.1369 23.1576 90.6004 23.016 92.0872 23.016C104.469 23.016 114.714 32.4112 116.247 44.5684C123.844 44.5684 130 50.8476 130 58.5432C130 66.1679 124.03 72.3528 116.596 72.5416C84.0725 72.9901 51.5726 72.5416 19.0493 72.5416Z" fill="#646A6D"/>
</svg>
