<svg width="130" height="135" viewBox="0 0 130 135" fill="none" xmlns="http://www.w3.org/2000/svg">
<g clip-path="url(#clip0_73_37)">
<path d="M32.9494 73.125C32.1664 68.2874 32.4083 63.3306 33.6583 58.5999C34.9083 53.8693 37.1364 49.4785 40.1872 45.7333C43.2381 41.9881 47.0385 38.9786 51.3237 36.9143C55.609 34.8501 60.276 33.7807 64.9998 33.7807C69.7237 33.7807 74.3907 34.8501 78.6759 36.9143C82.9612 38.9786 86.7616 41.9881 89.8124 45.7333C92.8633 49.4785 95.0913 53.8693 96.3413 58.5999C97.5913 63.3306 97.8333 68.2874 97.0503 73.125H32.9494ZM10.8332 84.375H64.9998V95.625H10.8332V84.375ZM75.8332 84.375H119.166V95.625H75.8332V84.375ZM86.6665 106.875H108.333V118.125H86.6665V106.875ZM21.6665 106.875H75.8332V118.125H21.6665V106.875ZM59.5832 5.625H70.4165V22.5H59.5832V5.625ZM19.0394 27.7256L26.6986 19.7719L38.1873 31.7025L30.5282 39.6563L19.0394 27.7256ZM103.296 19.7719L110.955 27.7256L99.4661 39.6563L91.8069 31.7025L103.296 19.7719ZM124.583 61.875V73.125H108.333V61.875H124.583ZM21.6665 61.875V73.125H5.4165V61.875H21.6665Z" fill="black"/>
</g>
<defs>
<clipPath id="clip0_73_37">
<rect width="130" height="135" fill="white"/>
</clipPath>
</defs>
</svg>
