<svg width="130" height="130" viewBox="0 0 130 130" fill="none" xmlns="http://www.w3.org/2000/svg">
<g clip-path="url(#clip0_73_41)">
<path d="M32.5002 93.4375C32.5002 92.36 32.9282 91.3267 33.69 90.5649C34.4519 89.803 35.4852 89.375 36.5627 89.375H109.688C110.765 89.375 111.798 89.803 112.56 90.5649C113.322 91.3267 113.75 92.36 113.75 93.4375C113.75 94.5149 113.322 95.5482 112.56 96.3101C111.798 97.072 110.765 97.5 109.688 97.5H36.5627C35.4852 97.5 34.4519 97.072 33.69 96.3101C32.9282 95.5482 32.5002 94.5149 32.5002 93.4375ZM8.12517 109.687C8.12517 108.61 8.55318 107.577 9.31505 106.815C10.0769 106.053 11.1102 105.625 12.1877 105.625H85.3127C86.3901 105.625 87.4234 106.053 88.1853 106.815C88.9472 107.577 89.3752 108.61 89.3752 109.687C89.3752 110.765 88.9472 111.798 88.1853 112.56C87.4234 113.322 86.3901 113.75 85.3127 113.75H12.1877C11.1102 113.75 10.0769 113.322 9.31505 112.56C8.55318 111.798 8.12517 110.765 8.12517 109.687ZM24.3752 125.937C24.3752 124.86 24.8032 123.827 25.565 123.065C26.3269 122.303 27.3602 121.875 28.4377 121.875H101.563C102.64 121.875 103.673 122.303 104.435 123.065C105.197 123.827 105.625 124.86 105.625 125.937C105.625 127.015 105.197 128.048 104.435 128.81C103.673 129.572 102.64 130 101.563 130H28.4377C27.3602 130 26.3269 129.572 25.565 128.81C24.8032 128.048 24.3752 127.015 24.3752 125.937ZM108.916 32.7194C107.229 24.2138 102.864 16.4711 96.4618 10.6232C90.0591 4.77543 81.9535 1.12924 73.3303 0.217803C64.707 -0.693637 56.0183 1.17748 48.5345 5.55756C41.0508 9.93765 35.1645 16.597 31.7364 24.5619C27.892 24.119 23.9976 24.4654 20.2917 25.58C16.5858 26.6945 13.1464 28.5537 10.184 31.0438C7.22165 33.5338 4.79869 36.6023 3.06346 40.0613C1.32824 43.5204 0.317273 47.2972 0.0924613 51.1605C-0.132351 55.0238 0.433722 58.8924 1.75602 62.5294C3.07832 66.1663 5.12902 69.4951 7.78257 72.3119C10.4361 75.1288 13.6367 77.3744 17.1883 78.9113C20.7399 80.4482 24.5678 81.244 28.4377 81.25H105.625C111.809 81.2571 117.765 78.9134 122.285 74.6937C126.806 70.474 129.554 64.6938 129.972 58.524C130.391 52.3541 128.448 46.2559 124.538 41.4646C120.629 36.6733 115.044 33.5471 108.916 32.7194Z" fill="black"/>
</g>
<defs>
<clipPath id="clip0_73_41">
<rect width="130" height="130" fill="white"/>
</clipPath>
</defs>
</svg>
