<svg width="130" height="130" viewBox="0 0 130 130" fill="none" xmlns="http://www.w3.org/2000/svg">
<g clip-path="url(#clip0_73_33)">
<path d="M100.753 45.249C99.0241 37.0481 94.528 29.691 88.0188 24.4112C81.5097 19.1315 73.3833 16.25 65.002 16.25C56.6208 16.25 48.4944 19.1315 41.9852 24.4112C35.4761 29.691 30.98 37.0481 29.2508 45.249C23.3033 46.4884 17.961 49.7307 14.1161 54.4344C10.2712 59.1382 8.15645 65.0187 8.125 71.0939V77.1876C8.125 78.2651 8.55301 79.2984 9.31488 80.0602C10.0767 80.8221 11.1101 81.2501 12.1875 81.2501H60.9375C62.0149 81.2501 63.0483 80.8221 63.8101 80.0602C64.572 79.2984 65 78.2651 65 77.1876C65 76.1102 64.572 75.0768 63.8101 74.315C63.0483 73.5531 62.0149 73.1251 60.9375 73.1251H16.25V71.1077C16.2706 66.5172 18.0107 62.101 21.1272 58.7304C24.2437 55.3598 28.5102 53.2795 33.085 52.8999L36.398 52.64L36.8006 49.3412C37.6426 42.4545 40.9755 36.1138 46.1706 31.5153C51.3658 26.9167 58.064 24.378 65.002 24.378C71.9401 24.378 78.6383 26.9167 83.8334 31.5153C89.0286 36.1138 92.3614 42.4545 93.2035 49.3412L93.6041 52.64L96.9166 52.8999C101.623 53.2709 106.003 55.4498 109.138 58.9797C112.274 62.5096 113.92 67.1163 113.733 71.8338C113.546 76.5512 111.539 81.0129 108.134 84.2833C104.729 87.5536 100.19 89.3784 95.4688 89.3751H28.4375C27.3601 89.3751 26.3267 89.8031 25.5649 90.565C24.803 91.3269 24.375 92.3602 24.375 93.4376C24.375 94.5151 24.803 95.5484 25.5649 96.3102C26.3267 97.0721 27.3601 97.5001 28.4375 97.5001H95.4688C102.011 97.5039 108.321 95.0776 113.176 90.6918C118.031 86.3061 121.083 80.2735 121.741 73.7645C122.4 67.2554 120.617 60.7339 116.739 55.4649C112.861 50.196 107.164 46.5553 100.753 45.249Z" fill="black"/>
<path d="M77.1875 105.625H12.1875C9.94384 105.625 8.125 107.444 8.125 109.688C8.125 111.931 9.94384 113.75 12.1875 113.75H77.1875C79.4312 113.75 81.25 111.931 81.25 109.688C81.25 107.444 79.4312 105.625 77.1875 105.625Z" fill="black"/>
</g>
<defs>
<clipPath id="clip0_73_33">
<rect width="130" height="130" fill="white"/>
</clipPath>
</defs>
</svg>
