<svg width="130" height="130" viewBox="0 0 130 130" fill="none" xmlns="http://www.w3.org/2000/svg">
<path d="M106.384 30.0548C104.614 21.5553 100.01 13.9304 93.3444 8.45837C86.6792 2.98636 78.3579 0 69.7757 0C61.1934 0 52.8721 2.98636 46.2069 8.45837C39.5417 13.9304 34.9378 21.5553 33.1671 30.0548C27.077 31.3393 21.6066 34.6996 17.6695 39.5746C13.7323 44.4497 11.5669 50.5442 11.5347 56.8406V63.1562C11.5347 64.2729 11.9729 65.3438 12.7531 66.1334C13.5332 66.923 14.5913 67.3666 15.6946 67.3666H65.6137C66.7169 67.3666 67.775 66.923 68.5552 66.1334C69.3353 65.3438 69.7736 64.2729 69.7736 63.1562C69.7736 62.0395 69.3353 60.9686 68.5552 60.179C67.775 59.3894 66.7169 58.9458 65.6137 58.9458H19.8545V56.8549C19.8756 52.0973 21.6574 47.5203 24.8487 44.027C28.0399 40.5337 32.4087 38.3777 37.0932 37.9843L40.4856 37.7148L40.8979 34.296C41.7601 27.1585 45.173 20.587 50.4927 15.821C55.8124 11.055 62.6712 8.42388 69.7757 8.42388C76.8801 8.42388 83.7389 11.055 89.0587 15.821C94.3784 20.587 97.7912 27.1585 98.6534 34.296L99.0636 37.7148L102.456 37.9843C107.275 38.3687 111.76 40.6269 114.971 44.2854C118.181 47.9438 119.867 52.7183 119.675 57.6075C119.483 62.4967 117.429 67.1208 113.942 70.5102C110.455 73.8996 105.807 75.7908 100.973 75.7874H32.3343C31.231 75.7874 30.1729 76.231 29.3928 77.0206C28.6126 77.8102 28.1744 78.8812 28.1744 79.9978C28.1744 81.1145 28.6126 82.1854 29.3928 82.975C30.1729 83.7646 31.231 84.2082 32.3343 84.2082H100.973C107.672 84.2122 114.134 81.6975 119.105 77.1521C124.076 72.6066 127.201 66.3545 127.876 59.6084C128.55 52.8624 126.724 46.1034 122.753 40.6426C118.782 35.1819 112.948 31.4086 106.384 30.0548Z" fill="black"/>
<rect width="94.1487" height="5.04854" rx="2.52427" transform="matrix(1 0 0 -1 35.8516 97.8154)" fill="black"/>
<rect width="94.1487" height="5.04854" rx="2.52427" transform="matrix(1 0 0 -1 0 106.02)" fill="black"/>
<rect width="94.1487" height="5.04854" rx="2.52427" transform="matrix(1 0 0 -1 33.981 119.587)" fill="black"/>
<rect width="94.1487" height="5.04854" rx="2.52427" transform="matrix(1 0 0 -1 0 130)" fill="black"/>
</svg>
