<svg width="130" height="130" viewBox="0 0 130 130" fill="none" xmlns="http://www.w3.org/2000/svg">
<path d="M19.366 6.17094C0.832868 9.98563 7.24552 26.26 7.24552 26.26C2.88849 32.3598 3.14646 40.9094 7.14802 47.192C10.5646 52.5545 7.12568 61.5225 17.0138 71.7031C18.5718 73.3058 12.8091 82.1722 24.3161 90.6953C26.8247 92.5539 30.7532 95.6312 29.7619 100.242C28.5269 105.985 39.8918 111.272 41.8966 117.611C46.0932 130.896 62.4651 126.882 69.9644 115.41C69.9644 115.41 67.3076 116.208 66.4097 114.418C74.6566 110.275 76.0074 99.5698 65.2418 98.5481C74.8922 90.1875 70.4357 79.1598 84.8251 76.7102C96.4926 74.7236 98.5258 69.743 98.5258 69.743C114.366 69.8222 136.738 59.1358 118.034 35.8536C149.082 45.5589 82.9258 -6.91031 19.366 6.17094ZM11.9458 32.8514C14.5438 35.5713 17.5094 37.9072 20.5685 40.0847C18.2163 40.6981 15.9311 41.5695 13.9446 43.0117C12.4252 40.0928 10.7413 36.138 11.9458 32.8514ZM18.2082 59.9117C22.6566 64.9167 28.0638 65.9831 28.0638 65.9831C24.1679 67.8722 19.0268 68.7517 18.2082 59.9117ZM30.5805 93.6569C30.5805 93.6569 33.4344 93.7239 33.4933 94.4613C33.9077 99.9253 30.5805 93.6569 30.5805 93.6569ZM35.1508 92.5011C26.1686 89.8259 30.2799 88.0831 42.6197 90.8944C57.1574 94.2053 65.7211 90.35 61.8191 93.1572C60.1311 94.3719 51.4049 97.3477 35.1508 92.5011ZM47.7263 100.945C50.2836 97.1303 72.0221 94.4084 56.4038 100.197C54.3665 100.951 46.794 102.334 47.7263 100.945ZM41.5615 97.3863C44.7079 94.1748 51.3947 97.0348 51.3947 97.0348C51.3947 97.0348 46.0911 98.5116 41.5615 97.3863ZM44.2976 107.784C44.2955 107.788 44.2976 107.79 44.2935 107.792L44.2894 107.796C42.6644 110.244 38.5268 105.603 38.5958 103.618C38.7421 99.4561 50.6351 102.881 50.6351 102.881C50.6351 102.881 45.7865 105.538 44.2976 107.784ZM49.5422 107.124C52.1179 103.805 72.0972 102.67 57.4966 106.978C55.5933 107.538 48.6038 108.331 49.5422 107.124ZM49.8591 117.4C53.2086 117.451 56.5683 117.197 59.863 116.561C57.8216 118.94 54.0618 122.176 49.8591 117.4ZM57.8054 112.919C56.0402 113.228 49.6966 113.23 50.6635 112.247C53.3224 109.535 71.3335 110.541 57.8054 112.919ZM54.8661 108.964C60.2652 106.431 63.8544 106.604 63.8544 106.604C63.8544 106.604 59.7838 109.856 54.8661 108.964ZM68.2379 83.7403C67.0191 85.3023 59.2557 89.5009 46.1765 86.058C20.9036 89.1272 22.5144 76.1942 25.6629 77.9878C30.8161 80.927 36.3716 83.1472 42.0815 84.7641C38.6062 83.5053 35.2496 81.9406 32.0511 80.0881C21.8116 74.2056 27.1944 74.1142 42.0936 79.9663C59.6538 86.8644 71.7519 79.2127 68.2379 83.7403ZM71.1222 74.6058C69.9015 75.3513 65.709 76.3811 59.3938 75.92C62.0771 76.8523 64.9391 77.7563 68.0591 78.4956C62.1238 80.0597 41.7829 79.562 32.2197 72.152C34.39 71.062 36.7752 70.4675 39.2032 70.4113C33.7513 67.9088 27.8241 64.3866 21.574 59.473C9.22802 49.7616 16.8208 51.3053 35.7176 62.4041C57.9882 75.4833 77.6222 70.6123 71.1222 74.6058ZM75.9038 69.225C63.7366 70.5108 56.2535 66.7713 56.2535 66.7713C56.2535 66.7713 70.6246 67.858 68.0449 65.3575C59.3755 56.9461 30.1804 68.7842 18.2386 49.0506C23.6966 44.137 30.0361 46.2841 35.4393 49.3411C25.5186 55.7111 36.2213 51.6445 41.9819 52.8856C43.4221 53.1964 45.0735 53.5945 46.8366 54.0577C39.7049 50.3181 32.0024 45.2827 24.1293 38.5064C10.5199 26.7881 19.6565 31.1695 41.5493 46.0667C67.3563 63.6248 93.4944 63.1617 83.7444 64.3378C81.9204 64.5572 76.3751 64.4028 68.4938 62.4366C71.9246 64.4719 74.6383 66.7489 75.9038 69.225ZM83.2041 67.7767C84.4391 68.8147 89.7102 67.9027 89.7102 67.9027C86.6572 69.7247 81.7721 73.1189 83.2041 67.7767ZM28.3238 35.4798C64.348 38.5206 86.9782 48.3255 91.5485 61.1C64.283 58.8209 75.0222 45.7458 28.3238 35.4798ZM113.559 60.125C113.143 48.4514 94.1952 30.4119 103.411 49.9789C107.346 58.3294 102.663 64.9817 98.5319 58.4817C78.583 27.0969 36.8977 39.1483 18.848 28.3238C36.8327 19.5406 107.549 44.5534 89.5944 36.3553C37.3547 12.5044 13.5708 25.5105 13.5729 19.7722C13.5769 9.03703 49.1116 2.94531 96.6896 23.8631C38.2485 12.3744 32.2685 18.5331 42.0632 19.5223C113.573 26.7495 125.743 48.1345 113.559 60.125Z" fill="black"/>
</svg>
