<svg width="130" height="130" viewBox="0 0 130 130" fill="none" xmlns="http://www.w3.org/2000/svg">
<path d="M69.5822 5.10973C69.4801 2.62561 71.3969 0.536348 73.8512 0.43134C76.3054 0.326332 78.3868 2.24452 78.4889 4.72864C78.4906 4.76913 78.4902 4.80924 78.488 4.84885L78.4987 4.96683L78.542 6.02247C79.0352 5.75559 79.5902 5.5945 80.1821 5.56917C82.3897 5.47472 84.2196 7.15824 84.3138 9.45237C84.4013 11.5808 83.5629 12.8105 82.1282 13.501C81.5508 13.7789 80.8623 13.5252 80.5906 12.9341C80.3188 12.3431 80.5667 11.6387 81.1442 11.3608C81.7843 11.0526 82.0503 10.6625 82.0047 9.55117C81.9645 8.5741 81.2229 7.89181 80.2792 7.93219C79.4147 7.96918 78.7126 8.74934 78.6972 9.71749L78.6979 9.81562L79.3656 26.0664C79.3924 26.719 78.8972 27.2701 78.2595 27.2973C77.6538 27.3233 77.1373 26.8671 77.0642 26.262L77.0564 26.1652L76.1895 5.06563C76.1879 5.02508 76.1882 4.98492 76.1905 4.94526L76.1876 4.92418L76.1798 4.82744C76.1318 3.65949 75.1378 2.74346 73.9482 2.79436C72.7587 2.84525 71.8434 3.84298 71.8913 5.01093C71.9302 5.95697 72.525 6.70949 73.3928 6.88413C74.019 7.01015 74.427 7.63181 74.304 8.27263C74.181 8.91346 73.5736 9.33079 72.9473 9.20476C71.0027 8.81344 69.6648 7.12058 69.5822 5.10973ZM62.0771 15.4768C61.9469 12.3076 64.3519 9.63111 67.4488 9.4986C70.4894 9.3685 73.0665 11.7391 73.2825 14.8248L73.292 14.9969L73.7576 26.3051C73.7844 26.9576 73.2893 27.5088 72.6517 27.5361C72.0459 27.562 71.5294 27.1059 71.4563 26.5008L71.4484 26.4041L70.9829 15.0958C70.9063 13.2316 69.3675 11.7837 67.5459 11.8616C65.7243 11.9396 64.3097 13.5139 64.3863 15.378C64.4625 17.2326 65.8188 18.618 67.5328 18.6214L67.6764 18.6184C68.3141 18.5911 68.8527 19.098 68.8795 19.7505C68.9063 20.4031 68.4112 20.9541 67.7735 20.9814C64.6922 21.1133 62.2081 18.664 62.0771 15.4768Z" fill="#212121"/>
<path d="M67.3487 28.6715L70.1987 27.4585L73.1617 27.4585L43.9055 100.002L6.57727 116.763L0.290541 116.763L1.29645 113.427L3.72731 111.545L6.57727 109.064L10.4331 108.491L16.8875 105.557L22.0845 103.504L25.6888 97.4309L31.1373 92.8972L32.8138 88.7058L36.7534 88.0214L38.4299 81.3646L48.9916 61.6046L53.518 52.7084L58.7988 46.2929L67.3487 28.6715Z" fill="black"/>
<path d="M77.7427 23.9863L81.85 24.8921L85.7896 24.8921L92.5793 43.7966L102.973 60.306L113.2 75.6178L115.798 84.4285L122.588 96.6581L126.695 113.17L125.773 117.019L106.691 96.6581L77.7427 23.9863Z" fill="black"/>
<path d="M78.1615 25.8335L82.3526 24.8926L85.1188 28.3142L89.4776 40.6321L97.5245 53.2066L106.074 65.61L118.732 89.5614L124.012 103.676L125.521 110.433V116.678H6.49316L38.2619 90.4168L51.003 65.61L55.9485 52.5222L62.2352 40.6321L67.3484 28.3142L69.6954 24.8926L73.0483 25.8335H78.1615Z" fill="#271C1C"/>
</svg>
