<svg width="138" height="142" viewBox="0 0 138 142" fill="none" xmlns="http://www.w3.org/2000/svg">
<g filter="url(#filter0_d_142_1220)">
<path d="M69.0656 104.719C88.3503 104.719 103.984 89.0857 103.984 69.801C103.984 50.5162 88.3503 34.8828 69.0656 34.8828C49.7808 34.8828 34.1475 50.5162 34.1475 69.801C34.1475 89.0857 49.7808 104.719 69.0656 104.719Z" fill="#F8B62D"/>
<path d="M100.83 69.0001C100.723 82.1479 92.4832 94.4022 79.9901 98.8905C73.762 101.121 66.9986 101.38 60.6178 99.6344C54.237 97.8886 48.5479 94.2217 44.3226 89.1316C35.8731 78.9073 34.9013 63.9559 41.6955 52.624C48.4897 41.292 62.1852 35.1031 75.2136 37.7673C82.4071 39.2673 88.8709 43.1835 93.5308 48.8652C98.1908 54.547 100.766 61.6521 100.83 69.0001C100.863 72.9737 107.039 72.9819 107.006 69.0001C106.938 61.1966 104.5 53.5981 100.014 47.2125C95.5278 40.827 89.2065 35.9561 81.8884 33.246C67.0317 27.7736 49.5562 32.6201 39.6119 44.9156C29.6677 57.2111 28.1688 74.8308 36.3589 88.4933C44.5943 102.242 60.8881 109.337 76.5807 106.245C94.1839 102.765 106.883 86.7721 107.006 69.0001C107.039 65.0265 100.863 65.0224 100.83 69.0001Z" fill="#FF8A00"/>
<g filter="url(#filter1_d_142_1220)">
<path d="M72.0883 20.1599V6.98328C72.0883 3.00969 65.9117 3.00146 65.9117 6.98328V20.1599C65.9117 24.1335 72.0883 24.1418 72.0883 20.1599Z" fill="#FF8A00"/>
</g>
<g filter="url(#filter2_d_142_1220)">
<path d="M47.2462 25.1419L40.6579 13.74C38.669 10.2976 33.3325 13.4064 35.3049 16.8571L41.8932 28.259C43.882 31.7014 49.2186 28.5925 47.2462 25.1419Z" fill="#FF8A00"/>
</g>
<g filter="url(#filter3_d_142_1220)">
<path d="M28.2595 41.9133L16.8575 35.3249C13.4069 33.332 10.2939 38.6685 13.7404 40.6779L25.1424 47.2663C28.593 49.2593 31.706 43.9227 28.2595 41.9133Z" fill="#FF8A00"/>
</g>
<g filter="url(#filter4_d_142_1220)">
<path d="M20.1599 65.9121H6.98328C3.00969 65.9121 3.00146 72.0887 6.98328 72.0887H20.1599C24.1335 72.0887 24.1417 65.9121 20.1599 65.9121Z" fill="#FF8A00"/>
</g>
<g filter="url(#filter5_d_142_1220)">
<path d="M25.1423 90.7545L13.7404 97.3428C10.298 99.3316 13.4069 104.668 16.8575 102.696L28.2594 96.1075C31.7018 94.1186 28.5929 88.7821 25.1423 90.7545Z" fill="#FF8A00"/>
</g>
<g filter="url(#filter6_d_142_1220)">
<path d="M41.9138 109.741L35.3255 121.143C33.3325 124.593 38.6691 127.706 40.6785 124.26L47.2668 112.858C49.2598 109.407 43.9232 106.294 41.9138 109.741Z" fill="#FF8A00"/>
</g>
<g filter="url(#filter7_d_142_1220)">
<path d="M65.9117 117.84V131.016C65.9117 134.99 72.0883 134.998 72.0883 131.016V117.84C72.0883 113.866 65.9117 113.858 65.9117 117.84Z" fill="#FF8A00"/>
</g>
<g filter="url(#filter8_d_142_1220)">
<path d="M90.7538 112.858L97.3421 124.26C99.331 127.702 104.668 124.594 102.695 121.143L96.1068 109.741C94.1179 106.299 88.7814 109.407 90.7538 112.858Z" fill="#FF8A00"/>
</g>
<g filter="url(#filter9_d_142_1220)">
<path d="M109.741 96.0862L121.142 102.674C124.593 104.667 127.706 99.3309 124.26 97.3215L112.858 90.7331C109.407 88.7402 106.294 94.0767 109.741 96.0862Z" fill="#FF8A00"/>
</g>
<g filter="url(#filter10_d_142_1220)">
<path d="M117.84 72.0887H131.017C134.99 72.0887 134.998 65.9121 131.017 65.9121H117.84C113.866 65.9121 113.858 72.0887 117.84 72.0887Z" fill="#FF8A00"/>
</g>
<g filter="url(#filter11_d_142_1220)">
<path d="M112.858 47.2466L124.26 40.6583C127.702 38.6694 124.593 33.3329 121.142 35.3052L109.741 41.8936C106.298 43.8824 109.407 49.219 112.858 47.2466Z" fill="#FF8A00"/>
</g>
<g filter="url(#filter12_d_142_1220)">
<path d="M96.0862 28.2589L102.675 16.8569C104.667 13.4063 99.331 10.2933 97.3215 13.7398L90.7332 25.1418C88.7402 28.5924 94.0768 31.7054 96.0862 28.2589Z" fill="#FF8A00"/>
</g>
</g>
<defs>
<filter id="filter0_d_142_1220" x="0" y="0" width="138" height="138" filterUnits="userSpaceOnUse" color-interpolation-filters="sRGB">
<feFlood flood-opacity="0" result="BackgroundImageFix"/>
<feColorMatrix in="SourceAlpha" type="matrix" values="0 0 0 0 0 0 0 0 0 0 0 0 0 0 0 0 0 0 127 0" result="hardAlpha"/>
<feOffset/>
<feGaussianBlur stdDeviation="2"/>
<feComposite in2="hardAlpha" operator="out"/>
<feColorMatrix type="matrix" values="0 0 0 0 1 0 0 0 0 0.6 0 0 0 0 0 0 0 0 0.25 0"/>
<feBlend mode="normal" in2="BackgroundImageFix" result="effect1_dropShadow_142_1220"/>
<feBlend mode="normal" in="SourceGraphic" in2="effect1_dropShadow_142_1220" result="shape"/>
</filter>
<filter id="filter1_d_142_1220" x="61.9117" y="4" width="14.1766" height="27.1436" filterUnits="userSpaceOnUse" color-interpolation-filters="sRGB">
<feFlood flood-opacity="0" result="BackgroundImageFix"/>
<feColorMatrix in="SourceAlpha" type="matrix" values="0 0 0 0 0 0 0 0 0 0 0 0 0 0 0 0 0 0 127 0" result="hardAlpha"/>
<feOffset dy="4"/>
<feGaussianBlur stdDeviation="2"/>
<feComposite in2="hardAlpha" operator="out"/>
<feColorMatrix type="matrix" values="0 0 0 0 0 0 0 0 0 0 0 0 0 0 0 0 0 0 0.25 0"/>
<feBlend mode="normal" in2="BackgroundImageFix" result="effect1_dropShadow_142_1220"/>
<feBlend mode="normal" in="SourceGraphic" in2="effect1_dropShadow_142_1220" result="shape"/>
</filter>
<filter id="filter2_d_142_1220" x="30.8746" y="12.2422" width="20.8018" height="25.5146" filterUnits="userSpaceOnUse" color-interpolation-filters="sRGB">
<feFlood flood-opacity="0" result="BackgroundImageFix"/>
<feColorMatrix in="SourceAlpha" type="matrix" values="0 0 0 0 0 0 0 0 0 0 0 0 0 0 0 0 0 0 127 0" result="hardAlpha"/>
<feOffset dy="4"/>
<feGaussianBlur stdDeviation="2"/>
<feComposite in2="hardAlpha" operator="out"/>
<feColorMatrix type="matrix" values="0 0 0 0 0 0 0 0 0 0 0 0 0 0 0 0 0 0 0.25 0"/>
<feBlend mode="normal" in2="BackgroundImageFix" result="effect1_dropShadow_142_1220"/>
<feBlend mode="normal" in="SourceGraphic" in2="effect1_dropShadow_142_1220" result="shape"/>
</filter>
<filter id="filter3_d_142_1220" x="8.24084" y="34.8867" width="25.5182" height="20.8174" filterUnits="userSpaceOnUse" color-interpolation-filters="sRGB">
<feFlood flood-opacity="0" result="BackgroundImageFix"/>
<feColorMatrix in="SourceAlpha" type="matrix" values="0 0 0 0 0 0 0 0 0 0 0 0 0 0 0 0 0 0 127 0" result="hardAlpha"/>
<feOffset dy="4"/>
<feGaussianBlur stdDeviation="2"/>
<feComposite in2="hardAlpha" operator="out"/>
<feColorMatrix type="matrix" values="0 0 0 0 0 0 0 0 0 0 0 0 0 0 0 0 0 0 0.25 0"/>
<feBlend mode="normal" in2="BackgroundImageFix" result="effect1_dropShadow_142_1220"/>
<feBlend mode="normal" in="SourceGraphic" in2="effect1_dropShadow_142_1220" result="shape"/>
</filter>
<filter id="filter4_d_142_1220" x="0" y="65.9121" width="27.1432" height="14.1768" filterUnits="userSpaceOnUse" color-interpolation-filters="sRGB">
<feFlood flood-opacity="0" result="BackgroundImageFix"/>
<feColorMatrix in="SourceAlpha" type="matrix" values="0 0 0 0 0 0 0 0 0 0 0 0 0 0 0 0 0 0 127 0" result="hardAlpha"/>
<feOffset dy="4"/>
<feGaussianBlur stdDeviation="2"/>
<feComposite in2="hardAlpha" operator="out"/>
<feColorMatrix type="matrix" values="0 0 0 0 0 0 0 0 0 0 0 0 0 0 0 0 0 0 0.25 0"/>
<feBlend mode="normal" in2="BackgroundImageFix" result="effect1_dropShadow_142_1220"/>
<feBlend mode="normal" in="SourceGraphic" in2="effect1_dropShadow_142_1220" result="shape"/>
</filter>
<filter id="filter5_d_142_1220" x="8.24261" y="90.3242" width="25.5146" height="20.8018" filterUnits="userSpaceOnUse" color-interpolation-filters="sRGB">
<feFlood flood-opacity="0" result="BackgroundImageFix"/>
<feColorMatrix in="SourceAlpha" type="matrix" values="0 0 0 0 0 0 0 0 0 0 0 0 0 0 0 0 0 0 127 0" result="hardAlpha"/>
<feOffset dy="4"/>
<feGaussianBlur stdDeviation="2"/>
<feComposite in2="hardAlpha" operator="out"/>
<feColorMatrix type="matrix" values="0 0 0 0 0 0 0 0 0 0 0 0 0 0 0 0 0 0 0.25 0"/>
<feBlend mode="normal" in2="BackgroundImageFix" result="effect1_dropShadow_142_1220"/>
<feBlend mode="normal" in="SourceGraphic" in2="effect1_dropShadow_142_1220" result="shape"/>
</filter>
<filter id="filter6_d_142_1220" x="30.8873" y="108.241" width="20.8177" height="25.5186" filterUnits="userSpaceOnUse" color-interpolation-filters="sRGB">
<feFlood flood-opacity="0" result="BackgroundImageFix"/>
<feColorMatrix in="SourceAlpha" type="matrix" values="0 0 0 0 0 0 0 0 0 0 0 0 0 0 0 0 0 0 127 0" result="hardAlpha"/>
<feOffset dy="4"/>
<feGaussianBlur stdDeviation="2"/>
<feComposite in2="hardAlpha" operator="out"/>
<feColorMatrix type="matrix" values="0 0 0 0 0 0 0 0 0 0 0 0 0 0 0 0 0 0 0.25 0"/>
<feBlend mode="normal" in2="BackgroundImageFix" result="effect1_dropShadow_142_1220"/>
<feBlend mode="normal" in="SourceGraphic" in2="effect1_dropShadow_142_1220" result="shape"/>
</filter>
<filter id="filter7_d_142_1220" x="61.9117" y="114.856" width="14.1766" height="27.1436" filterUnits="userSpaceOnUse" color-interpolation-filters="sRGB">
<feFlood flood-opacity="0" result="BackgroundImageFix"/>
<feColorMatrix in="SourceAlpha" type="matrix" values="0 0 0 0 0 0 0 0 0 0 0 0 0 0 0 0 0 0 127 0" result="hardAlpha"/>
<feOffset dy="4"/>
<feGaussianBlur stdDeviation="2"/>
<feComposite in2="hardAlpha" operator="out"/>
<feColorMatrix type="matrix" values="0 0 0 0 0 0 0 0 0 0 0 0 0 0 0 0 0 0 0.25 0"/>
<feBlend mode="normal" in2="BackgroundImageFix" result="effect1_dropShadow_142_1220"/>
<feBlend mode="normal" in="SourceGraphic" in2="effect1_dropShadow_142_1220" result="shape"/>
</filter>
<filter id="filter8_d_142_1220" x="86.3235" y="108.243" width="20.8018" height="25.5146" filterUnits="userSpaceOnUse" color-interpolation-filters="sRGB">
<feFlood flood-opacity="0" result="BackgroundImageFix"/>
<feColorMatrix in="SourceAlpha" type="matrix" values="0 0 0 0 0 0 0 0 0 0 0 0 0 0 0 0 0 0 127 0" result="hardAlpha"/>
<feOffset dy="4"/>
<feGaussianBlur stdDeviation="2"/>
<feComposite in2="hardAlpha" operator="out"/>
<feColorMatrix type="matrix" values="0 0 0 0 0 0 0 0 0 0 0 0 0 0 0 0 0 0 0.25 0"/>
<feBlend mode="normal" in2="BackgroundImageFix" result="effect1_dropShadow_142_1220"/>
<feBlend mode="normal" in="SourceGraphic" in2="effect1_dropShadow_142_1220" result="shape"/>
</filter>
<filter id="filter9_d_142_1220" x="104.241" y="90.2949" width="25.5182" height="20.8174" filterUnits="userSpaceOnUse" color-interpolation-filters="sRGB">
<feFlood flood-opacity="0" result="BackgroundImageFix"/>
<feColorMatrix in="SourceAlpha" type="matrix" values="0 0 0 0 0 0 0 0 0 0 0 0 0 0 0 0 0 0 127 0" result="hardAlpha"/>
<feOffset dy="4"/>
<feGaussianBlur stdDeviation="2"/>
<feComposite in2="hardAlpha" operator="out"/>
<feColorMatrix type="matrix" values="0 0 0 0 0 0 0 0 0 0 0 0 0 0 0 0 0 0 0.25 0"/>
<feBlend mode="normal" in2="BackgroundImageFix" result="effect1_dropShadow_142_1220"/>
<feBlend mode="normal" in="SourceGraphic" in2="effect1_dropShadow_142_1220" result="shape"/>
</filter>
<filter id="filter10_d_142_1220" x="110.857" y="65.9121" width="27.1432" height="14.1768" filterUnits="userSpaceOnUse" color-interpolation-filters="sRGB">
<feFlood flood-opacity="0" result="BackgroundImageFix"/>
<feColorMatrix in="SourceAlpha" type="matrix" values="0 0 0 0 0 0 0 0 0 0 0 0 0 0 0 0 0 0 127 0" result="hardAlpha"/>
<feOffset dy="4"/>
<feGaussianBlur stdDeviation="2"/>
<feComposite in2="hardAlpha" operator="out"/>
<feColorMatrix type="matrix" values="0 0 0 0 0 0 0 0 0 0 0 0 0 0 0 0 0 0 0.25 0"/>
<feBlend mode="normal" in2="BackgroundImageFix" result="effect1_dropShadow_142_1220"/>
<feBlend mode="normal" in="SourceGraphic" in2="effect1_dropShadow_142_1220" result="shape"/>
</filter>
<filter id="filter11_d_142_1220" x="104.243" y="34.875" width="25.5146" height="20.8018" filterUnits="userSpaceOnUse" color-interpolation-filters="sRGB">
<feFlood flood-opacity="0" result="BackgroundImageFix"/>
<feColorMatrix in="SourceAlpha" type="matrix" values="0 0 0 0 0 0 0 0 0 0 0 0 0 0 0 0 0 0 127 0" result="hardAlpha"/>
<feOffset dy="4"/>
<feGaussianBlur stdDeviation="2"/>
<feComposite in2="hardAlpha" operator="out"/>
<feColorMatrix type="matrix" values="0 0 0 0 0 0 0 0 0 0 0 0 0 0 0 0 0 0 0.25 0"/>
<feBlend mode="normal" in2="BackgroundImageFix" result="effect1_dropShadow_142_1220"/>
<feBlend mode="normal" in="SourceGraphic" in2="effect1_dropShadow_142_1220" result="shape"/>
</filter>
<filter id="filter12_d_142_1220" x="86.295" y="12.2402" width="20.8177" height="25.5186" filterUnits="userSpaceOnUse" color-interpolation-filters="sRGB">
<feFlood flood-opacity="0" result="BackgroundImageFix"/>
<feColorMatrix in="SourceAlpha" type="matrix" values="0 0 0 0 0 0 0 0 0 0 0 0 0 0 0 0 0 0 127 0" result="hardAlpha"/>
<feOffset dy="4"/>
<feGaussianBlur stdDeviation="2"/>
<feComposite in2="hardAlpha" operator="out"/>
<feColorMatrix type="matrix" values="0 0 0 0 0 0 0 0 0 0 0 0 0 0 0 0 0 0 0.25 0"/>
<feBlend mode="normal" in2="BackgroundImageFix" result="effect1_dropShadow_142_1220"/>
<feBlend mode="normal" in="SourceGraphic" in2="effect1_dropShadow_142_1220" result="shape"/>
</filter>
</defs>
</svg>
