<svg width="50" height="50" viewBox="0 0 50 50" fill="none" xmlns="http://www.w3.org/2000/svg">
<path d="M25.0003 45.8333C30.3732 45.8333 33.3337 43.0208 33.3337 37.9167C33.3337 31.1604 26.5899 25.6854 26.3024 25.4563C25.9329 25.1604 25.4737 24.9992 25.0003 24.9992C24.527 24.9992 24.0677 25.1604 23.6982 25.4563C23.4107 25.6854 16.667 31.1604 16.667 37.9167C16.667 43.0208 19.6274 45.8333 25.0003 45.8333ZM25.0003 29.9188C27.3121 31.992 28.7927 34.834 29.167 37.9167C29.167 40.2333 28.4691 41.6667 25.0003 41.6667C21.5316 41.6667 20.8337 40.2333 20.8337 37.9167C21.208 34.834 22.6885 31.992 25.0003 29.9188ZM13.8024 4.62293C13.4329 4.32709 12.9737 4.16589 12.5003 4.16589C12.027 4.16589 11.5677 4.32709 11.1982 4.62293C10.9107 4.85209 4.16699 10.3271 4.16699 17.0833C4.16699 22.1875 7.12741 25 12.5003 25C17.8732 25 20.8337 22.1875 20.8337 17.0833C20.8337 10.3271 14.0899 4.85209 13.8024 4.62293ZM12.5003 20.8333C9.03158 20.8333 8.33366 19.4 8.33366 17.0833C8.70797 14.0007 10.1886 11.1587 12.5003 9.08542C14.8121 11.1587 16.2927 14.0007 16.667 17.0833C16.667 19.4 15.9691 20.8333 12.5003 20.8333ZM38.8024 4.62293C38.4329 4.32709 37.9737 4.16589 37.5003 4.16589C37.027 4.16589 36.5677 4.32709 36.1982 4.62293C35.9107 4.85209 29.167 10.3271 29.167 17.0833C29.167 22.1875 32.1274 25 37.5003 25C42.8732 25 45.8337 22.1875 45.8337 17.0833C45.8337 10.3271 39.0899 4.85209 38.8024 4.62293ZM37.5003 20.8333C34.0316 20.8333 33.3337 19.4 33.3337 17.0833C33.708 14.0007 35.1885 11.1587 37.5003 9.08542C39.8121 11.1587 41.2927 14.0007 41.667 17.0833C41.667 19.4 40.9691 20.8333 37.5003 20.8333Z" fill="#928B8B"/>
</svg>
