<svg width="50" height="50" viewBox="0 0 50 50" fill="none" xmlns="http://www.w3.org/2000/svg">
<g clip-path="url(#clip0_94_82)">
<path d="M25 50C38.8071 50 50 38.8071 50 25C50 11.1929 38.8071 0 25 0C11.1929 0 0 11.1929 0 25C0 38.8071 11.1929 50 25 50Z" fill="#928B8B"/>
<path d="M24.9998 43.9764C14.5274 43.9764 6.02344 35.4724 6.02344 25C6.02344 14.5276 14.5274 6.02362 24.9998 6.02362C35.4723 6.02362 43.9762 14.5276 43.9762 25C43.9762 35.4724 35.4723 43.9764 24.9998 43.9764Z" fill="black"/>
<path d="M40.039 25.8661C40.039 25.5906 40.0784 25.2756 40.0784 25C40.0784 16.6929 33.3461 9.92126 24.9996 9.92126C16.6926 9.92126 9.9209 16.6535 9.9209 25C9.9209 25.2756 9.9209 25.5906 9.96027 25.8661H40.039Z" fill="#E6E9EE"/>
<path d="M20.1571 16.3779C20.0784 16.2598 19.9603 16.2205 19.8422 16.2992C19.7241 16.3386 19.6453 16.4961 19.7241 16.6142L23.8579 26.5748C23.8973 26.6142 23.8973 26.6929 23.9367 26.7323C24.2516 27.2441 24.9209 27.4016 25.4327 27.0866C25.9446 26.7716 26.102 26.1024 25.7871 25.5905L20.1571 16.3779Z" fill="#FF7058"/>
<path d="M24.9997 28.5827C26.5 28.5827 27.7163 27.3664 27.7163 25.8661C27.7163 24.3658 26.5 23.1496 24.9997 23.1496C23.4994 23.1496 22.2832 24.3658 22.2832 25.8661C22.2832 27.3664 23.4994 28.5827 24.9997 28.5827Z" fill="#FFD05B"/>
<path d="M25.0001 13.3858C24.7245 13.3858 24.4883 13.1496 24.4883 12.874V11.811C24.4883 11.5354 24.7245 11.2992 25.0001 11.2992C25.2757 11.2992 25.5119 11.5354 25.5119 11.811V12.874C25.5119 13.1496 25.2757 13.3858 25.0001 13.3858Z" fill="#ACB3BA"/>
<path d="M33.2287 16.7717C33.0318 16.5748 33.0318 16.2598 33.2287 16.063L33.9767 15.315C34.1736 15.1181 34.4885 15.1181 34.6854 15.315C34.8822 15.5118 34.8822 15.8268 34.6854 16.0236L33.9374 16.7717C33.7011 16.9685 33.3862 16.9685 33.2287 16.7717Z" fill="#ACB3BA"/>
<path d="M15.3547 15.3543C15.5515 15.1575 15.8665 15.1575 16.0633 15.3543L16.8114 16.1024C17.0082 16.2992 17.0082 16.6142 16.8114 16.811C16.6145 17.0079 16.2996 17.0079 16.1027 16.811L15.3547 16.063C15.1578 15.8661 15.1578 15.5512 15.3547 15.3543Z" fill="#ACB3BA"/>
<path d="M20.5507 14.252C20.3145 14.3701 19.9995 14.252 19.9208 13.9764L19.5271 12.9921C19.4089 12.7559 19.5271 12.4409 19.8026 12.3622C20.0389 12.2441 20.3538 12.3622 20.4326 12.6378L20.8263 13.622C20.9444 13.8583 20.8263 14.1732 20.5507 14.252Z" fill="#ACB3BA"/>
<path d="M35.7478 20.5512C35.6296 20.315 35.7478 20 36.0233 19.9213L37.0076 19.5276C37.2438 19.4094 37.5588 19.5276 37.6375 19.8031C37.7556 20.0394 37.6375 20.3543 37.3619 20.4331L36.3777 20.8268C36.1415 20.9449 35.8265 20.8268 35.7478 20.5512Z" fill="#ACB3BA"/>
<path d="M29.4483 14.252C29.2121 14.1339 29.094 13.8583 29.1727 13.622L29.5664 12.6378C29.6845 12.4016 29.9601 12.2835 30.1964 12.3622C30.4326 12.4803 30.5507 12.7559 30.4719 12.9921L30.0782 13.9764C29.9995 14.252 29.6845 14.3701 29.4483 14.252Z" fill="#ACB3BA"/>
<path d="M12.3622 19.7638C12.4803 19.5276 12.7559 19.4095 12.9921 19.4882L13.9764 19.8819C14.2126 20 14.3307 20.2756 14.2519 20.5118C14.1338 20.748 13.8582 20.8661 13.622 20.7874L12.6378 20.3937C12.4016 20.315 12.2834 20.0394 12.3622 19.7638Z" fill="#ACB3BA"/>
<path d="M24.9999 9.09448C25.5435 9.09448 25.9841 8.65382 25.9841 8.11023C25.9841 7.56664 25.5435 7.12598 24.9999 7.12598C24.4563 7.12598 24.0156 7.56664 24.0156 8.11023C24.0156 8.65382 24.4563 9.09448 24.9999 9.09448Z" fill="white"/>
<path d="M24.9999 42.874C25.5435 42.874 25.9841 42.4333 25.9841 41.8898C25.9841 41.3462 25.5435 40.9055 24.9999 40.9055C24.4563 40.9055 24.0156 41.3462 24.0156 41.8898C24.0156 42.4333 24.4563 42.874 24.9999 42.874Z" fill="white"/>
<path d="M41.8895 25.9843C42.4331 25.9843 42.8738 25.5436 42.8738 25C42.8738 24.4564 42.4331 24.0157 41.8895 24.0157C41.3459 24.0157 40.9053 24.4564 40.9053 25C40.9053 25.5436 41.3459 25.9843 41.8895 25.9843Z" fill="white"/>
<path d="M8.11023 25.9843C8.65382 25.9843 9.09448 25.5436 9.09448 25C9.09448 24.4564 8.65382 24.0157 8.11023 24.0157C7.56664 24.0157 7.12598 24.4564 7.12598 25C7.12598 25.5436 7.56664 25.9843 8.11023 25.9843Z" fill="white"/>
</g>
<defs>
<clipPath id="clip0_94_82">
<rect width="50" height="50" fill="white"/>
</clipPath>
</defs>
</svg>
