<svg width="54" height="54" viewBox="0 0 54 54" fill="none" xmlns="http://www.w3.org/2000/svg">
<path d="M25.0763 22.8333C30.3868 22.8333 34.6917 18.1696 34.6917 12.4167C34.6917 6.6637 30.3868 2 25.0763 2C19.7659 2 15.4609 6.6637 15.4609 12.4167" stroke="#979797" stroke-width="4" stroke-linecap="round"/>
<path d="M5.8457 22.8333H25.0765" stroke="#979797" stroke-width="4" stroke-linecap="round"/>
<path d="M7.77051 39.5H34.6936" stroke="#979797" stroke-width="4" stroke-linecap="round"/>
<path d="M28.9238 45.75C28.9238 49.2018 31.5068 52 34.6931 52C37.8793 52 40.4623 49.2018 40.4623 45.75C40.4623 42.2982 37.8793 39.5 34.6931 39.5" stroke="#979797" stroke-width="4" stroke-linecap="round"/>
<path d="M42.3855 31.1667C47.6959 31.1667 52.0009 26.503 52.0009 20.75C52.0009 14.997 47.6959 10.3333 42.3855 10.3333C41.8157 10.3333 41.2574 10.387 40.7148 10.49" stroke="#979797" stroke-width="4" stroke-linecap="round"/>
<path d="M2 31.1667H42.3846" stroke="#979797" stroke-width="4" stroke-linecap="round"/>
</svg>
