<svg width="150" height="150" viewBox="0 0 150 150" fill="none" xmlns="http://www.w3.org/2000/svg">
<path d="M27.4486 69.4805L23.6666 75.0112C22.6537 76.4922 23.999 78.4802 25.6987 78.4802H30.089L25.5294 82.9847H19.6558C19.6729 82.6792 19.626 82.3734 19.5181 82.0863C19.4101 81.7992 19.2433 81.5368 19.028 81.3152C18.8127 81.0936 18.5534 80.9175 18.2661 80.7977C17.9787 80.6779 17.6694 80.617 17.3571 80.6187H11.8535L18.5143 69.4805H27.4486Z" fill="#FAEE00"/>
<path d="M74.2381 98.4137L70.4562 103.944C69.4433 105.425 70.7886 107.413 72.4883 107.413H76.8786L72.3189 111.918H66.4453C66.4624 111.612 66.4156 111.307 66.3076 111.02C66.1997 110.732 66.0329 110.47 65.8176 110.248C65.6023 110.027 65.343 109.851 65.0556 109.731C64.7683 109.611 64.4589 109.55 64.1467 109.552H58.6431L65.3038 98.4137H74.2381Z" fill="#FAEE00"/>
<path d="M113.317 48.7626L109.795 54.4555C108.852 55.9799 110.287 57.9061 111.985 57.8307L116.371 57.6359L112.024 62.3381L106.157 62.5987C106.16 62.2928 106.099 61.9895 105.978 61.7074C105.857 61.4254 105.678 61.1706 105.452 60.9588C105.227 60.747 104.96 60.5826 104.667 60.4757C104.375 60.3688 104.063 60.3217 103.751 60.3372L98.2531 60.5815L104.392 49.159L113.317 48.7626Z" fill="#FAEE00"/>
<path d="M5.5465 82.9793H19.7931C19.7877 83.362 19.6956 83.7388 19.5234 84.0824L14.5529 93.964C18.2596 90.2973 21.9684 86.6327 25.6793 82.9701H32.3149C24.2117 90.9794 16.1073 98.9877 8.00195 106.995C7.7901 107.351 7.46558 107.63 7.07745 107.79C6.68933 107.95 6.25871 107.981 5.85069 107.88C4.34544 107.634 3.12869 105.846 4.10083 104.377L13.7313 85.2131H7.88592C7.27851 85.2042 6.69763 84.9677 6.26257 84.5523C5.8275 84.1369 5.57128 83.574 5.5465 82.9793Z" fill="#231815"/>
<path d="M52.3361 111.913H66.5827C66.5773 112.295 66.4851 112.672 66.313 113.016L61.3425 122.897C65.0492 119.231 68.758 115.566 72.4688 111.903H79.1045C71.0012 119.913 62.8969 127.921 54.7915 135.928C54.5797 136.285 54.2551 136.564 53.867 136.723C53.4789 136.883 53.0483 136.915 52.6402 136.813C51.135 136.567 49.9182 134.779 50.8904 133.31L60.5209 114.146H54.6755C54.0681 114.137 53.4872 113.901 53.0521 113.486C52.6171 113.07 52.3608 112.507 52.3361 111.913Z" fill="#231815"/>
<path d="M92.0617 63.2195L106.294 62.5873C106.306 62.9698 106.231 63.3503 106.075 63.7012L101.567 73.7932C105.1 69.9658 108.636 66.1403 112.173 62.3169L118.802 62.0224C111.077 70.3831 103.352 78.7428 95.6247 87.1015C95.4296 87.467 95.1183 87.7602 94.7379 87.9369C94.3576 88.1136 93.9288 88.1642 93.5166 88.081C92.0015 87.9022 90.7033 86.1698 91.6066 84.6595L100.341 65.0878L94.502 65.3472C93.8948 65.3652 93.3035 65.1548 92.8497 64.7591C92.3959 64.3634 92.1139 63.8125 92.0617 63.2195Z" fill="#231815"/>
<path d="M5.85405 81.7564L9.24715 76.0874C10.8026 73.4818 12.359 70.8783 13.9166 68.2768C14.2302 67.7606 14.4999 67.229 14.804 66.7405C15.4312 65.7296 16.1995 64.9153 17.6515 64.8631C18.3644 64.8426 19.0773 64.8262 19.7902 64.8139C23.8669 64.7494 27.9437 64.8631 31.989 64.8631C33.6887 64.8631 35.0309 66.8511 34.0211 68.3321L30.2392 73.8628H35.8839C37.9285 73.8628 38.9791 76.3824 37.5459 77.7958L33.8047 81.4829C33.303 81.9776 32.8044 82.4723 32.3026 82.964H25.6795L30.2392 78.4595H25.8489C24.1492 78.4595 22.8038 76.4715 23.8168 74.9905L27.5987 69.4598H18.6518L11.9911 80.598H17.4947C17.807 80.5963 18.1163 80.6572 18.4036 80.777C18.691 80.8967 18.9503 81.0729 19.1656 81.2945C19.3809 81.5161 19.5477 81.7785 19.6556 82.0656C19.7636 82.3527 19.8105 82.6584 19.7933 82.964H5.54673C5.52948 82.541 5.63612 82.1219 5.85405 81.7564Z" fill="#231815"/>
<path d="M52.6436 110.69L56.0367 105.021C57.5921 102.415 59.1486 99.8115 60.7061 97.21C61.0197 96.6938 61.2894 96.1623 61.5936 95.6737C62.2208 94.6628 62.9891 93.8486 64.441 93.7963C65.1539 93.7758 65.8668 93.7595 66.5797 93.7472C70.6565 93.6826 74.7332 93.7963 78.7786 93.7963C80.4783 93.7963 81.8205 95.7843 80.8107 97.2653L77.0287 102.796H82.6734C84.7181 102.796 85.7686 105.316 84.3355 106.729L80.5943 110.416C80.0925 110.911 79.5939 111.406 79.0922 111.897H72.4691L77.0287 107.393H72.6384C70.9387 107.393 69.5934 105.405 70.6063 103.924L74.3883 98.393H65.4414L58.7806 109.531H64.2842C64.5965 109.53 64.9058 109.59 65.1932 109.71C65.4805 109.83 65.7399 110.006 65.9552 110.228C66.1705 110.449 66.3372 110.712 66.4452 110.999C66.5531 111.286 66.6 111.592 66.5829 111.897H52.3363C52.319 111.474 52.4257 111.055 52.6436 110.69Z" fill="#231815"/>
<path d="M92.3126 61.9842L95.4402 56.1704C96.8736 53.4985 98.3081 50.8285 99.7438 48.1606C100.033 47.631 100.278 47.088 100.559 46.5865C101.139 45.5488 101.869 44.7013 103.317 44.5847C104.028 44.5326 104.74 44.4846 105.451 44.4407C109.521 44.1953 113.599 44.128 117.64 43.9484C119.338 43.873 120.771 45.7994 119.83 47.3237L116.308 53.0166L121.947 52.7661C123.989 52.6754 125.155 55.1457 123.789 56.6213L120.222 60.4706C119.744 60.9871 119.268 61.5034 118.79 62.0168L112.174 62.3107L116.52 57.6085L112.134 57.8033C110.437 57.8788 109.001 55.9525 109.944 54.4281L113.467 48.7352L104.529 49.1322L98.3898 60.5546L103.888 60.3104C104.2 60.2948 104.511 60.3419 104.804 60.4488C105.097 60.5557 105.364 60.7202 105.589 60.932C105.814 61.1438 105.993 61.3986 106.114 61.6806C106.235 61.9626 106.296 62.2659 106.293 62.5719L92.0614 63.2041C92.0246 62.7823 92.1118 62.359 92.3126 61.9842Z" fill="#231815"/>
<path d="M25.6796 82.9793C21.9708 86.6439 18.262 90.3055 14.5532 93.964L19.5237 84.0732C19.6959 83.7296 19.788 83.3528 19.7934 82.9701L25.6796 82.9793Z" fill="#FAEE00"/>
<path d="M72.4691 111.913C68.7603 115.577 65.0516 119.239 61.3428 122.897L66.3133 113.006C66.4854 112.663 66.5775 112.286 66.5829 111.903L72.4691 111.913Z" fill="#FAEE00"/>
<path d="M112.174 62.326C108.638 66.1515 105.103 69.9739 101.567 73.7932L106.075 63.6919C106.231 63.3411 106.306 62.9606 106.293 62.578L112.174 62.326Z" fill="#FAEE00"/>
<path d="M32.3151 82.9793C32.8168 82.4877 33.3154 81.993 33.8172 81.4983L37.5584 77.8111C38.9915 76.3977 37.941 73.8782 35.8963 73.8782H30.2516L34.0336 68.3475C35.0434 66.8665 33.7012 64.8785 32.0015 64.8785C27.9436 64.8785 23.8637 64.7648 19.8026 64.8293C19.0877 64.8416 18.3747 64.858 17.6639 64.8785C16.212 64.9307 15.45 65.7449 14.8165 66.7558C14.5029 67.2413 14.2363 67.7729 13.929 68.2921C12.3715 70.8936 10.815 73.4972 9.25959 76.1028L5.8665 81.7718C5.64226 82.1429 5.53329 82.57 5.55291 83.0008C5.57533 83.5972 5.83052 84.1623 6.26583 84.5797C6.70114 84.9971 7.28334 85.2348 7.89232 85.2438H13.7252L4.09155 104.386C3.11941 105.855 4.33616 107.643 5.84141 107.889C6.24943 107.991 6.68005 107.959 7.06818 107.799C7.4563 107.64 7.78082 107.361 7.99267 107.004C16.0939 98.9969 24.2013 90.9886 32.3151 82.9793Z" stroke="#231815" stroke-miterlimit="10"/>
<path d="M79.1046 111.913C79.6064 111.421 80.105 110.926 80.6067 110.431L84.3479 106.744C85.7811 105.331 84.7305 102.811 82.6859 102.811H77.0412L80.8231 97.2807C81.8329 95.7996 80.4907 93.8117 78.791 93.8117C74.7331 93.8117 70.6533 93.698 66.5922 93.7625C65.8772 93.7748 65.1643 93.7912 64.4535 93.8117C63.0015 93.8639 62.2395 94.6781 61.606 95.689C61.2924 96.1745 61.0259 96.7061 60.7186 97.2253C59.161 99.8268 57.6046 102.43 56.0491 105.036L52.6561 110.705C52.4318 111.076 52.3228 111.503 52.3425 111.934C52.3649 112.53 52.6201 113.096 53.0554 113.513C53.4907 113.93 54.0729 114.168 54.6819 114.177H60.5147L50.8811 133.319C49.909 134.788 51.1257 136.576 52.631 136.822C53.039 136.924 53.4696 136.892 53.8577 136.733C54.2459 136.573 54.5704 136.294 54.7822 135.937C62.8834 127.93 70.9909 119.922 79.1046 111.913Z" stroke="#231815" stroke-miterlimit="10"/>
<path d="M118.803 62.0316C119.281 61.5182 119.757 61.0019 120.235 60.4854L123.802 56.6361C125.168 55.1605 124.002 52.6902 121.96 52.7809L116.321 53.0314L119.843 47.3385C120.784 45.8142 119.351 43.8878 117.653 43.9632C113.599 44.1433 109.518 44.2108 105.464 44.4555C104.751 44.4995 104.039 44.5475 103.33 44.5995C101.882 44.7161 101.158 45.5633 100.572 46.6013C100.282 47.1002 100.04 47.643 99.7568 48.1754C98.3211 50.8433 96.8866 53.5133 95.4532 56.1852L92.3256 61.999C92.1188 62.3796 92.0297 62.8111 92.0692 63.2407C92.1191 63.8354 92.4002 64.3887 92.8543 64.7863C93.3085 65.1839 93.9011 65.3956 94.5099 65.3776L100.337 65.1187L91.5978 84.6691C90.6946 86.1794 91.9927 87.9118 93.5078 88.0906C93.9201 88.1738 94.3488 88.1232 94.7292 87.9465C95.1095 87.7698 95.4208 87.4766 95.616 87.1111C103.339 78.7526 111.068 70.3927 118.803 62.0316Z" stroke="#231815" stroke-miterlimit="10"/>
<path d="M25.6796 82.9793C21.9708 86.6439 18.2621 90.3055 14.5533 93.964L19.5238 84.0732C19.6959 83.7296 19.788 83.3528 19.7934 82.9701C19.8106 82.6646 19.7637 82.3589 19.6558 82.0718C19.5478 81.7847 19.381 81.5222 19.1657 81.3006C18.9504 81.079 18.6911 80.9029 18.4038 80.7831C18.1164 80.6634 17.8071 80.6025 17.4948 80.6042H11.9912L18.652 69.4659H27.5863L23.8043 74.9966C22.7914 76.4776 24.1367 78.4656 25.8364 78.4656H30.2267L25.6796 82.9793Z" stroke="#231815" stroke-miterlimit="10"/>
<path d="M72.4692 111.913C68.7604 115.577 65.0516 119.239 61.3428 122.897L66.3133 113.006C66.4855 112.663 66.5776 112.286 66.583 111.903C66.6001 111.598 66.5533 111.292 66.4453 111.005C66.3374 110.718 66.1706 110.455 65.9553 110.234C65.74 110.012 65.4807 109.836 65.1933 109.716C64.9059 109.597 64.5966 109.536 64.2844 109.537H58.7808L65.4415 98.3991H74.3758L70.5939 103.93C69.581 105.411 70.9263 107.399 72.626 107.399H77.0163L72.4692 111.913Z" stroke="#231815" stroke-miterlimit="10"/>
<path d="M112.174 62.3261C108.638 66.1515 105.103 69.9739 101.567 73.7932L106.075 63.692C106.231 63.3411 106.306 62.9607 106.293 62.5781C106.296 62.2721 106.235 61.9688 106.114 61.6868C105.993 61.4048 105.815 61.15 105.589 60.9382C105.364 60.7263 105.097 60.5619 104.804 60.455C104.511 60.3481 104.2 60.301 103.888 60.3166L98.3899 60.5608L104.529 49.1384L113.454 48.7419L109.932 54.4348C108.988 55.9593 110.424 57.8855 112.122 57.8101L116.508 57.6153L112.174 62.3261Z" stroke="#231815" stroke-miterlimit="10"/>
<path d="M105.79 4.30887C109.686 5.08588 113.287 6.9066 116.206 9.57428C119.124 12.242 121.248 15.6551 122.348 19.445C124.849 18.5987 127.509 18.335 130.121 18.6744C132.734 19.0137 135.23 19.947 137.414 21.4017C139.598 22.8564 141.412 24.7934 142.716 27.0623C144.019 29.3312 144.777 31.871 144.93 34.4843C145.083 37.0977 144.627 39.7144 143.598 42.1312C142.568 44.5481 140.993 46.7 138.995 48.42C136.996 50.1399 134.628 51.3816 132.074 52.0486C129.52 52.7156 126.85 52.79 124.269 52.2659L96.8653 46.8186C91.1955 45.6758 86.2281 42.3405 83.0558 37.5464C79.8835 32.7522 78.7662 26.892 79.9497 21.2549C81.1332 15.6178 84.5206 10.6655 89.3666 7.48747C94.2126 4.30948 100.12 3.1661 105.79 4.30887Z" fill="url(#paint0_linear_139_209)"/>
<path d="M26.7059 18.1343C31.5704 18.1244 36.3451 19.4385 40.514 21.9343C44.6828 24.4301 48.0874 28.0129 50.3597 32.2953C53.1435 30.6748 56.265 29.7149 59.4818 29.4901C62.6986 29.2653 65.9242 29.7818 68.908 30.9994C71.8919 32.217 74.5537 34.1029 76.6869 36.5108C78.82 38.9186 80.3671 41.7836 81.208 44.8832C82.0488 47.9829 82.1609 51.2338 81.5354 54.3835C80.9099 57.5332 79.5637 60.4971 77.6013 63.0448C75.6389 65.5926 73.1131 67.6558 70.2201 69.0741C67.3271 70.4924 64.1447 71.2278 60.92 71.2231L26.7059 71.3143C19.6231 71.3143 12.8303 68.5129 7.82198 63.5263C2.81365 58.5397 0 51.7764 0 44.7243C0 37.6722 2.81365 30.9089 7.82198 25.9223C12.8303 20.9357 19.6231 18.1343 26.7059 18.1343Z" fill="url(#paint1_linear_139_209)"/>
<path d="M13.4395 122.949L11.1191 117.026C10.6625 115.86 9.54485 115.055 8.21307 115.41C7.07649 115.718 6.10363 117.082 6.5633 118.257L8.88368 124.18C9.3402 125.346 10.4579 126.151 11.7897 125.797C12.9263 125.488 13.8991 124.125 13.4395 122.949Z" fill="#2EA7E0"/>
<path d="M50.4551 85.2545L48.1347 79.3316C47.6782 78.1656 46.5605 77.3604 45.2287 77.7152C44.0921 78.0236 43.1193 79.3872 43.5789 80.5625L45.8993 86.4854C46.3558 87.6515 47.4735 88.4566 48.8053 88.1019C49.9419 87.7934 50.9147 86.4299 50.4551 85.2545Z" fill="#2EA7E0"/>
<path d="M30.0757 115.614L27.7553 109.691C27.2988 108.525 26.1811 107.72 24.8493 108.075C23.7127 108.383 22.7399 109.747 23.1995 110.922L25.5199 116.845C25.9764 118.011 27.0941 118.816 28.4259 118.461C29.5625 118.153 30.5354 116.789 30.0757 115.614Z" fill="#2EA7E0"/>
<path d="M39.2256 101.555L36.9052 95.632C36.4487 94.466 35.331 93.6608 33.9992 94.0156C32.8626 94.3241 31.8898 95.6876 32.3494 96.8629L34.6698 102.786C35.1263 103.952 36.244 104.757 37.5758 104.402C38.7124 104.094 39.6853 102.73 39.2256 101.555Z" fill="#2EA7E0"/>
<path d="M18.2222 102.981L15.9018 97.0583C15.4453 95.8922 14.3276 95.0871 12.9958 95.4418C11.8592 95.7503 10.8863 97.1138 11.346 98.2892L13.6664 104.212C14.1229 105.378 15.2406 106.183 16.5724 105.829C17.709 105.52 18.6818 104.157 18.2222 102.981Z" fill="#2EA7E0"/>
<path d="M28.2041 133.952L25.8837 128.029C25.4272 126.863 24.3095 126.058 22.9777 126.413C21.8411 126.721 20.8683 128.085 21.3279 129.26L23.6483 135.183C24.1049 136.349 25.2225 137.154 26.5543 136.799C27.6909 136.491 28.6638 135.127 28.2041 133.952Z" fill="#2EA7E0"/>
<path d="M52.3267 107.464L50.0063 101.541C49.5498 100.375 48.4321 99.5697 47.1003 99.9245C45.9637 100.233 44.9908 101.596 45.4505 102.772L47.7709 108.695C48.2274 109.861 49.3451 110.666 50.6769 110.311C51.8135 110.003 52.7863 108.639 52.3267 107.464Z" fill="#2EA7E0"/>
<path d="M88.5107 101.555L86.1904 95.632C85.7338 94.466 84.6161 93.6608 83.2844 94.0156C82.1478 94.3241 81.1749 95.6876 81.6346 96.8629L83.955 102.786C84.4115 103.952 85.5292 104.757 86.861 104.402C87.9976 104.094 88.9704 102.73 88.5107 101.555Z" fill="#2EA7E0"/>
<path d="M70.4185 88.7184L68.0981 82.7955C67.6415 81.6294 66.5239 80.8242 65.1921 81.179C64.0555 81.4875 63.0826 82.851 63.5423 84.0263L65.8627 89.9492C66.3192 91.1153 67.4369 91.9205 68.7687 91.5657C69.9053 91.2572 70.8781 89.8937 70.4185 88.7184Z" fill="#2EA7E0"/>
<path d="M88.5107 78.1231L86.1904 72.2002C85.7338 71.0341 84.6161 70.229 83.2844 70.5838C82.1478 70.8922 81.1749 72.2557 81.6346 73.4311L83.955 79.354C84.4115 80.5201 85.5292 81.3252 86.861 80.9705C87.9976 80.662 88.9704 79.2985 88.5107 78.1231Z" fill="#2EA7E0"/>
<path d="M114.089 101.351L111.768 95.4283C111.312 94.2622 110.194 93.4571 108.862 93.8118C107.726 94.1203 106.753 95.4838 107.213 96.6592L109.533 102.582C109.99 103.748 111.107 104.553 112.439 104.199C113.576 103.89 114.549 102.527 114.089 101.351Z" fill="#2EA7E0"/>
<path d="M98.2847 135.786L95.9643 129.863C95.5078 128.697 94.3901 127.892 93.0583 128.246C91.9217 128.555 90.9488 129.918 91.4085 131.094L93.7289 137.017C94.1854 138.183 95.3031 138.988 96.6349 138.633C97.7715 138.325 98.7443 136.961 98.2847 135.786Z" fill="#2EA7E0"/>
<path d="M122.199 135.786L119.879 129.863C119.422 128.697 118.305 127.892 116.973 128.246C115.836 128.555 114.863 129.918 115.323 131.094L117.643 137.017C118.1 138.183 119.218 138.988 120.549 138.633C121.686 138.325 122.659 136.961 122.199 135.786Z" fill="#2EA7E0"/>
<path d="M112.009 141.287L109.689 135.364C109.232 134.198 108.115 133.393 106.783 133.748C105.646 134.056 104.673 135.42 105.133 136.595L107.454 142.518C107.91 143.684 109.028 144.489 110.36 144.135C111.496 143.826 112.469 142.463 112.009 141.287Z" fill="#2EA7E0"/>
<path d="M129.27 99.3136L126.949 93.3907C126.493 92.2246 125.375 91.4195 124.043 91.7742C122.907 92.0827 121.934 93.4462 122.393 94.6216L124.714 100.544C125.17 101.711 126.288 102.516 127.62 102.161C128.756 101.852 129.729 100.489 129.27 99.3136Z" fill="#2EA7E0"/>
<path d="M115.545 85.2545L113.225 79.3316C112.768 78.1656 111.65 77.3604 110.319 77.7152C109.182 78.0236 108.209 79.3872 108.669 80.5625L110.989 86.4854C111.446 87.6515 112.563 88.4566 113.895 88.1019C115.032 87.7934 116.005 86.4299 115.545 85.2545Z" fill="#2EA7E0"/>
<path d="M126.982 115.614L124.662 109.691C124.205 108.525 123.087 107.72 121.756 108.075C120.619 108.383 119.646 109.747 120.106 110.922L122.426 116.845C122.883 118.011 124 118.816 125.332 118.461C126.469 118.153 127.442 116.789 126.982 115.614Z" fill="#2EA7E0"/>
<path d="M78.9448 130.488L76.6244 124.565C76.1679 123.399 75.0502 122.594 73.7184 122.949C72.5819 123.257 71.609 124.621 72.0687 125.796L74.3891 131.719C74.8456 132.885 75.9633 133.69 77.2951 133.336C78.4316 133.027 79.4045 131.664 78.9448 130.488Z" fill="#2EA7E0"/>
<path d="M86.0151 118.263L83.6947 112.34C83.2382 111.174 82.1205 110.369 80.7888 110.724C79.6522 111.032 78.6793 112.396 79.139 113.571L81.4594 119.494C81.9159 120.66 83.0336 121.465 84.3654 121.11C85.5019 120.802 86.4748 119.438 86.0151 118.263Z" fill="#2EA7E0"/>
<path d="M112.009 118.263L109.689 112.34C109.232 111.174 108.115 110.369 106.783 110.724C105.646 111.032 104.673 112.396 105.133 113.571L107.454 119.494C107.91 120.66 109.028 121.465 110.36 121.11C111.496 120.802 112.469 119.438 112.009 118.263Z" fill="#2EA7E0"/>
<path d="M99.1162 117.652L96.7958 111.729C96.3393 110.563 95.2216 109.757 93.8898 110.112C92.7532 110.421 91.7804 111.784 92.2401 112.96L94.5604 118.882C95.017 120.049 96.1347 120.854 97.4664 120.499C98.603 120.19 99.5759 118.827 99.1162 117.652Z" fill="#2EA7E0"/>
<path d="M125.734 77.1043L123.414 71.1814C122.957 70.0154 121.84 69.2102 120.508 69.565C119.371 69.8734 118.399 71.2369 118.858 72.4123L121.179 78.3352C121.635 79.5013 122.753 80.3064 124.085 79.9517C125.221 79.6432 126.194 78.2797 125.734 77.1043Z" fill="#2EA7E0"/>
<path d="M102.651 101.351L100.331 95.4283C99.8745 94.2622 98.7568 93.4571 97.425 93.8118C96.2884 94.1203 95.3155 95.4838 95.7752 96.6592L98.0956 102.582C98.5521 103.748 99.6698 104.553 101.002 104.199C102.138 103.89 103.111 102.527 102.651 101.351Z" fill="#2EA7E0"/>
<path d="M47.9595 125.191L45.6391 119.268C45.1826 118.102 44.0649 117.296 42.7331 117.651C41.5965 117.96 40.6236 119.323 41.0833 120.498L43.4037 126.421C43.8602 127.587 44.9779 128.393 46.3097 128.038C47.4463 127.729 48.4191 126.366 47.9595 125.191Z" fill="#2EA7E0"/>
<defs>
<linearGradient id="paint0_linear_139_209" x1="91.0859" y1="47.54" x2="123.644" y2="19.3669" gradientUnits="userSpaceOnUse">
<stop stop-color="#151515"/>
<stop offset="1" stop-color="#676767"/>
</linearGradient>
<linearGradient id="paint1_linear_139_209" x1="19.9608" y1="73.5782" x2="51.97" y2="31.9479" gradientUnits="userSpaceOnUse">
<stop stop-color="#151515"/>
<stop offset="1" stop-color="#676767"/>
</linearGradient>
</defs>
</svg>
