<svg width="180" height="150" viewBox="0 0 180 150" fill="none" xmlns="http://www.w3.org/2000/svg">
<path d="M34.0836 94.5567L29.3875 102.528C28.1297 104.663 29.8002 107.528 31.9108 107.528H37.3624L31.7005 114.021H24.407C24.4283 113.58 24.3701 113.14 24.236 112.726C24.102 112.312 23.8949 111.934 23.6276 111.614C23.3602 111.295 23.0382 111.041 22.6814 110.868C22.3246 110.696 21.9405 110.608 21.5527 110.611H14.7187L22.9896 94.5567H34.0836Z" fill="#FAEE00"/>
<path d="M140.71 64.6955L136.336 72.9008C135.164 75.098 136.947 77.8743 139.056 77.7656L144.502 77.4848L139.104 84.2622L131.818 84.6379C131.822 84.1969 131.746 83.7597 131.596 83.3532C131.445 82.9467 131.224 82.5795 130.944 82.2742C130.664 81.9689 130.332 81.7319 129.969 81.5778C129.606 81.4238 129.218 81.3559 128.831 81.3783L122.004 81.7303L129.627 65.2669L140.71 64.6955Z" fill="#FAEE00"/>
<path d="M6.88737 114.013H24.5779C24.5711 114.565 24.4568 115.108 24.243 115.603L18.071 129.845C22.6737 124.56 27.279 119.279 31.8869 114H40.1266C30.0645 125.544 20.0011 137.086 9.93638 148.627C9.67332 149.141 9.27035 149.543 8.7884 149.773C8.30645 150.003 7.77173 150.049 7.26509 149.903C5.39596 149.548 3.88509 146.971 5.09223 144.854L17.0507 117.233H9.7923C9.03805 117.22 8.31675 116.879 7.77653 116.28C7.2363 115.681 6.91813 114.87 6.88737 114.013Z" fill="#231815"/>
<path d="M114.316 85.5325L131.988 84.6213C132.004 85.1727 131.911 85.7211 131.717 86.2268L126.119 100.773C130.506 95.2562 134.897 89.7425 139.289 84.2316L147.521 83.8072C137.929 95.8576 128.335 107.907 118.74 119.954C118.498 120.481 118.112 120.904 117.639 121.158C117.167 121.413 116.635 121.486 116.123 121.366C114.241 121.108 112.629 118.611 113.751 116.434L124.597 88.2254L117.346 88.5992C116.592 88.6252 115.858 88.3219 115.295 87.7516C114.731 87.1813 114.381 86.3873 114.316 85.5325Z" fill="#231815"/>
<path d="M7.26914 112.25L11.4825 104.079C13.4139 100.324 15.3466 96.5714 17.2806 92.8218C17.67 92.0778 18.0049 91.3116 18.3826 90.6074C19.1614 89.1504 20.1155 87.9768 21.9184 87.9015C22.8036 87.872 23.6889 87.8484 24.5741 87.8307C29.6363 87.7377 34.6985 87.9015 39.7218 87.9015C41.8324 87.9015 43.499 90.7669 42.2451 92.9015L37.549 100.873H44.5582C47.0971 100.873 48.4016 104.505 46.622 106.542L41.9764 111.856C41.3534 112.569 40.7343 113.282 40.1112 113.991H31.8871L37.549 107.498H32.0973C29.9868 107.498 28.3163 104.633 29.574 102.498L34.2702 94.5268H23.1606L14.8897 110.581H21.7237C22.1115 110.578 22.4956 110.666 22.8524 110.839C23.2092 111.011 23.5312 111.265 23.7986 111.584C24.0659 111.904 24.273 112.282 24.407 112.696C24.5411 113.11 24.5993 113.55 24.578 113.991H6.88753C6.86611 113.381 6.99852 112.777 7.26914 112.25Z" fill="#231815"/>
<path d="M114.627 83.7521L118.511 75.3726C120.291 71.5214 122.072 67.6732 123.855 63.8278C124.214 63.0645 124.518 62.2819 124.868 61.559C125.588 60.0634 126.494 58.8418 128.292 58.6738C129.175 58.5987 130.058 58.5295 130.942 58.4662C135.995 58.1125 141.059 58.0155 146.077 57.7567C148.185 57.648 149.965 60.4246 148.797 62.6216L144.423 70.8269L151.425 70.4658C153.961 70.335 155.409 73.8956 153.712 76.0224L149.283 81.5706C148.689 82.315 148.099 83.0591 147.505 83.7991L139.289 84.2227L144.687 77.4453L139.241 77.7261C137.132 77.8348 135.35 75.0585 136.521 72.8613L140.895 64.656L129.797 65.2282L122.174 81.6916L129.001 81.3396C129.388 81.3172 129.775 81.3851 130.138 81.5392C130.502 81.6932 130.833 81.9302 131.113 82.2355C131.393 82.5408 131.615 82.908 131.765 83.3145C131.916 83.721 131.991 84.1582 131.988 84.5992L114.315 85.5104C114.27 84.9024 114.378 84.2923 114.627 83.7521Z" fill="#231815"/>
<path d="M31.887 114.013C27.2817 119.295 22.6763 124.572 18.071 129.845L24.2431 115.589C24.4569 115.094 24.5713 114.551 24.578 114L31.887 114.013Z" fill="#FAEE00"/>
<path d="M139.29 84.2448C134.9 89.7585 130.509 95.2678 126.119 100.773L131.717 86.2135C131.911 85.7078 132.003 85.1595 131.988 84.608L139.29 84.2448Z" fill="#FAEE00"/>
<path d="M131.363 0.623282C136.2 1.74319 140.673 4.36744 144.296 8.21243C147.92 12.0574 150.558 16.9769 151.924 22.4393C155.029 21.2196 158.332 20.8395 161.576 21.3287C164.82 21.8178 167.919 23.1629 170.631 25.2596C173.343 27.3563 175.596 30.1481 177.215 33.4184C178.833 36.6886 179.774 40.3492 179.964 44.1159C180.154 47.8826 179.588 51.6541 178.31 55.1376C177.032 58.621 175.076 61.7227 172.594 64.2017C170.113 66.6807 167.172 68.4703 164.001 69.4317C160.83 70.3931 157.513 70.5002 154.309 69.7449L120.281 61.8935C113.241 60.2464 107.072 55.4391 103.133 48.5293C99.194 41.6194 97.8066 33.1729 99.2762 25.048C100.746 16.923 104.952 9.78519 110.969 5.20467C116.987 0.62415 124.323 -1.02382 131.363 0.623282Z" fill="url(#paint0_linear_142_1246)"/>
<path d="M33.1616 20.5501C39.202 20.536 45.1309 22.4299 50.3075 26.0272C55.4842 29.6245 59.7117 34.7884 62.5333 40.9608C65.9901 38.6251 69.8661 37.2415 73.8605 36.9176C77.855 36.5936 81.8602 37.338 85.5654 39.0929C89.2705 40.8479 92.5758 43.5661 95.2246 47.0366C97.8734 50.5071 99.7945 54.6365 100.839 59.104C101.883 63.5716 102.022 68.2572 101.245 72.797C100.468 77.3368 98.7968 81.6086 96.3601 85.2808C93.9233 88.953 90.787 91.9266 87.1946 93.9709C83.6023 96.0152 79.6506 97.0751 75.6464 97.0684L33.1616 97.1998C24.3666 97.1998 15.9318 93.162 9.71281 85.9747C3.4938 78.7874 0 69.0393 0 58.875C0 48.7106 3.4938 38.9625 9.71281 31.7752C15.9318 24.5879 24.3666 20.5501 33.1616 20.5501Z" fill="url(#paint1_linear_142_1246)"/>
<defs>
<linearGradient id="paint0_linear_142_1246" x1="24.7859" y1="100.463" x2="72.2168" y2="47.3179" gradientUnits="userSpaceOnUse">
<stop stop-color="#AEAEAE"/>
<stop offset="1" stop-color="#676767"/>
</linearGradient>
<linearGradient id="paint1_linear_142_1246" x1="24.7859" y1="100.463" x2="72.2168" y2="47.3179" gradientUnits="userSpaceOnUse">
<stop stop-color="#AEAEAE"/>
<stop offset="1" stop-color="#676767"/>
</linearGradient>
</defs>
</svg>
